<svg id="Layer_1" data-name="Layer 1" xmlns="http://www.w3.org/2000/svg" viewBox="0 0 432 432"><defs><style>.cls-1 { fill: #fff; }</style></defs><title>Chicago</title><g><path d="M231.43042,222.84033,227.312,218.7146l-1.18689-1.18921-5.25769-5.26721-5.68237-5.69275-4.66309,4.41541-5.30371,5.02209-1.68286,1.59351-3.67456,3.47937-.02527.024h-.00012c.38159,1.47278.73975,2.9375,1.08765,4.39673,1.21606,5.09961,2.23779,10.10266,3.08545,14.88953,1.34229,7.58118,2.26794,14.62109,2.9021,20.642q.13586,1.29034.25427,2.51672c.26306,2.71814.46338,5.17957.61841,7.35693.25159-.00085.50183-.00183.754-.00256q2.55322-.00732,5.14868-.00757c.464,0,.92566.00061,1.38831.001q.73114.00055,1.46082.00146,3.29535.00531,6.53784.02222.37683.00183.75293.00391c.09094-1.22717.197-2.54761.321-3.95264.165-1.87341.36182-3.89746.5957-6.05176q.08752-.80786.18237-1.63977c.27515-2.41467.5968-4.97571.97217-7.65564.62549-4.46655,1.40039-9.26331,2.3584-14.26343.62231-3.24841,1.327-6.583,2.11377-9.96484.34863-1.49878.70862-3.00391,1.0929-4.51978Z"/><path d="M364.78564,161.49121c-14.56348-23.85059-41.99414-29.61035-62.44043-30.24219a63.15948,63.15948,0,0,0-38.124,10.92053l-40.91113-41.48181V72.35059h14.42578a8,8,0,0,0,0-16H223.31006V37.13184a8,8,0,0,0-16,0V56.35059h-16.668a8,8,0,0,0,0,16h16.668v29.325l-39.39221,40.61829a63.0724,63.0724,0,0,0-38.26306-11.0448c-20.44629.63184-47.877,6.3916-62.44043,30.24219-13.82617,22.64355-10.53613,52.73145-1.1416,72.50586,7.1123,14.9707,14.6123,24.86426,21.23047,33.59277,5.613,7.4043,10.19751,13.45776,13.17383,20.7583a27.76957,27.76957,0,0,0-2.78809.688,6.49854,6.49854,0,0,0-4.41406,7.19824c.02246.1416,2.252,14.30664,2.70605,23.27246a6.5,6.5,0,0,0,6.00781,6.1543c.16089.012,4.48816.33142,11.76465.79651a13.099,13.099,0,0,1,5.2334,4.97009c8.28711,13.9873-2.71387,45.01367-7.65137,55.78613a6.5,6.5,0,0,0,4.17676,8.97949c.93262.25781,23.75879,6.30664,103.252,6.30664,78.44922,0,96.124-5.82812,97.88184-6.49219a6.50075,6.50075,0,0,0,3.60645-8.79395c-4.94434-10.75879-15.958-41.75-7.65527-55.7793a13.07668,13.07668,0,0,1,5.03174-4.85242c7.73853-.53455,12.32129-.91284,12.478-.9259a6.49962,6.49962,0,0,0,5.89746-5.58887c1.10059-7.9668,4.4873-23.76758,4.52148-23.92578a6.49977,6.49977,0,0,0-4.90625-7.70117c-.2-.04565-1.35376-.29907-3.85425-.67407,2.98022-7.04272,7.469-12.96973,12.93237-20.17651,6.61719-8.72852,14.11719-18.623,21.22949-33.59277C375.32178,214.22266,378.61182,184.13477,364.78564,161.49121Zm-23.9314,89.4502c-2.2312,3.1377-4.42114,6.03149-6.51624,8.79529a167.44847,167.44847,0,0,0-9.91467,14.04358c-.365.60059-.72534,1.20435-1.07544,1.81665q-.4325.75623-.84717,1.52783a62.66576,62.66576,0,0,0-4.04858,9.10925H318.452q-2.46112-.2254-5.3512-.45605c-2.41846-.19226-5.061-.38513-7.96045-.57483-4.05481-.26562-8.60461-.5249-13.68054-.76855h-.00012c-6.58179-.31616-14.06421-.6051-22.54395-.84558-9.58765-.27185-20.4502-.48157-32.7417-.597q-6.38635-.06006-13.28479-.08521c-.30249-.001-.61414-.00146-.91821-.00244-2.55847-.00806-5.162-.0127-7.83-.0127q-2.29724,0-4.5343.00439c-.30945.00073-.61.00183-.91785.00256q-6.91626.01593-13.27856.07068c-12.63477.10742-23.69666.3208-33.35217.60718h-.00012c-8.65039.25647-16.17285.57129-22.72229.91882h-.00012c-4.625.24548-8.76184.5072-12.45581.77673-3.0332.22144-5.76917.44775-8.23389.67468q-2.725.25085-5.02148.50024c-3.60229-10.40234-9.51807-18.21008-15.96179-26.71021q-1.4621-1.92883-2.98193-3.95544a155.17209,155.17209,0,0,1-16.86523-27.36194q-.37244-.78387-.72986-1.59827c-.05664-.12915-.11084-.26343-.167-.39368-.17834-.41321-.35559-.82825-.52783-1.25208-.07446-.18335-.14575-.37195-.219-.55713-.14954-.37805-.29883-.75635-.44336-1.14209-.079-.21069-.15466-.426-.23218-.63892-.13379-.368-.26721-.73633-.39624-1.1106-.07886-.229-.15466-.46191-.23169-.69312-.12158-.36475-.24255-.73022-.35937-1.10059-.07715-.24463-.15161-.49219-.22656-.73914-.11084-.36426-.22058-.72949-.32666-1.09851-.07349-.25586-.14453-.514-.21582-.77222q-.152-.55115-.29773-1.10815-.10272-.39514-.201-.79419-.13861-.55811-.27-1.12146-.09448-.40576-.18481-.81421-.12543-.56653-.24268-1.13843-.08459-.41144-.16589-.82483-.11243-.5777-.2157-1.16064c-.04932-.27612-.09888-.55225-.14551-.83008-.06592-.3927-.12732-.7876-.1875-1.18323-.04224-.277-.08521-.55359-.12451-.83191-.05688-.4032-.10815-.80847-.15894-1.21411-.03418-.27295-.07007-.54541-.10132-.81934-.0481-.4198-.08936-.84167-.13062-1.26343-.02563-.26233-.05371-.52393-.07666-.787-.03918-.44861-.07043-.89929-.10156-1.34985-.0166-.23816-.03662-.47546-.05078-.714-.03052-.51025-.05151-1.02222-.07153-1.53418-.00708-.18079-.01819-.36084-.02393-.54187q-.033-1.0448-.03625-2.09265c-.00037-.11548.00354-.23108.00378-.34656.00122-.53235.00549-1.06482.01892-1.59766.00647-.25732.02014-.51453.02942-.77185.0144-.39587.02747-.79175.04883-1.1875.01514-.282.03735-.56348.056-.84521.02454-.36987.048-.73987.079-1.10937.02441-.29333.0553-.58606.08374-.879.03491-.358.06909-.71594.11-1.07336.03394-.29663.07349-.59253.11169-.88867.04541-.35229.09106-.70459.14246-1.056.04382-.29871.09229-.59668.1405-.89465.056-.34668.11328-.69312.17554-1.03845.05371-.29858.11133-.59631.16956-.8938q.10126-.516.21069-1.02991.09576-.44458.19885-.88745.11829-.5094.246-1.01636.11151-.44275.22986-.88354.13623-.50427.283-1.00488c.08459-.29077.16992-.5813.25952-.87036.10388-.33545.21338-.66895.324-1.002.09424-.28394.18823-.56787.2876-.8501.11768-.33447.24231-.66626.36707-.998.10413-.27673.20667-.55408.31555-.82886.1333-.33569.27466-.66772.41541-1.00037.11243-.26575.222-.53284.33936-.79651.15222-.342.31409-.67993.47449-1.01843.11816-.24915.23193-.50012.35449-.74719.18115-.36523.374-.72534.56519-1.08594.11377-.21436.22156-.4314.33875-.644.28088-.50952.57446-1.01282.8761-1.512.035-.058.06665-.11768.10193-.17541.35535-.58191.72522-1.15125,1.10486-1.712.15259-.22485.31311-.4425.46948-.66394.228-.32336.45605-.64661.69226-.96252.21082-.28149.42871-.55652.646-.832.188-.23889.376-.47778.56885-.71228q.38672-.4693.78772-.9259.23364-.26807.47144-.53271.45667-.50574.92847-.99829c.11987-.12476.24194-.2478.36328-.37109.35522-.36035.71411-.71753,1.08252-1.06616.06885-.06519.13965-.12842.209-.19324.4137-.38647.83276-.76831,1.2627-1.14038q.72308-.62531,1.47644-1.22375a46.50836,46.50836,0,0,1,3.84973-2.74536c.08447-.0542.17224-.10547.25732-.15918q.87195-.55078,1.776-1.07239c.14246-.08179.28894-.15991.43274-.2406.55469-.3114,1.11621-.61646,1.68958-.91089.1864-.0957.37683-.18787.56531-.28174.54077-.26965,1.08752-.53381,1.64441-.7887.22327-.10217.45007-.201.67615-.3009q.80035-.35376,1.62134-.689c.25549-.10352.51379-.20459.77246-.30542q.79614-.31055,1.61194-.60327.42682-.15271.859-.30029.79779-.27283,1.6145-.52808.46509-.14575.9353-.28687.8042-.23932,1.62744-.46118c.33325-.09045.6665-.18091,1.00415-.26746.54248-.13916,1.09338-.27063,1.647-.39941.35437-.0824.70752-.16589,1.06641-.244.55286-.12036,1.115-.23242,1.67847-.34277.37207-.073.7417-.14783,1.11841-.21631.56543-.10291,1.14111-.19629,1.71716-.28931.38757-.0625.77185-.12817,1.16418-.18616.58423-.08655,1.17969-.16248,1.77441-.239.39648-.051.78845-.10632,1.1897-.15283.6145-.07141,1.24145-.13123,1.86719-.19226.39441-.03833.783-.08228,1.18188-.1167.68018-.05859,1.37427-.104,2.06714-.15063.356-.02393.70508-.05432,1.06421-.07507q1.504-.08679,3.04761-.13562c.05493-.00183.10767-.00549.16248-.0072l.0072-.00012c.60986-.019,1.21484-.02869,1.81836-.02869.16406,0,.32459.01038.48816.01172.44348.00378.88342.01758,1.32336.03174.46973.015.939.03174,1.40479.05872.4375.02515.87183.05981,1.30591.09546.46069.03784.92065.07788,1.37744.12744.14258.0155.28345.03564.42554.05273.18555.02258.37109.04517.5564.06885.10181.01294.20422.02429.30579.03784.45251.06055.90417.1239,1.35266.196.08057.01294.15991.02905.24023.04236.09668.016.19263.03381.28906.0509.24573.043.49219.084.73706.12988.44507.08325.88916.16992,1.33032.26477.10425.02246.2074.04871.31152.07178.166.03674.33105.07581.49658.11438.14575.03394.29248.06567.438.10083.43677.10571.87231.21558,1.30518.333.12732.03455.2533.07336.38037.10889l.02515.0072c.27417.07727.549.15369.82178.23523q.64233.19208,1.27881.40039.60718.2,1.2085.416.62988.22559,1.25415.468c.17371.06763.3457.14014.5188.20972l.11841.04785c.18384.07446.36853.14612.55151.2229q.61725.25854,1.22852.535c.1958.08838.38989.18176.58472.27271l.01526.00708c.19006.08887.38123.17468.57043.266q.60352.29132,1.20068.60059.57935.29883,1.15381.6123c.39355.21594.78442.43921,1.17407.66638.37915.22107.75708.44519,1.13257.67688.38623.23828.76953.48438,1.15186.73389.37183.24292.74292.48816,1.11133.7417l.005.0033c.376.25879.7489.52625,1.12109.796.36536.265.7301.532,1.09192.80762.36938.28149.7356.57239,1.10107.865.3584.28687.71619.575,1.0708.87256.36182.30371.72034.61743,1.07837.93237.351.30847.70166.61755,1.04883.93677.35364.32532.70361.66113,1.05347.99756.16577.1593.33032.32117.49524.48291l.0072-.00732,1.99463-2.03,2.50391-2.54858,4.51526-4.5957L211.1665,117.127a6.502,6.502,0,0,1,4.60938-1.94434h.02734a6.50006,6.50006,0,0,1,4.59766,1.90527L253.915,150.63025l4.55762,4.56165,2.676,2.67822,1.87231,1.87378.00122.00122.00293.00293c.06689-.06494.13354-.13037.20068-.19507.02979-.02869.05945-.05811.08936-.08679.36194-.347.72412-.69348,1.09009-1.02869l.0498-.04431c.29285-.2677.58862-.527.88416-.78723l.05823-.05188c.38477-.338.77-.674,1.15918-.99915l.03467-.02808c.1626-.13574.3269-.26636.49072-.39868.14722-.119.2937-.24023.44128-.3584.40955-.32812.82007-.65308,1.23425-.967l.01575-.0116c.30481-.231.61206-.45459.91931-.678l.011-.00818c.42969-.312.86084-.62,1.29541-.91736l.00708-.00476c.09277-.06335.18665-.12329.27954-.186q.31018-.20947.62183-.41382l.045-.02991c.43689-.28577.87561-.56665,1.3175-.83777.32422-.199.65039-.39172.9773-.58276.44263-.25854.887-.51172,1.33459-.756.02039-.01111.04114-.02161.06165-.03259.278-.15125.55737-.29785.83716-.44336.03613-.0188.07178-.03857.10779-.05713q.67145-.34717,1.34973-.67432c.03125-.01489.06274-.02881.094-.0437.26733-.12769.53564-.25183.80469-.37451.04541-.02075.09045-.04272.13586-.06323q.67987-.30762,1.36633-.59448c.04175-.01746.08411-.03345.126-.05078q.38782-.16058.7782-.314c.05273-.02075.105-.04309.15784-.06372q.68665-.26788,1.38013-.51477c.05225-.01868.10522-.03577.15747-.05408q.38013-.134.76245-.262c.05835-.01953.11646-.04077.17493-.06018q.69122-.22815,1.38953-.43506c.37476-.11145.75049-.21973,1.12817-.32239q.69672-.18951,1.40063-.35754c.0686-.01648.13794-.03125.20666-.04749.25647-.06055.51306-.12061.77087-.17725.06128-.01343.12183-.02905.18311-.04224.46716-.10083.937-.19287,1.40845-.28064.07324-.01367.147-.02551.22046-.0387.26709-.04858.53418-.097.80273-.14136.05847-.00964.11621-.02124.1748-.03076.46875-.07568.94067-.14221,1.4137-.2052.07214-.00964.1449-.01746.21716-.02686.28833-.03711.57642-.07471.86609-.10706.05066-.00574.10083-.01331.15149-.0188.47131-.05127.94568-.093,1.421-.13184.0636-.00513.12769-.009.19141-.01392.16235-.0127.32532-.02344.48779-.03564.1969-.01465.39319-.03174.59106-.04321.47229-.02734.94788-.04468,1.42419-.05981.43628-.01416.87292-.02759,1.31274-.03149.16626-.00146.32971-.01184.49658-.01184.5957.00012,1.19983.0094,1.80151.0282l.0072.00012.048.00232c1.45349.04541,2.87683.11963,4.27869.21411.47852.03235.94226.07874,1.41479.1167.92761.07471,1.8512.15332,2.75549.24988.54932.05872,1.08716.1283,1.62781.19519.80457.09937,1.60315.20435,2.38855.32178.56177.084,1.11694.17407,1.66895.26721q1.11.18732,2.19214.40027c.55334.10828,1.10559.21741,1.64856.33545.7002.15186,1.38562.31763,2.06848.48572.53125.13086,1.06738.2572,1.58813.39783.68823.18555,1.35645.38965,2.02637.59229.48389.14636.97888.28271,1.45325.438q1.60071.52332,3.12915,1.11279c.52136.20166,1.01917.42493,1.52771.63818.52979.22192,1.06482.439,1.58057.67334.54272.24707,1.06628.51123,1.59351.77222.45325.22412.908.44678,1.34985.68115.53223.28271,1.051.57764,1.56677.87512.40747.235.81177.47278,1.20886.71716q.77454.47644,1.52344.9762c.36548.24426.7229.49548,1.07886.74817.50122.356.99976.71387,1.48218,1.08655.31519.24329.61768.49744.9248.74768.49609.40466.99463.80713,1.47,1.23047.20544.18286.39746.37769.599.564a43.00174,43.00174,0,0,1,3.46594,3.57251c.0752.08765.15881.16772.23328.2561a43.30554,43.30554,0,0,1,3.854,5.3551,50.06045,50.06045,0,0,1,6.42871,17.62048,65.4515,65.4515,0,0,1,.92847,11.3125,75.46625,75.46625,0,0,1-6.86255,31.21985A146.40983,146.40983,0,0,1,340.85425,250.94141ZM221.45166,384.208c-70.793,0-91.04492-3.96582-91.873-4.13477a6.50834,6.50834,0,0,1-1.36255-.44275c1.16431-3.41541,2.37195-7.31506,3.43872-11.47913.07483-.292.13672-.57373.209-.86365.09912.01526.19775.02429.29688.04431.374.07227,20.74414,3.876,89.291,3.876,48.11731,0,69.71729-1.82483,78.43579-2.94238,1.18408,4.62488,2.54785,8.91968,3.843,12.5907C295.17725,382.1167,273.1908,384.208,221.45166,384.208ZM112.36389,306.68274a5.76751,5.76751,0,0,1,4.43982-5.49646h.00012a6.36909,6.36909,0,0,1,1.60388-.20972,5.90208,5.90208,0,0,1,6.02539,5.36108v.00024c.00732.11475.01843.22852.01843.34485a5.85555,5.85555,0,0,1-5.70935,5.69006c-.11133.00586-.22156.016-.33447.016a6.36731,6.36731,0,0,1-1.47485-.17834A5.7765,5.7765,0,0,1,112.36389,306.68274Zm21.96375,0a6.44679,6.44679,0,1,1,12.74072,1.38391v.00037a6.44147,6.44147,0,0,1-12.71777-.92761v-.00024C134.34,306.98779,134.32764,306.83679,134.32764,306.68274Zm22.76953,0a7.15967,7.15967,0,1,1,13.74487,2.81152l-.00012.00037h-.00012a7.159,7.159,0,0,1-13.44165-.75635l-.00012-.00049A7.15307,7.15307,0,0,1,157.09717,306.68274Zm127.41846,0a6.44678,6.44678,0,1,1,12.89355,0,6.52877,6.52877,0,0,1-.033.65515l-.00012.0011v.00012a6.44306,6.44306,0,0,1-12.64563.96875v-.00012l-.00024-.0011A6.43107,6.43107,0,0,1,284.51563,306.68274Zm30.67407-5.42761a5.7505,5.7505,0,0,1,4.18323,5.42761,6.05382,6.05382,0,0,1-12.08765,0c0-.06873.0083-.1355.01086-.20374v-.0011a5.89216,5.89216,0,0,1,6.033-5.50134,6.35917,6.35917,0,0,1,1.86035.27844Zm-133.15479,8.76-.00024-.00024a7.91985,7.91985,0,1,1,14.11523.49756l-.00012.00024-.00012.00012a7.91566,7.91566,0,0,1-14.11475-.49756Zm24.97961-3.3324a8.85388,8.85388,0,1,1,16.67041,4.1554l-.00012.00024v.00012a8.84864,8.84864,0,0,1-15.66553-.06824h-.00012L208.019,310.77A8.80761,8.80761,0,0,1,207.01453,306.68274Zm27.58386,0a7.92293,7.92293,0,1,1,14.9939,3.55994l-.00024.00073h-.00012a7.91047,7.91047,0,0,1-13.91345.41968h-.00012l-.00024-.00049A7.87548,7.87548,0,0,1,234.59839,306.68274Zm39.64893,2.32141-.00024.001-.00012.00012a7.15018,7.15018,0,0,1-13.23254.73743l-.00049-.001a7.15989,7.15989,0,1,1,13.2334-.73755Zm22.54822,31.94556c-9.73621,1.26733-31.60669,3.03369-77.89758,3.03369-50.29041,0-74.41846-2.10986-84.11987-3.31934a38.623,38.623,0,0,0-3.20862-13.14722q2.48822.13733,5.12927.2771c9.13367,1.11035,32.83008,3.18945,82.19922,3.18945,48.71777,0,69.5127-1.97144,77.30786-3.06689q1.90192-.1062,3.72241-.21191A39.46437,39.46437,0,0,0,296.79553,340.94971Z"/><path d="M237.85071,202.12573c.18506-.50513.37634-.99292.56384-1.49158.29407-.7821.58618-1.5697.886-2.33557.02783-.07129.05688-.13977.085-.21045.157-.39429.31641-.78174.474-1.17444l.04761-.118c.29468-.73279.5874-1.47119.88757-2.18872.22424-.53638.45483-1.05493.68213-1.58276.28357-.65845.56494-1.323.85327-1.96826.02319-.05176.04712-.10132.07031-.15283.199-.44067.40149-.87134.60205-1.30737l.09583-.20825c.27039-.58594.53845-1.17847.81287-1.75293l.01758-.03564c.07544-.15771.15259-.3103.229-.46545q.29608-.60443.59338-1.20605c.26172-.52917.52112-1.06506.78638-1.58435l.02747-.052c.16724-.3269.33765-.64465.50732-.96423.123-.23181.24487-.46692.36792-.699.2561-.48352.51013-.97339.76953-1.44775.01233-.02246.025-.0437.03735-.06616.21021-.38379.42456-.756.63757-1.13171.09155-.16089.182-.32458.27356-.4856.25708-.45264.51221-.91138.77246-1.35547.01514-.02588.03088-.05042.04614-.07642.24365-.415.49231-.81641.73877-1.22388.06592-.10925.13184-.21948.198-.32812.26074-.42773.51953-.86108.7832-1.28027.01831-.02905.03711-.05664.05542-.08557.03711-.059.07532-.11548.11267-.174.27954-.43823.56091-.87085.843-1.30176.26746-.40869.53333-.82227.80383-1.22241.33948-.50244.68457-.98938,1.02881-1.47852.27686-.39355.55237-.79126.83228-1.17615.022-.03015.04456-.05872.06665-.08875.02222-.03052.04517-.05957.06738-.09009l-.0022-.0022-.00208-.0022-4.58716-4.59106-.27063-.27075-4.34326-4.347-29.45923-29.484-29.11755,29.636-4.21936,4.29456-.36035.36682-4.55322,4.63428c.29272.405.58008.82544.86951,1.24.30359.43506.60828.86646.9082,1.31189.31213.46362.619.94189.927,1.41687.29358.45264.5885.90088.8783,1.36377.30627.489.60718.99341.9093,1.494.28455.47131.57092.93762.85181,1.41931.29932.51294.5929,1.04211.88806,1.56677.27588.49048.554.97522.82642,1.476.293.53857.5802,1.094.86914,1.64441.2666.50818.53564,1.00977.79883,1.52783.28833.5675.57031,1.15271.85437,1.73206.184.37549.36926.7478.55139,1.12817l.01477.03027c.06677.13721.13464.27124.20056.41028.28381.59778.561,1.214.84033,1.8241.24536.53589.49365,1.06384.73572,1.60925.27893.62878.55115,1.27649.82556,1.91785.126.29419.25269.58606.37769.88293.09607.22791.1947.44849.29.67786.01172.028.02368.05457.0354.08252.27783.66943.54834,1.35864.82153,2.04138.095.23767.1908.47327.28528.71252.118.29883.23926.58862.35632.88989l.0188.04688c.2832.72913.55872,1.47937.83655,2.22314.1991.53308.402,1.05542.59839,1.59583.3031.83411.598,1.69055.89465,2.5426l.00549.01587c.16211.46582.32837.92017.48853,1.39136l.00232.00659c.1167.34326.22864.6991.34424,1.04517l2.65771-2.5166,2.53162-2.39709,5.15564-4.882,9.39966-8.90039,9.95215,9.97,5.08459,5.09375,2.21765,2.22168,2.90967,2.91479c.28027-.85205.55859-1.71.845-2.54529.1499-.437.30566-.85815.457-1.29053C237.21973,203.89331,237.531,202.99817,237.85071,202.12573Z"/><path d="M160.7146,169.88586c-8.37976-8.52661-17.81091-12.67163-28.83228-12.67163q-.70569,0-1.41772.02246c-20.41882.631-34.23108,6.621-41.0592,17.80383-4.84033,7.92712-5.62183,17.30627-5.42517,23.77856a62.42737,62.42737,0,0,0,5.57764,24.02173c5.96472,12.55408,12.31921,20.93616,18.46448,29.04236,4.97937,6.56824,10.0343,13.2533,14.06506,21.2948,1.926-.10461,5.33423-.28125,10.00488-.49146-.998-1.46094-2.0293-3.02539-3.06885-4.76355q-.52148-.87231-1.04517-1.80554c-1.04626-1.8689-2.09253-3.93591-3.11377-6.27136q-.28235-.64563-.54749-1.33386c-.353-.9165-.681-1.88623-.97766-2.8988a42.26788,42.26788,0,0,1-1.68689-11.7561q.00092-.88824.04309-1.77991a34.35571,34.35571,0,0,1,.66064-5.31885,28.77033,28.77033,0,0,1,1.38721-4.6676c.27686-.70593.573-1.4043.91223-2.08435a23.59982,23.59982,0,0,1,1.84387-3.08984q.5235-.74084,1.11206-1.44629a22.24658,22.24658,0,0,1,2.62891-2.65564,26.42761,26.42761,0,0,1,11.46667-5.5127,39.37816,39.37816,0,0,1,5.14319-.81152q1.37476-.12836,2.84094-.17822c.29651-.01.5874-.01489.87915-.01489.12219,0,.23987.0094.36121.01111.25708.00366.512.01221.7655.02344.26282.01184.52429.02661.7832.04651.24988.01917.49756.04285.74377.06946.25513.02771.50879.05835.76.09387q.36438.05145.72314.11426.37061.06427.73572.13928.35431.07361.70325.15771.35815.08624.71069.18286.3457.095.686.20068.345.10675.68457.22363.33746.11646.66968.24292.33142.12634.658.26221.32922.13733.65344.28418.31879.14465.63257.29883.32135.15784.63757.32471.30652.162.60767.33325.31311.17761.62134.36389.2937.17816.58228.36511.30634.19757.60754.40369.28033.19244.55554.39319.30029.2179.59546.44409c.17773.13672.35352.27661.52832.418q.29333.2373.58167.48242.25543.21844.5061.44409c.19019.17017.37915.34229.5658.51819.16235.153.32275.309.48242.46606.18591.183.37073.36755.553.556q.23071.2384.457.4834c.18188.19543.36243.39233.54053.59314.14673.16541.2915.33337.43579.50208.17651.20679.35205.41479.525.62646.13953.17065.277.344.41406.51782.17212.21826.34314.43762.51172.66077.13159.17419.26123.351.39063.52808.16895.23132.33679.46375.50208.69971.12329.176.24463.35437.36572.53284.165.24292.32886.48694.49.73438.1167.1792.23132.36035.34595.5415.16064.25415.32031.50916.47729.76758.10938.1803.217.36255.32471.54492.15674.2655.3125.53174.46533.80139.10229.1803.20276.36243.30334.54443.15283.27673.30481.55408.45386.83459.09607.18091.19031.36353.28491.546.14856.287.29651.57458.44116.86511.08972.18005.17761.36157.26575.543q.21643.44476.428.89355c.08386.179.16589.35938.24829.53955.14075.30762.28076.61584.41748.92651.0769.17456.152.35022.22754.52563q.206.47791.407.959c.07129.17175.14087.34448.21094.51685.13281.327.26489.6543.39368.98364.06689.17114.1322.34314.198.51489.12805.334.25525.66809.37927,1.004.06128.16638.12109.33313.1814.49988q.1864.51416.36768,1.03c.05676.1626.11182.32568.16772.48853.11987.35034.239.70056.355,1.052.05176.15735.10205.31494.1532.47241.11572.35706.23059.71387.34216,1.07153.0481.1543.09448.30847.14185.46277.11133.36267.22192.72522.329,1.08826.04285.14514.08435.29028.12646.4353q.16241.55865.31958,1.11658c.03845.13757.07556.27478.1134.41223q.15564.56506.30615,1.12891c.03613.13623.0708.272.10645.408q.14832.568.2915,1.134c.03174.12671.06226.25269.09351.37915q.14282.57642.2804,1.15015c.02905.12207.05676.24316.08533.365q.13586.57825.2666,1.15308c.02588.11475.05054.22852.07593.3429q.13.58264.25439,1.16077c.02295.10718.04468.21313.06738.32007q.12341.58447.2417,1.1637c.02051.1012.04.201.06018.30176q.117.58356.22888,1.161c.01782.09326.03467.18494.05237.27783.07434.391.14758.78027.21777,1.16553.01428.079.028.15662.04211.23523.07117.39465.14111.78723.20813,1.17517.01282.07422.02478.14673.03735.22046.06653.38843.13159.77441.194,1.1554.01221.07483.02344.14783.03564.22241.0614.37927.1217.7561.1792,1.12732.0094.061.01819.12073.02759.18164.05884.38318.11621.76294.171,1.1366l.017.11841c.05652.38709.11121.7699.16333,1.146l.0188.13757c.0509.37048.10046.73657.14746,1.09521l.01147.08936c.019.14648.03662.2876.05493.43213h.00049q4.42456-.0672,9.051-.1156c-.9447-12.744-3.51086-35.07617-10.45435-56.90918C178.00134,194.27014,170.06531,179.40051,160.7146,169.88586Z"/><path d="M301.542,157.23682c-.47229-.01465-.94373-.022-1.40881-.02209-11.02856-.001-20.4845,4.14917-28.90784,12.68774-9.39966,9.528-17.39087,24.40833-23.75183,44.22778-7.01086,21.84534-9.641,44.16394-10.62158,56.90613q4.17352.05109,8.20654.11694h.00061c.02124-.16675.04126-.33008.06348-.49939l.00854-.0658q.07617-.58154.15942-1.184l.005-.03662q.08221-.59381.17188-1.20691l.00928-.06445q.08917-.60846.18591-1.23437l.01111-.07324q.09485-.6134.19739-1.24231l.01709-.10583q.10291-.631.21423-1.27649l.01648-.09753q.1106-.64014.229-1.29285c.00708-.03918.01367-.07776.021-.11707q.11609-.63867.24072-1.28857c.00964-.05066.0188-.10083.02856-.15161q.123-.64087.25439-1.291c.01147-.05676.02246-.11292.03394-.16992q.13037-.64417.26953-1.29663c.01318-.062.02563-.12329.03882-.1853q.1377-.64453.28406-1.29565c.01538-.06885.03015-.13721.04565-.20605q.14484-.64307.29846-1.29114c.0177-.0752.03467-.15.05261-.22522q.15289-.64325.31458-1.29053c.01965-.0791.03857-.15771.05847-.23682q.15948-.63666.328-1.276c.02307-.08826.04553-.17615.06885-.26428q.16791-.63446.34473-1.27051c.0249-.09009.04907-.18018.07422-.27039q.17541-.62787.35962-1.2561c.02856-.0979.0564-.19568.08533-.29358q.18365-.62274.37634-1.24487c.03076-.09961.06055-.19922.09155-.29883q.1908-.61249.39063-1.22339c.03516-.10828.0697-.21655.10535-.32471q.1983-.6026.40576-1.20239c.03833-.11133.076-.2229.11462-.33423q.20544-.5896.41968-1.176c.04321-.11865.08569-.23755.12939-.3562q.21313-.57825.4353-1.15234c.04651-.12061.09229-.24146.13916-.36182q.22266-.56964.45386-1.134c.04993-.12219.09912-.24475.14966-.3667q.2298-.55518.46851-1.104c.05505-.127.10938-.25439.165-.381q.23621-.53741.4812-1.06812c.061-.13245.12122-.26538.18286-.39734q.24225-.51874.49341-1.03c.06641-.13623.13257-.27283.2-.40845q.24957-.50208.50806-.99609c.0719-.13843.14331-.2771.21619-.41455q.25726-.4856.52332-.9624c.07727-.13928.15417-.27905.23242-.41724.17615-.31116.35571-.61829.53674-.924.08386-.14148.16736-.2832.25232-.42346q.27063-.44714.55-.88452c.09021-.14233.18042-.28491.27185-.42578.18506-.28491.37341-.56555.56335-.84448.09692-.14209.1936-.2843.29163-.4248q.28473-.40759.57776-.80493c.10376-.14148.20728-.283.3125-.42261q.2915-.38672.59082-.76294c.11072-.13989.22144-.27954.33374-.41736q.29828-.36621.60449-.72107c.11816-.1377.23657-.27515.35632-.41064.20325-.22974.40942-.45483.61731-.67773.12622-.13513.25269-.26978.38062-.40234.20728-.21484.41724-.42493.62915-.63257.13428-.13171.269-.2627.40527-.3916q.31714-.29993.64209-.58813c.14233-.127.28528-.25317.42969-.377q.32465-.27832.65662-.54468.22522-.18164.45325-.35864.33105-.25543.66919-.499.23914-.17322.48181-.34106.33636-.23181.67981-.45166.25342-.16315.5105-.32007.34186-.20837.69043-.40454.26825-.15161.54-.29626.34827-.18475.70276-.35779.28253-.13824.56921-.26892.353-.16095.7124-.30981.29883-.12433.60229-.24011.35852-.137.72266-.26221.31421-.108.63293-.20679.36438-.11316.7345-.215.33032-.09064.66553-.171.36914-.08936.74365-.167.34753-.07178.70068-.13269.37354-.065.75269-.119c.24341-.0343.489-.064.73608-.09082.2522-.02747.506-.05176.762-.07129.25513-.01965.5127-.03418.77148-.0459.25562-.01147.51245-.02.77173-.02368.121-.00171.23828-.01111.36-.01111l.00293.00012c.29077,0,.58069.00488.8761.01477a44.78924,44.78924,0,0,1,5.50061.51074,34.9129,34.9129,0,0,1,4.79553,1.09656q1.11365.34222,2.14526.74854a25.21406,25.21406,0,0,1,5.48315,2.95264,22.36871,22.36871,0,0,1,4.155,3.84961,22.79863,22.79863,0,0,1,2.09595,2.96094,24.47891,24.47891,0,0,1,1.36938,2.69409c.3147.71655.60889,1.44165.859,2.18262a30.37327,30.37327,0,0,1,1.24475,5.21216,35.40667,35.40667,0,0,1,.34692,3.55713c.05664,1.188.0564,2.375.00562,3.55029a42.266,42.266,0,0,1-.5481,5.176,39.0873,39.0873,0,0,1-2.62634,9.04236c-1.02124,2.33545-2.0675,4.40247-3.11365,6.27136q-.52332.93457-1.04541,1.80554c-.83557,1.39709-1.66333,2.67273-2.47534,3.882-.20227.30115-.40564.60693-.60547.89929,5.56543.23474,9.44092.42493,11.22583.516,4.03369-8.0592,9.09741-14.75488,14.085-21.33435,6.14917-8.11182,12.50354-16.49451,18.4668-29.04553a62.427,62.427,0,0,0,5.57739-24.02112c.19666-6.47217-.58484-15.85132-5.42493-23.77771C335.76685,163.85779,321.95447,157.86768,301.542,157.23682Z"/><path d="M296.4856,233.25964c-2.78418-4.41626-7.93372-6.69055-15.74268-6.95288-.18237-.0061-.36121-.00928-.54041-.00928v-9.98779l-.00183,9.98779c-2.886.00037-7.26636.67017-11.96545,6.4574-3.55225,4.37488-6.58984,10.74939-9.02832,18.94641a131.74129,131.74129,0,0,0-4.07983,19.63989c12.13147.25549,22.92712.58643,31.71667.90234.68164-1.0188,1.36987-2.01941,2.05579-3.00244A72.6169,72.6169,0,0,0,296.743,255.8396C299.51807,249.49316,300.371,239.42261,296.4856,233.25964Z"/><path d="M162.53467,232.7533c-4.69861-5.7865-9.07849-6.45581-11.96423-6.45581-.1803,0-.36.00305-.54309.00928-7.80933.26233-12.95886,2.53662-15.743,6.95288-3.88538,6.163-3.03259,16.23364-.25745,22.58a72.61,72.61,0,0,0,7.84351,13.40149c.67639.96948,1.35535,1.95532,2.02783,2.95935,8.697-.32642,19.46436-.66431,31.7373-.915a131.72259,131.72259,0,0,0-4.07263-19.58569C169.12451,243.50244,166.087,237.12793,162.53467,232.7533Z"/><path class="cls-1" d="M221.45166,371.208c-68.54687,0-88.917-3.80371-89.291-3.876-.09912-.02-.19775-.02905-.29687-.04431-.07227.28992-.13416.57166-.209.86365-1.06677,4.16406-2.27441,8.06372-3.43872,11.47913a6.50834,6.50834,0,0,0,1.36255.44275c.82813.16895,21.08008,4.13477,91.873,4.13477,51.73914,0,73.72559-2.09131,82.27881-3.35168-1.29517-3.671-2.65894-7.96582-3.843-12.5907C291.16895,369.38318,269.569,371.208,221.45166,371.208Z"/><path class="cls-1" d="M134.77808,340.66406c9.70142,1.20947,33.82947,3.31934,84.11987,3.31934,46.29089,0,68.16138-1.76636,77.89758-3.03369a39.46437,39.46437,0,0,1,3.13269-13.24512q-1.82007.10565-3.72241.21191c-7.79517,1.09546-28.59009,3.06689-77.30786,3.06689-49.36914,0-73.06555-2.0791-82.19922-3.18945q-2.63947-.13953-5.12927-.2771A38.623,38.623,0,0,1,134.77808,340.66406Z"/><path class="cls-1" d="M355.18359,226.18652c.1394-.32678.27979-.6521.41528-.98535.09863-.24219.19287-.4906.28931-.73608.12524-.3186.25122-.63586.3728-.95984.0968-.25806.1897-.52112.28418-.78259.1156-.31982.23169-.63867.34375-.96338.09326-.27051.183-.54517.27368-.81885.10693-.32227.21387-.64417.31714-.9707.08936-.28259.17529-.56848.26184-.85425.09851-.325.19641-.65015.291-.979.08411-.29187.16516-.58618.24622-.881.09082-.3302.18042-.661.26733-.99475q.11609-.446.22681-.89648.12524-.50537.24463-1.01538.10657-.4563.20776-.916.11279-.51068.21875-1.02576.09631-.46545.18774-.93323c.06714-.34619.131-.69409.19373-1.04272.05652-.314.11255-.62769.16541-.94348.05884-.3512.1134-.7041.1676-1.0575.04871-.3175.09778-.63464.1427-.95374.05017-.35693.09521-.71545.14063-1.07434.04028-.31836.08191-.636.11829-.95557.04163-.3656.07715-.73291.11365-1.1001.03137-.31567.06494-.63049.09241-.94727.033-.37939.05859-.7605.08582-1.14136.022-.30664.04712-.61243.06543-.91968.02393-.40588.03943-.813.05688-1.22.011-.25964.02783-.51831.03625-.77832.00085-.02515.00049-.05029.00134-.0752.01636-.52563.02246-1.05249.02734-1.57935.00146-.16211.00806-.32373.00842-.48584q.00238-.98529-.0238-1.97192c-.004-.16138-.01318-.32275-.01843-.48425-.016-.49219-.03381-.98425-.06055-1.47632-.01209-.22107-.02979-.442-.04407-.66309-.02759-.431-.05566-.86194-.0918-1.29236-.021-.24878-.04736-.49683-.07129-.74536-.03857-.40308-.07739-.80591-.12366-1.208-.02991-.26074-.06482-.52063-.098-.78088-.04968-.38892-.10034-.77759-.15723-1.16541-.03943-.26782-.08313-.53491-.1261-.80212-.06079-.37817-.12329-.75574-.19128-1.13245-.04907-.27173-.10156-.54248-.15442-.81323q-.1084-.55591-.22681-1.10913-.08844-.41052-.18372-.81921-.12616-.54565-.26318-1.08826-.10327-.40851-.21228-.81543-.14557-.54053-.30322-1.07715c-.07825-.26855-.1571-.53674-.23962-.80383-.11084-.35876-.22778-.71521-.34644-1.07117-.0874-.26245-.17407-.52478-.26575-.78564-.12561-.35767-.25867-.7124-.39246-1.06689-.09619-.25488-.19031-.51038-.29077-.76367-.14258-.36-.29407-.71631-.44543-1.07288-.10291-.24255-.20276-.48645-.30994-.72742-.16431-.36963-.33887-.73486-.5127-1.10034-.106-.22241-.20715-.44678-.31665-.6676-.19946-.40234-.41089-.79919-.62256-1.19592-.09521-.17847-.18457-.35962-.28223-.53674q-.47241-.85748-.98279-1.69629a43.30554,43.30554,0,0,0-3.854-5.3551c-.07446-.08838-.15808-.16846-.23328-.2561q-.9278-1.08252-1.927-2.10242c-9.991-10.19788-25.31738-15.67883-45.73279-16.30981l-.0072-.00012c-.60168-.0188-1.20581-.02808-1.80151-.0282-.16687,0-.33032.01038-.49658.01184-.02124.00024-.04224.00134-.06348.00146-.37183.00366-.74084.01563-1.11023.02661-.04626.00146-.0929.002-.139.00342-.47632.01526-.9519.03247-1.42419.05981-.03833.0022-.07617.0061-.1145.0083-.32275.01953-.64343.04541-.96436.07056-.06372.00488-.12781.00879-.19141.01392-.47534.03882-.94971.08057-1.421.13184-.05066.00549-.10083.01306-.15149.0188-.28967.03235-.57776.06995-.86609.10706-.07227.0094-.145.01721-.21716.02686-.473.063-.94495.12952-1.4137.2052-.05859.00952-.11633.02112-.1748.03076-.26855.04431-.53564.09277-.80273.14136-.07349.01318-.14722.025-.22046.0387-.47131.08777-.94128.17981-1.40845.28064-.06128.01318-.12183.02881-.18311.04224-.25781.05664-.5144.1167-.77087.17725-.06873.01624-.13806.031-.20666.04749-.469.11291-.93628.23108-1.40063.35754-.06165.0166-.12256.03564-.18408.05249q-.37994.1051-.75769.21655c-.062.01831-.12439.03491-.1864.05334q-.698.20782-1.38953.43506c-.05847.01941-.11658.04065-.17493.06018q-.38232.12762-.76245.262c-.05225.01831-.10522.0354-.15747.05408q-.6936.247-1.38013.51477c-.05286.02063-.1051.043-.15784.06372q-.3902.15381-.7782.314c-.04187.01733-.08423.03333-.126.05078q-.68665.28638-1.36633.59448c-.04541.02051-.09045.04248-.13586.06323-.269.12268-.53735.24683-.80469.37451-.03125.01489-.06274.02881-.094.0437q-.67859.32593-1.34973.67432c-.036.01855-.07166.03833-.10779.05713-.27979.14551-.5592.29211-.83716.44336-.02051.011-.04126.02148-.06165.03259-.44763.24414-.892.49731-1.33459.756-.026.01514-.05176.031-.07764.04626-.28967.17-.5791.3407-.8667.51672l-.033.01978c-.44189.27112-.88062.552-1.3175.83777l-.045.02991q-.31165.20435-.62183.41382c-.0929.06274-.18677.12268-.27954.186l-.00708.00476c-.43457.29749-.86572.60522-1.29541.91736l-.011.00818c-.30725.22339-.6145.447-.91931.678l-.01575.0116c-.41431.314-.82471.639-1.23425.967l-.02368.01917c-.30359.24353-.6073.48669-.90833.73792l-.03467.02808c-.38916.32507-.77441.66138-1.15918.99915l-.05823.05188c-.29553.26025-.59131.51953-.88416.78723l-.0498.04431c-.366.33521-.728.68164-1.09009,1.02869-.02991.02869-.05957.05811-.08936.08679-.06714.0647-.13379.13013-.20068.19507l-.00293-.00293-.00122-.00122-1.87231-1.87378-2.676-2.67822-4.55762-4.56165-33.51416-33.54236a6.50006,6.50006,0,0,0-4.59766-1.90527h-.02734a6.502,6.502,0,0,0-4.60937,1.94434L178.13782,150.7439l-4.51526,4.5957-2.50391,2.54858-1.99463,2.03-.0072.00732c-.16492-.16174-.32947-.32361-.49524-.48291-.34985-.33643-.69983-.67224-1.05347-.99756-.34717-.31921-.698-.6283-1.04883-.93677-.35791-.31494-.71655-.62866-1.07837-.93237-.35461-.29761-.7124-.58569-1.0708-.87256-.36548-.29272-.73169-.5835-1.10107-.865-.36182-.27563-.72656-.5426-1.09192-.80762-.37219-.26978-.74512-.53723-1.12109-.796l-.005-.0033c-.36829-.25354-.73938-.49878-1.11133-.7417-.38232-.24951-.76575-.49561-1.15186-.73389-.37549-.23169-.75342-.45593-1.13257-.67688q-.58447-.34076-1.17407-.66638-.57385-.31494-1.15381-.6123-.59766-.30835-1.20068-.60059c-.18921-.09131-.38037-.17712-.57043-.266l-.01526-.00708c-.19482-.09094-.38892-.18433-.58472-.27271q-.61139-.27594-1.22852-.535c-.183-.07678-.36768-.14844-.55151-.2229l-.11841-.04785c-.1731-.06958-.34509-.14209-.5188-.20972q-.624-.2428-1.25415-.468c-.17407-.0625-.34985-.12024-.52466-.18066-.07727-.02661-.15454-.05347-.23193-.07983-.15088-.05115-.30054-.10571-.4519-.15552q-.63629-.20911-1.27881-.40039c-.161-.04822-.32349-.09241-.48511-.13892-.12061-.03467-.241-.0697-.36182-.10352-.12708-.03552-.25305-.07434-.38037-.10889-.43286-.11743-.86841-.22729-1.30518-.333-.14551-.03516-.29224-.06689-.438-.10083-.16553-.03857-.33057-.07764-.49658-.11438-.10413-.02307-.20728-.04932-.31152-.07178-.44116-.09485-.88525-.18164-1.33032-.26477-.12488-.02344-.25073-.04382-.376-.06628-.21655-.0387-.43274-.07849-.65015-.1145-.08032-.01331-.15967-.02942-.24023-.04236-.44849-.07214-.90015-.1355-1.35266-.196-.10156-.01355-.204-.0249-.30579-.03784-.26941-.03442-.53857-.06995-.80933-.10022-.05786-.00647-.11475-.01514-.17261-.02136-.45679-.04956-.91675-.0896-1.37744-.12744-.0752-.0061-.15088-.01074-.22607-.0166-.32312-.02515-.646-.05151-.97107-.07092-.03638-.00208-.07227-.00586-.10876-.00793-.46582-.027-.93506-.04358-1.40479-.05872-.04541-.00146-.09106-.002-.13647-.0033-.37842-.01123-.75635-.02368-1.13733-.02734l-.04956-.0011c-.16357-.00134-.3241-.01172-.48816-.01172-.60352,0-1.2085.00964-1.81836.02869l-.0072.00012c-16.882.52161-30.27283,4.37-40.058,11.44714A43.19,43.19,0,0,0,78.31018,168.266c-5.26611,8.62427-7.382,18.84851-7.35718,28.93347q.00275,1.07153.03711,2.14038a75.3002,75.3002,0,0,0,6.82544,29.07947q.52771,1.1109,1.05994,2.18274c.11523.23218.2312.45581.34656.6853.23914.47571.478.95264.71814,1.41748.14526.281.29126.553.43677.83032.2124.40454.4248.81165.63794,1.20825.15649.29126.31372.57422.4707.86133.20142.36853.40259.7395.60449,1.1012.16919.3031.33887.59827.5083.89661.1908.33594.38135.67407.57251,1.00415.17834.30823.35718.60938.53577.91284.181.30737.36194.61646.54309.91895.187.31226.374.6178.561.9248.17444.28638.34888.574.52332.856.1947.31458.38916.62329.58386.93262.16382.26025.32764.52185.49146.77856.20581.32263.41113.63989.61682.95691.1532.23621.30627.47314.45935.7063.21387.326.42761.64734.64136.9679.14355.21533.28711.43115.43042.644.22437.333.44824.66162.67212.98889.12939.18909.25879.37854.38794.56567q.35925.52094.71729,1.03174.16479.23529.32935.46936.38452.54565.76733,1.0813.134.18732.26758.37354.41895.58392.83582,1.15674.085.11682.1698.23315.46527.63776.92688,1.26294l.04919.06665q.80859,1.09387,1.6062,2.157,1.18506,1.578,2.33691,3.09253l.03894.05164c4.83289,6.37512,9.36865,12.36072,12.85413,19.34363.87146,1.74561,1.67725,3.55371,2.40552,5.4458q.36438.94592.70215,1.92078,2.2998-.24847,5.02148-.50024c2.46472-.22693,5.20068-.45325,8.23389-.67468,3.694-.26953,7.83081-.53125,12.45581-.77673h.00012c6.54944-.34753,14.0719-.66235,22.72229-.91882h.00012c9.65552-.28638,20.71741-.49976,33.35217-.60718q6.36859-.05383,13.27856-.07068c.30786-.00073.6084-.00183.91785-.00256q2.23883-.004,4.5343-.00439c2.668,0,5.27148.00464,7.83.0127.30408.001.61572.00146.91821.00244q6.90875.02417,13.28479.08521c12.2915.11548,23.15405.3252,32.7417.597,8.47974.24048,15.96216.52942,22.54395.84558h.00012c5.07593.24365,9.62573.50293,13.68054.76855,2.89941.1897,5.542.38257,7.96045.57483q2.89.22961,5.3512.45605h.00012q.41657-1.18817.87354-2.33179c.11719-.2948.2439-.57947.36487-.87024.191-.45947.37976-.921.57971-1.37109.16162-.36328.33252-.71716.49963-1.07471.17-.36389.337-.73071.5127-1.08911.18945-.38623.38733-.76489.58313-1.14526.16211-.31494.32178-.6322.48828-.94336q.576-1.07758,1.18188-2.12915c.04443-.07654.09033-.15173.135-.228.31042-.53271.63013-1.05823.95178-1.5824q.96368-1.57013,1.98572-3.10144c.12488-.187.25366-.37231.37988-.55884q.95966-1.41742,1.96094-2.81763c.10522-.14722.20813-.29529.31409-.44238q1.11768-1.552,2.27881-3.10132.2655-.35559.53308-.712c.74634-.99438,1.49841-1.99011,2.26282-2.99854q.80127-1.05707,1.62048-2.142c.209-.2771.42151-.5625.63208-.84277.34106-.4541.68127-.90637,1.026-1.36951.26563-.35681.53394-.72375.80139-1.0863.299-.40527.59692-.80786.89795-1.22083.27039-.371.54248-.75208.81445-1.12976.24146-.33545.48132-.66309.72388-1.00415q.22064-.31055.44189-.62341c.22095-.31335.44373-.6405.66553-.95911.24048-.3457.48047-.68835.7218-1.04028.30774-.4491.61633-.91064.92517-1.37061.24194-.3606.48364-.71729.72607-1.085.30811-.46729.61646-.949.925-1.42822.24487-.38037.48926-.75525.73438-1.14355.308-.488.61572-.99329.92383-1.49463.24365-.39661.4873-.78613.731-1.19141.31567-.52515.63037-1.07031.94556-1.61035.23523-.40332.4707-.79749.70557-1.20947.32715-.57373.65259-1.17053.97852-1.762.22144-.40161.44373-.792.66455-1.20215.3584-.66553.71436-1.35779,1.07056-2.04639.18628-.35974.37366-.70581.55933-1.072q.783-1.54578,1.55762-3.17236c.01807-.03809.0365-.07312.05457-.11121.04333-.09143.08447-.1875.12756-.27942.20007-.42676.39844-.85657.5918-1.29614C354.99951,226.62817,355.09033,226.40527,355.18359,226.18652Zm-172.67822-61.338,4.21936-4.29456,29.11755-29.636,29.45923,29.484,4.34326,4.347.27063.27075,4.58716,4.59106.00208.0022.0022.0022c-.02222.03052-.04517.05957-.06738.09009-.02209.03-.04468.05859-.06665.08875-.27991.38489-.55542.78259-.83228,1.17615-.06433.09131-.12793.18408-.192.27588-.259.37085-.51978.73682-.77625,1.11548-.02.02954-.04053.0575-.06055.08716-.27051.40027-.53638.81372-.80383,1.22241-.06677.10217-.13306.20581-.19971.30835-.2522.38843-.50647.77136-.756,1.16736-.01831.02893-.03711.05652-.05542.08557-.26367.41919-.52246.85254-.7832,1.28027-.06616.10864-.13208.21887-.198.32813-.24658.40747-.49512.80884-.73877,1.22388-.01526.026-.031.05054-.04614.07642-.26025.44409-.51538.90283-.77246,1.35547-.06262.11011-.12476.22131-.187.33191-.24146.4281-.48535.84949-.72412,1.2854-.01233.02246-.025.0437-.03735.06616-.2594.47437-.51343.96423-.76953,1.44775-.05664.10657-.11279.21423-.16907.32117-.23547.44727-.47351.88708-.70618,1.342l-.02747.052c-.26526.51929-.52466,1.05505-.78638,1.58435-.04578.09241-.09119.18542-.13684.278-.22852.46472-.45984.92126-.68555,1.39355l-.01758.03564c-.27441.57446-.54248,1.167-.81287,1.75293l-.09583.20825c-.22095.48047-.44507.95215-.66321,1.44031l-.00916.0199c-.28833.64526-.56982,1.30981-.85327,1.96826l-.03955.09155c-.21362.49683-.43054.98438-.6416,1.48877-.01074.02588-.02124.05273-.032.079-.28931.69373-.57227,1.405-.85657,2.11218l-.04761.118c-.18372.458-.37122.90588-.55286,1.36975l-.0061.01514c-.2998.76587-.592,1.55347-.886,2.33557-.06323.16833-.12732.33459-.19043.50354-.11963.32117-.2428.63257-.36157.95654l-.01184.03149c-.2804.76526-.55359,1.55-.82776,2.33276-.10474.29883-.212.59009-.31592.89136-.08618.2406-.17273.48022-.25708.726-.28638.83533-.5647,1.69324-.845,2.54529l-2.90967-2.91479-2.21765-2.22168-5.08459-5.09375-9.95215-9.97-9.39966,8.90039-5.15564,4.882-2.53162,2.39709-2.65771,2.5166c-.1156-.34607-.22754-.7019-.34424-1.04517l-.00232-.00659c-.16016-.47119-.32642-.92554-.48853-1.39136l-.00549-.01587c-.29663-.85205-.59155-1.7085-.89465-2.5426l-.00488-.01306c-.14185-.39014-.28882-.76587-.432-1.15222-.05347-.14429-.10779-.28674-.1615-.43054-.27783-.74365-.55334-1.494-.83655-2.22314l-.0188-.04687c-.11694-.30127-.23828-.59106-.35632-.88989-.09448-.23926-.19031-.47485-.28528-.71252-.27319-.68274-.5437-1.37195-.82153-2.04138-.01172-.028-.02368-.05457-.0354-.08252-.09534-.22949-.19409-.45-.29-.67786-.125-.29687-.25171-.58875-.37769-.88293-.27441-.64124-.54663-1.28906-.82556-1.91785-.01892-.0426-.0387-.08337-.05762-.1261-.06958-.15625-.14136-.30627-.21118-.46191-.15442-.34387-.31116-.68115-.46692-1.02124-.2793-.61011-.55652-1.22632-.84033-1.8241-.02759-.05847-.0564-.11389-.08411-.17224-.04321-.09082-.08777-.17773-.13123-.26831-.18213-.38037-.36743-.75269-.55139-1.12817-.28406-.57935-.566-1.16455-.85437-1.73206-.03748-.074-.07642-.14441-.114-.21814-.02124-.04175-.04321-.08167-.06445-.12329-.20508-.40063-.41333-.79175-.62036-1.1864-.28894-.55042-.57617-1.10584-.86914-1.64441-.16333-.3-.32959-.59119-.49512-.8844-.04065-.07288-.08142-.14514-.12207-.21777-.06995-.1239-.1394-.24951-.20923-.37378-.29517-.52466-.58875-1.05383-.88806-1.56677-.28088-.48169-.56726-.94788-.85181-1.41931-.30212-.50061-.60291-1.005-.9093-1.494-.28979-.46289-.58472-.91113-.8783-1.36377-.308-.475-.615-.95325-.927-1.41687-.29993-.44543-.60461-.87683-.9082-1.31189-.28943-.41455-.57678-.835-.86951-1.24l4.55322-4.63428Zm-40.635,104.39258a72.61,72.61,0,0,1-7.84351-13.40149c-2.77515-6.34631-3.62793-16.417.25745-22.58,2.78418-4.41626,7.93372-6.69055,15.743-6.95288.18311-.00623.36279-.00928.54309-.00928,2.88574,0,7.26563.66931,11.96423,6.45581,3.55237,4.37463,6.58984,10.74915,9.0282,18.94641a131.72259,131.72259,0,0,1,4.07263,19.58569c-12.27295.25073-23.04028.58862-31.7373.915C143.22571,271.19641,142.54675,270.21057,141.87036,269.24109Zm43.835,1.86511h-.00049c-.01831-.14453-.03589-.28564-.05493-.43213l-.01147-.08936c-.04712-.35864-.09644-.72485-.14746-1.09521-.00647-.04614-.01245-.09106-.0188-.13757-.05212-.376-.10693-.75891-.16333-1.146l-.017-.11841c-.05469-.37354-.11218-.75354-.171-1.1366-.00928-.06091-.01819-.12061-.02759-.18164-.05762-.37109-.1178-.748-.1792-1.12732-.01221-.07446-.02344-.14758-.03564-.22241-.06226-.38086-.12744-.767-.194-1.1554-.01257-.07373-.02454-.14636-.03735-.22046-.067-.38794-.13684-.78052-.20813-1.17517-.01416-.07861-.02771-.15625-.04211-.23523-.07019-.38513-.14343-.77466-.21777-1.16553-.0177-.0929-.03455-.18469-.05237-.27783-.074-.38416-.15088-.772-.22888-1.161-.02014-.10071-.03967-.20068-.06018-.30176q-.11719-.57825-.2417-1.1637c-.02271-.10693-.04443-.21289-.06738-.32007q-.12341-.57733-.25439-1.16077c-.02539-.11438-.05-.22815-.07593-.3429q-.12964-.57422-.2666-1.15308c-.02856-.1217-.0564-.24292-.08533-.365q-.13641-.57312-.2804-1.15015c-.03125-.12646-.06177-.25256-.09351-.37915q-.14209-.5658-.2915-1.134c-.03564-.136-.07031-.27173-.10645-.408-.09949-.37573-.20239-.7522-.30615-1.12891-.03784-.13745-.075-.27466-.1134-.41223q-.156-.55792-.31958-1.11658c-.04224-.145-.08362-.29016-.12646-.4353-.10706-.36292-.21765-.72559-.329-1.08826-.04736-.15417-.09375-.30847-.14185-.46277-.11157-.35742-.22656-.7146-.34216-1.07153-.051-.15747-.10144-.31519-.1532-.47241-.116-.35132-.23511-.70166-.355-1.052-.05591-.16284-.111-.32593-.16772-.48853-.12-.34424-.24341-.68726-.36768-1.03-.0603-.16675-.12012-.33362-.1814-.49988-.124-.33582-.25122-.67017-.37927-1.004-.0658-.17163-.1311-.34375-.198-.51489-.12878-.32935-.26086-.65674-.39368-.98364-.07007-.17236-.13965-.34509-.21094-.51685-.13318-.32129-.26965-.64038-.407-.959-.07556-.17541-.15063-.35107-.22754-.52563q-.20508-.46582-.41748-.92651c-.0824-.18018-.16455-.3606-.24829-.53955-.14026-.2998-.28369-.597-.428-.89355-.08813-.1814-.176-.36291-.26575-.543-.14465-.29053-.2926-.57812-.44116-.86511-.09448-.1825-.18884-.36511-.28491-.546-.149-.28052-.301-.558-.45386-.83459-.10059-.182-.201-.36414-.30334-.54443-.15283-.26965-.30872-.53589-.46533-.80139-.10767-.18225-.21533-.36462-.32471-.54492-.157-.2583-.31665-.51343-.47729-.76758-.11462-.18115-.22925-.36255-.34595-.5415q-.2417-.371-.49-.73437c-.12109-.17859-.24243-.35681-.36572-.53284-.16516-.236-.33313-.46838-.50208-.69971-.12939-.17712-.259-.35388-.39062-.52808-.16846-.223-.33972-.4425-.51172-.66077-.13708-.17383-.27466-.34717-.41406-.51782-.173-.21167-.34851-.41968-.525-.62646-.14429-.1687-.28906-.33679-.43579-.50208-.178-.20081-.35864-.39771-.54053-.59314q-.22668-.24426-.457-.4834c-.18225-.18848-.36707-.373-.553-.556-.15967-.1571-.32007-.31311-.48242-.46606-.18665-.1759-.37573-.348-.5658-.51819-.16748-.15-.33582-.29858-.5061-.44409-.19189-.16394-.38611-.3241-.58167-.48242-.1748-.14136-.35071-.28125-.52832-.418q-.2948-.22705-.59546-.44409-.27557-.20032-.55554-.39319-.30084-.20673-.60754-.40369-.28894-.1864-.58228-.36511-.308-.18677-.62134-.36389-.30139-.17084-.60767-.33325-.316-.16736-.63757-.32471-.31366-.15381-.63257-.29883-.32391-.147-.65344-.28418-.32629-.13586-.658-.26221-.33215-.12634-.66968-.24292-.33948-.11719-.68457-.22363-.34039-.10547-.686-.20068-.35229-.097-.71069-.18286-.349-.08386-.70325-.15771-.36493-.07544-.73572-.13928-.35889-.06226-.72314-.11426c-.25122-.03552-.50488-.06628-.76-.09387-.24622-.02661-.4939-.05029-.74377-.06946-.25891-.0199-.52039-.03467-.7832-.04651-.25354-.01123-.50842-.01978-.7655-.02344-.12134-.00171-.239-.01111-.36121-.01111-.29175,0-.58264.00488-.87915.01489q-1.46649.04926-2.84094.17822a39.37816,39.37816,0,0,0-5.14319.81152,26.42761,26.42761,0,0,0-11.46667,5.5127,22.24658,22.24658,0,0,0-2.62891,2.65564q-.58887.70459-1.11206,1.44629a23.59982,23.59982,0,0,0-1.84387,3.08984c-.33923.68005-.63538,1.37842-.91223,2.08435a28.75814,28.75814,0,0,0-1.38721,4.6676,34.339,34.339,0,0,0-.66064,5.31885q-.04248.891-.04309,1.77991a42.26788,42.26788,0,0,0,1.68689,11.7561c.29663,1.01257.62463,1.9823.97766,2.8988q.26477.68756.54749,1.33386c.76587,1.75159,1.5459,3.35217,2.32947,4.83142q.39166.73975.7843,1.43994.52295.93457,1.04517,1.80554c1.03955,1.73816,2.0708,3.30261,3.06885,4.76355-4.67065.21021-8.07886.38684-10.00488.49146-4.03076-8.0415-9.08569-14.72656-14.06506-21.2948-6.14526-8.1062-12.49976-16.48828-18.46448-29.04236a62.42737,62.42737,0,0,1-5.57764-24.02173c-.19666-6.47229.58484-15.85144,5.42517-23.77856,6.82813-11.18286,20.64038-17.17285,41.0592-17.80383q.7132-.02234,1.41772-.02246c11.02136,0,20.45251,4.145,28.83228,12.67163,9.35071,9.51465,17.28674,24.38428,23.5874,44.19556,6.94348,21.833,9.50964,44.16516,10.45435,56.90918Q190.13312,271.03839,185.70532,271.1062Zm37.36768-.18994q-3.24152-.01685-6.53784-.02222-.72876-.0011-1.46082-.00146c-.46265-.00037-.92432-.001-1.38831-.001q-2.59589,0-5.14868.00757c-.2522.00073-.50244.00171-.754.00256-.155-2.17737-.35535-4.63879-.61841-7.35693-.63245-6.53723-1.62231-14.49463-3.15637-23.15881-1.09009-6.15649-2.45825-12.66626-4.1731-19.28613h.00012l.02527-.024,3.67456-3.47937,1.68286-1.59351,5.30371-5.02209,4.66309-4.41541,5.68237,5.69275,5.25769,5.26721,1.18689,1.18921,4.11841,4.12573.03186.032c-1.25146,4.93652-2.30847,9.79663-3.20667,14.48462-1.533,8.00024-2.59668,15.47974-3.33057,21.91907-.50562,4.4364-.85669,8.3717-1.09912,11.64416Q223.44983,270.918,223.073,270.91626Zm32.05408.42493a131.74129,131.74129,0,0,1,4.07983-19.63989c2.43848-8.197,5.47607-14.57153,9.02832-18.94641,4.6991-5.78723,9.07947-6.457,11.96545-6.4574l.00183-9.98779v9.98779c.1792,0,.358.00317.54041.00928,7.809.26233,12.9585,2.53662,15.74268,6.95288,3.88538,6.163,3.03247,16.23352.25745,22.58a72.6169,72.6169,0,0,1-7.84351,13.40149c-.68591.983-1.37415,1.98364-2.05579,3.00244C278.0542,271.92761,267.25854,271.59668,255.12708,271.34119Zm54.76428,1.879c-1.78491-.09106-5.6604-.28125-11.22583-.516.19983-.29236.40332-.598.60547-.89929.812-1.20923,1.63977-2.48486,2.47534-3.882q.52185-.87231,1.04541-1.80554.39221-.70093.78418-1.43994c.78357-1.47925,1.56348-3.07983,2.32947-4.83142a35.57157,35.57157,0,0,0,1.525-4.23267,42.41289,42.41289,0,0,0,1.64941-9.98572c.05078-1.17529.051-2.3623-.00562-3.55029a35.40667,35.40667,0,0,0-.34692-3.55713,30.37327,30.37327,0,0,0-1.24475-5.21216c-.25012-.741-.54431-1.46606-.859-2.18262a24.47891,24.47891,0,0,0-1.36938-2.69409,22.79863,22.79863,0,0,0-2.09595-2.96094,22.36871,22.36871,0,0,0-4.155-3.84961,25.21406,25.21406,0,0,0-5.48315-2.95264q-1.0318-.40576-2.14526-.74854a34.9129,34.9129,0,0,0-4.79553-1.09656,44.78924,44.78924,0,0,0-5.50061-.51074c-.29541-.00989-.58533-.01477-.8761-.01477l-.00293-.00012c-.1217,0-.239.0094-.36.01111-.25928.00366-.51611.01221-.77173.02368-.25879.01172-.51636.02637-.77148.0459q-.38379.0293-.762.07129c-.24707.02686-.49268.05664-.73608.09082q-.37939.05347-.75269.119-.35266.06134-.70068.13269-.37482.07745-.74365.167-.33508.08093-.66553.171-.37024.10162-.7345.215-.31879.09924-.63293.20679-.36438.12524-.72266.26221-.30322.11591-.60229.24011-.35925.14923-.7124.30981-.28674.13055-.56921.26892-.35431.17322-.70276.35779-.27191.14447-.54.29626-.34827.19666-.69043.40454-.25726.15656-.5105.32007-.34314.22046-.67981.45166-.2428.16736-.48181.34106-.33783.24426-.66919.499-.22852.17651-.45325.35864-.33142.26715-.65662.54468c-.14441.12378-.28735.25-.42969.377-.21619.19287-.43066.38818-.64209.58813-.13623.12891-.271.26-.40527.3916-.21191.20764-.422.41772-.62915.63257-.12793.13257-.25439.26733-.38062.40234-.20789.2229-.41406.448-.61731.67773-.11975.13538-.23816.27295-.35632.41064q-.30542.35614-.60449.72107c-.1123.13782-.22314.27759-.33374.41736q-.29864.3772-.59082.76294c-.1051.13965-.20874.28113-.3125.42261-.19482.26563-.38794.53308-.57776.80493-.098.1405-.1947.28271-.29163.4248q-.28491.41821-.56335.84448c-.09143.14087-.18152.28345-.27185.42578q-.27832.43835-.55.88452c-.085.14026-.16846.282-.25232.42346q-.27173.45831-.53674.924c-.07812.13818-.15515.278-.23242.41724q-.26514.47791-.52332.9624c-.07288.13745-.14441.27612-.21619.41455q-.25745.49493-.50806.99609c-.06738.1355-.13342.27222-.2.40845q-.25012.51215-.49341,1.03c-.06165.13184-.12183.26489-.18286.39734q-.2439.53156-.4812,1.06812c-.05566.12659-.11.25391-.165.381q-.23767.54968-.46851,1.104c-.05054.12195-.09973.24463-.14966.3667q-.23035.56506-.45386,1.134c-.04687.12036-.09265.24133-.13916.36182q-.22119.57458-.4353,1.15234c-.0437.11853-.08618.23755-.12939.3562q-.21313.58667-.41968,1.176c-.0387.11133-.07629.2229-.11462.33423q-.20636.60022-.40576,1.20239c-.03552.108-.07019.21655-.10535.32471q-.19885.611-.39062,1.22339c-.031.09961-.06091.19922-.09155.29883q-.19189.62219-.37634,1.24487c-.02893.0979-.05676.19568-.08533.29358q-.18347.62823-.35962,1.2561c-.02515.09021-.04932.1803-.07422.27039q-.176.63593-.34473,1.27051c-.02319.08813-.04565.17615-.06885.26428q-.16772.63922-.328,1.276c-.0199.0791-.03894.15771-.05847.23682q-.16077.64673-.31458,1.29053c-.01794.0752-.03491.15-.05261.22522q-.15289.64764-.29846,1.29114c-.0155.06885-.03027.13721-.04565.20605q-.14557.65057-.28406,1.29565c-.01318.062-.02563.12341-.03882.1853q-.13843.65167-.26953,1.29663c-.01147.05688-.02246.11316-.03394.16992q-.13074.64966-.25439,1.291l-.02856.15161q-.12415.64911-.24072,1.28857l-.021.11707q-.11829.652-.229,1.29285l-.01648.09753q-.11078.64471-.21423,1.27649l-.01709.10583c-.06812.41858-.134.8335-.19739,1.24231l-.01111.07324q-.0965.62512-.18591,1.23438l-.00928.06445q-.08936.6123-.17187,1.20691l-.005.03662q-.08313.60187-.15942,1.184l-.00854.0658c-.02222.16931-.04224.33264-.06348.49939h-.00061q-4.02979-.06555-8.20654-.11694c.98059-12.74219,3.61072-35.06079,10.62158-56.90613,6.361-19.81946,14.35217-34.69983,23.75183-44.22778,8.42334-8.53857,17.87927-12.68872,28.90784-12.68774.46509.00012.93652.00745,1.40881.02209,20.41248.63086,34.22485,6.621,41.05359,17.80469,4.84009,7.92639,5.62158,17.30554,5.42493,23.77771a62.427,62.427,0,0,1-5.57739,24.02112c-5.96326,12.551-12.31763,20.93372-18.4668,29.04553C318.98877,258.46533,313.925,265.161,309.89136,273.22021Z"/><path class="cls-1" d="M208.01929,310.77026a8.84864,8.84864,0,0,0,15.66553.06824v-.00012l.00012-.00024A8.85543,8.85543,0,1,0,208.019,310.77l.00012.00024Z"/><path class="cls-1" d="M189.21558,314.60571a7.9184,7.9184,0,0,0,6.93408-4.0929l.00012-.00012.00012-.00024a7.92651,7.92651,0,1,0-14.11523-.49756l.00024.00024v.00012A7.91716,7.91716,0,0,0,189.21558,314.60571Z"/><path class="cls-1" d="M164.25684,313.84241a7.16025,7.16025,0,0,0,6.585-4.34778h.00012l.00012-.00037a7.16111,7.16111,0,1,0-13.442-.75647l.00012.00049A7.16019,7.16019,0,0,0,164.25684,313.84241Z"/><path class="cls-1" d="M140.77441,313.12952a6.4465,6.4465,0,0,0,6.29395-5.0625v-.00037a6.44565,6.44565,0,1,0-12.74072-1.38391c0,.15405.01233.30505.02295.45642v.00024A6.4426,6.4426,0,0,0,140.77441,313.12952Z"/><path class="cls-1" d="M124.43311,306.33765a5.90208,5.90208,0,0,0-6.02539-5.36108,6.36909,6.36909,0,0,0-1.60388.20972h-.00012a5.62528,5.62528,0,0,0,.12915,11.02417,6.36731,6.36731,0,0,0,1.47485.17834c.11292,0,.22314-.01013.33447-.016a5.85555,5.85555,0,0,0,5.70935-5.69006c0-.11633-.01111-.2301-.01843-.34485Z"/><path class="cls-1" d="M235.67847,310.66309a7.91047,7.91047,0,0,0,13.91345-.41968h.00012l.00024-.00073a7.92265,7.92265,0,1,0-13.91418.41992l.00024.00049Z"/><path class="cls-1" d="M267.48,313.84241a7.157,7.157,0,0,0,6.767-4.83716l.00012-.00012.00024-.001a7.15953,7.15953,0,1,0-13.2334.73755l.00049.001A7.15363,7.15363,0,0,0,267.48,313.84241Z"/><path class="cls-1" d="M290.9624,313.12952a6.44742,6.44742,0,0,0,6.4137-5.79041V307.339l.00012-.0011a6.52877,6.52877,0,0,0,.033-.65515,6.44683,6.44683,0,1,0-12.679,1.6239l.00024.0011v.00012A6.44332,6.44332,0,0,0,290.9624,313.12952Z"/><path class="cls-1" d="M315.1897,301.25513l-.00024-.00012a6.35917,6.35917,0,0,0-1.86035-.27844,5.89216,5.89216,0,0,0-6.033,5.50134v.0011c-.00256.06824-.01086.135-.01086.20374a6.05382,6.05382,0,0,0,12.08765,0A5.7505,5.7505,0,0,0,315.1897,301.25513Z"/></g></svg>