<svg id="Layer_1" data-name="Layer 1" xmlns="http://www.w3.org/2000/svg" viewBox="0 0 432 432"><defs><style>.cls-1 { fill: #fff; }</style></defs><title>Chicago</title><g><path d="M395.26074,70.74121,366.86621,59.65039a6.50028,6.50028,0,0,0-8.6416,7.74512l4.67688,17.36237L297.88574,214.92957l3.54712-151.72119L314.46,49.36426a6.49964,6.49964,0,0,0-3.959-10.9082l-30.2666-3.63379a6.50036,6.50036,0,0,0-6.42773,9.66113l8.55444,15.07953L244.165,197.24512,225.42993,50.38666l10.26831-13.92181a6.50078,6.50078,0,0,0-5.23145-10.3584H199.9834a6.50007,6.50007,0,0,0-5.23047,10.3584l11.14648,15.11139L186.11719,197.5166,148.46338,59.47925l9.12256-16.08081a6.50036,6.50036,0,0,0-6.42773-9.66113l-30.26563,3.63379a6.49964,6.49964,0,0,0-3.959,10.9082l12.448,13.22937,2.9231,153.41907L68.96082,86.84473l4.8136-17.86914a6.50028,6.50028,0,0,0-8.6416-7.74512L36.73926,72.32031a6.50012,6.50012,0,0,0-1.10352,11.55176L49.91553,92.8833l56.13525,231.41455a6.49889,6.49889,0,0,0,5.85352,4.95117c6.14355.43945,10.26855,2.57324,12.6084,6.52344,3.57422,6.03223,3.60059,16.98828.07422,30.84863a139.331,139.331,0,0,1-7.25586,20.98047,6.50062,6.50062,0,0,0,4.17676,8.98047c.875.24121,22.293,5.918,96.75391,5.918,73.50391,0,90.1123-5.47949,91.76465-6.10352a6.50139,6.50139,0,0,0,3.60645-8.79492c-4.293-9.33984-14.82715-38.91016-7.18555-51.82324,2.33984-3.9541,6.46582-6.08984,12.6123-6.5293a6.49889,6.49889,0,0,0,5.85352-4.95117L381.31372,91.7901,396.36426,82.293a6.50012,6.50012,0,0,0-1.10352-11.55176ZM112.281,294.83716c8.34546,1.35962,27.14771,3.68555,62.47961,4.79138l-10.5708,12.6366c-23.90222-.97913-39.2865-2.51416-48.598-3.7793Zm209.71167-13.64441c-7.49536,1.70166-27.54517,4.8551-75.35608,5.78821l-9.528-12.85046c67.2373-.83643,83.30054-5.88953,84.17554-6.18323a6.46743,6.46743,0,0,1,3.95422-.13452Zm-100.98315-6.94861,9.60364,12.95264,9.559,12.89233,9.51147,12.82837,5.606,7.56079q-6.30963.20251-13.49646.33728l-5.68835-7.67175-9.57983-12.92017L216.90527,287.25l-10.83972,12.95776-10.7804,12.88708-6.36487,7.60852q-7.71716-.17908-14.47241-.44006l6.23608-7.45471L191.374,300.02954l10.7522-12.85352L212.94666,274.241l4.27307-5.10815ZM133.675,381.6449c1.27942-3.65393,2.62061-7.94116,3.75635-12.55066,7.47693,1.20337,29.96692,3.93115,80.17212,3.93115,51.60425,0,70.47925-2.80676,75.93237-3.91882,1.12927,4.58032,2.46118,8.8479,3.73315,12.48572-6.12646,1.37866-25.78186,4.43311-79.66553,4.43311C163.30383,386.02539,140.59546,382.89819,133.675,381.6449Zm83.865-33.48572c-44.62256,0-67.37183-2.22705-77.46-3.67871a36.42871,36.42871,0,0,0-3.4624-13.63647c.4812.0481.96875.09619,1.46655.14429,5.488,1.0127,26.83154,4.1709,79.45581,4.1709,46.86768,0,65.9978-2.44067,72.64722-3.66577q1.57214-.14264,3.03564-.28833l.41553,1.15918a37.89988,37.89988,0,0,0-2.75916,12.18555C281.66956,346.05811,261.03638,348.15918,217.54,348.15918Zm-32.147-61.241c-44.5791-.96289-66.94751-3.80933-76.35028-5.43042l-3.3703-13.894a6.49487,6.49487,0,0,1,1.13513.19531c.32715.08533,21.25342,5.36816,89.30566,6.31409Zm80.13074,25.536-9.41736-12.701c40.13623-1.125,56.866-3.87585,62.6333-5.15051l-3.35559,13.8335C306.67969,309.82373,291.41992,311.491,265.5238,312.45422Zm62.69739-56.93762c-10.42041,1.94629-37.63232,5.38379-100.68311,5.70618l-4.78906-6.45911a6.50037,6.50037,0,0,0-10.207-.2998l-5.64868,6.75256c-61.30981-.34717-91.50378-3.57117-104.0957-5.47424l-3.34-13.76916c2.95563.59131,12.79968,2.30859,33.59772,3.798q5.56256.39844,12.19641.76685c17.74292.9751,41.43921,1.71021,72.58618,1.71021,29.01624,0,50.80945-.62061,67.07422-1.47375q6.56433-.34424,11.96533-.73132c24.99243-1.77173,32.30566-3.99,32.78857-4.14453a6.47354,6.47354,0,0,1,1.94556-.35815Z"/><path class="cls-1" d="M265.5238,312.45422c25.89612-.96326,41.15588-2.63049,49.86035-4.01807l3.35559-13.8335c-5.76733,1.27466-22.49707,4.02551-62.6333,5.15051Z"/><path class="cls-1" d="M174.76062,299.62854c-35.33191-1.10583-54.13416-3.43176-62.47961-4.79138l3.31079,13.64868c9.31152,1.26514,24.6958,2.80017,48.598,3.7793Z"/><path class="cls-1" d="M296.87744,246.043q-5.4104.38342-11.96533.73132c-16.26477.85315-38.058,1.47375-67.07422,1.47375-31.147,0-54.84326-.73511-72.58618-1.71021q-6.64178-.36475-12.19641-.76685c-20.798-1.48938-30.64209-3.20666-33.59772-3.798l3.34,13.76916c12.59192,1.90308,42.78589,5.12708,104.0957,5.47424l5.64868-6.75256a6.50037,6.50037,0,0,1,10.207.2998l4.78906,6.45911c63.05078-.32239,90.2627-3.75989,100.68311-5.70618l3.39038-13.97632a6.47354,6.47354,0,0,0-1.94556.35815C329.18311,242.053,321.86987,244.27124,296.87744,246.043Z"/><path class="cls-1" d="M196.11328,274.10315c-68.05225-.94592-88.97852-6.22876-89.30566-6.31409a6.49487,6.49487,0,0,0-1.13513-.19531l3.3703,13.894c9.40277,1.62109,31.77118,4.46753,76.35028,5.43042Z"/><path class="cls-1" d="M321.28418,267.94727c-.875.2937-16.93823,5.3468-84.17554,6.18323l9.528,12.85046c47.81091-.93311,67.86072-4.08655,75.35608-5.78821l3.24573-13.38A6.46743,6.46743,0,0,0,321.28418,267.94727Z"/><path class="cls-1" d="M217.60352,373.02539c-50.2052,0-72.69519-2.72778-80.17212-3.93115-1.13574,4.6095-2.47693,8.89673-3.75635,12.55066,6.92041,1.2533,29.62878,4.38049,83.92847,4.38049,53.88367,0,73.53906-3.05444,79.66553-4.43311-1.272-3.63782-2.60388-7.9054-3.73315-12.48572C288.08276,370.21863,269.20776,373.02539,217.60352,373.02539Z"/><path class="cls-1" d="M240.17212,300.08911l-9.559-12.89233-9.60364-12.95264-3.78979-5.11133-4.27307,5.10815L202.12622,287.176,191.374,300.02954,180.684,312.80859l-6.23608,7.45471q6.76117.258,14.47241.44006l6.36487-7.60852,10.7804-12.88708L216.90527,287.25l9.61963,12.97363,9.57983,12.92017,5.68835,7.67175q7.19495-.13239,13.49646-.33728l-5.606-7.56079Z"/><path class="cls-1" d="M138.08423,330.98828c-.4978-.0481-.98535-.09619-1.46655-.14429a36.42871,36.42871,0,0,1,3.4624,13.63647c10.08813,1.45166,32.8374,3.67871,77.46,3.67871,43.49634,0,64.12952-2.10107,73.33923-3.60937a37.89988,37.89988,0,0,1,2.75916-12.18555l-.41553-1.15918q-1.46466.14557-3.03564.28833c-6.64941,1.2251-25.77954,3.66577-72.64722,3.66577C164.91577,335.15918,143.57227,332.001,138.08423,330.98828Z"/></g></svg>