<svg id="Layer_1" data-name="Layer 1" xmlns="http://www.w3.org/2000/svg" viewBox="0 0 432 432"><defs><style>.cls-1 { fill: none; } .cls-2 { fill: #fff; }</style></defs><title>Chicago</title><g><path class="cls-1" d="M197.81946,216.20673c-10.30188,3.91736-22.02722,6.58722-31.8175,8.33771a27.85856,27.85856,0,0,0-16.66211,9.814l-10.17187,12.46c-.35669.43689-.72778.85974-1.10132,1.28,1.29321,18.13092,5.91455,39.27283,17.95825,58.40875,5.23779-7.96539,11.51062-15.25525,17.604-22.31177C191.06543,264.0022,206.27307,246.38171,197.81946,216.20673Z"/><path class="cls-2" d="M266.67041,376.60321c-47.80139-4.44855-84.15991-19.84631-108.33289-45.8476-7.81213,20.37054-11.67993,45.71216-13.18909,57.81226H260.115A126.67593,126.67593,0,0,0,266.67041,376.60321Z"/><path class="cls-2" d="M352.31543,288.47705a6.50241,6.50241,0,0,1-5.91309-9.19238c.26074-.57318.48914-1.15942.73816-1.73737q1.84076-4.27148,3.25793-8.71307c6.56128-20.57727,6.31445-43.84943-.81055-69.37476a117.14948,117.14948,0,0,0-9.1228-23.4032c.05054,2.12823.06458,4.28564.00952,6.49646a6.50838,6.50838,0,0,1-6.49512,6.33838c-.05469,0-.10937-.00049-.165-.002a6.50015,6.50015,0,0,1-6.33594-6.65967c.05444-2.188.03979-4.32214-.02124-6.4184-1.0415-35.76855-18.34375-58.28046-33.15259-71.063a115.20245,115.20245,0,0,0-59.438-26.31976,233.94836,233.94836,0,0,1,24.05713,28.21326,217.107,217.107,0,0,1,13.5918,21.2149c10.12891,18.09155,16.7168,36.43176,19.7644,54.72974a140.79657,140.79657,0,0,1,.32715,44.82367c-.333,2.156-.7262,4.30707-1.16089,6.45453a147.42752,147.42752,0,0,1-8.07617,26.58923,49.79581,49.79581,0,0,0,6.075-1.81964,51.43964,51.43964,0,0,0,7.05566-3.24176,53.52189,53.52189,0,0,0,7.068-4.6864c.36707-.28711.73425-.57678,1.1012-.87915,7.59119-6.25421,15.12427-15.8136,20.74609-30.42383a6.50008,6.50008,0,0,1,12.13281,4.66895c-7.62036,19.80469-18.56592,31.70581-28.71228,38.85065a65.74787,65.74787,0,0,1-7.77771,4.71344c-3.55835,18.02979-11.03577,41.75525-26.9895,69.16882a104.75326,104.75326,0,0,0,21.97327-8.673,76.376,76.376,0,0,0,23.64392-19.23279,6.50028,6.50028,0,1,1,10.14258,8.13281c-12.04211,15.01788-27.82251,23.749-41.21411,28.79193a90.94346,90.94346,0,0,1-5.77979,25.96344,125.91828,125.91828,0,0,1-7.657,16.78076q-1.73437,3.18237-3.76941,6.49982-1.966,3.19373-4.23779,6.50018c-1.60437,2.33154-3.321,4.69928-5.172,7.10205a135.91417,135.91417,0,0,0,33.49658-7.21417q1.053-.381,2.10742-.78687a86.30193,86.30193,0,0,0,28.22705-17.18939c15.88672-14.90088,25.90039-30.97559,30.61328-49.14258,3.83032-14.77,4.10205-30.63629.79236-48.1134A6.51458,6.51458,0,0,1,352.31543,288.47705Z"/><path class="cls-2" d="M106.50293,227.291a6.49979,6.49979,0,0,1,11.60156,4.88916l-2.27319,15.34821a27.92258,27.92258,0,0,0,8.79346-4.5849,171.1152,171.1152,0,0,1,3.48389-41.84711c.08521-.37408.14685-.63025.17749-.75458a6.496,6.496,0,0,1,.97583-2.14478,79.82383,79.82383,0,0,0-25.06055-14.28387,67.61345,67.61345,0,0,0-14.55786-3.54742,6.51456,6.51456,0,0,1-1.105-.21252c-5.09039,4.66589-9.95911,8.99762-11.66156,10.507a21.33255,21.33255,0,0,0-4.41992,13.709L73.60157,239.479a11.38079,11.38079,0,0,0,12.2041,10.978l3.24194-.23718ZM85.17285,214.62109a6.53319,6.53319,0,0,1-5.43066-7.45166c.74219-4.81982,4.5498-13.82715,14.11914-17.01709a6.50012,6.50012,0,0,1,4.11133,12.333c-4.39453,1.46436-5.35547,6.52393-5.39355,6.73877a6.458,6.458,0,0,1-6.39844,5.47461A6.61373,6.61373,0,0,1,85.17285,214.62109Z"/><path class="cls-2" d="M176.2793,175.397a206.10386,206.10386,0,0,1-27.19873,24.50909,91.34291,91.34291,0,0,1,8.98657,13.2821,40.63818,40.63818,0,0,1,5.64673-1.44061c20.88867-3.73535,36.88477-9.36963,43.88672-15.4585,13.60449-11.82959,14.47559-33.38135,14.48242-33.59766a6.5,6.5,0,0,1,12.99414.38623c-.03125,1.11182-.98437,27.40234-18.94531,43.021a42.99721,42.99721,0,0,1-6.41956,4.53375,75.86233,75.86233,0,0,1,3.43274,19.83917c.81689,26.89288-15.17847,45.42975-29.67725,62.21985-6.207,7.18945-12.627,14.623-17.54785,22.42871-.5542.879-1.09045,1.79816-1.61877,2.73431,21.98523,26.2193,57.09949,41.65448,104.54163,45.90045a6.46159,6.46159,0,0,1,2.717.87891q.37537-1.11346.699-2.15918c.90576-2.92273,1.5686-5.58124,2.062-7.9527.34375-1.65179.60156-3.15259.79565-4.50171q-1.40625.34872-2.70166.6366a90.83152,90.83152,0,0,1-11.1394,1.86322c-.18652.01611-.37207.02393-.55762.02393a6.50009,6.50009,0,0,1-5.43652-10.05957c2.62378-4.00928,5.03345-7.93585,7.28735-11.79334,12.9978-22.24561,20.09253-41.86493,23.97815-57.69983a56.24013,56.24013,0,0,1-12.63171,1.582c-.9209,0-1.46387-.03467-1.56055-.0415a6.4998,6.4998,0,0,1-5.37012-9.37012c16.14514-32.57623,18.72876-66.10779,7.80811-100.0401A169.82138,169.82138,0,0,0,261.17285,134.207a218.222,218.222,0,0,0-36.27161-47.32245,196.57031,196.57031,0,0,1-6.80249,21.61694,199.629,199.629,0,0,1-11.44214,24.83087A208.717,208.717,0,0,1,176.2793,175.397Z"/><path class="cls-2" d="M167.09473,166.18311a195.01947,195.01947,0,0,0,30.96558-44.44122,185.63436,185.63436,0,0,0,9.877-23.38849,183.4915,183.4915,0,0,0,6.25928-22.979l-9.62817-18.97546-8.07812,26.23145a6.49983,6.49983,0,1,1-12.42383-3.82617l2.84631-9.24268-.85144-1.02161-13.615-16.33826L166.97437,72.836a6.41556,6.41556,0,0,1,1.17725.18134,6.49761,6.49761,0,0,1-1.259,12.801c-.21777.01123-12.89355.7417-19.79395,8.42139-6.38867,7.1123-10.6582,21.33545-11.76465,26.21582a6.4869,6.4869,0,0,1-1.04395,2.333c-1.09863,1.54395-26.97656,37.88379-31.93945,43.91064-.52661.6394-1.29932,1.47491-2.24371,2.44434a93.69162,93.69162,0,0,1,39.96588,21.238A192.99841,192.99841,0,0,0,167.09473,166.18311Zm-20.166-43.166c.1123-.8252,2.94727-20.30078,19.57422-28.61475a6.50032,6.50032,0,0,1,5.81445,11.62793,18.41358,18.41358,0,0,0-2.02234,1.18317,11.23319,11.23319,0,0,1,2.28894,14.02679l-.002.002a11.13983,11.13983,0,0,1-13.18909,5.03864,6.49073,6.49073,0,0,1-6.016,4.11566,6.57007,6.57007,0,0,1-.88574-.06055A6.4998,6.4998,0,0,1,146.92871,123.01709Z"/><path class="cls-2" d="M139.81287,209.16217c-.01721.10382-.03394.20337-.05127.30981a166.40611,166.40611,0,0,0-1.90271,18.39362l1.41064-1.72791a40.91448,40.91448,0,0,1,7.26514-6.9361,78.81147,78.81147,0,0,0-6.06958-9.224C140.25086,209.69757,140.02906,209.437,139.81287,209.16217Z"/><path d="M60.60938,239.90283a24.38255,24.38255,0,0,0,24.31543,23.58643q.91113,0,1.83008-.06689l23.84473-1.74463a40.70348,40.70348,0,0,0,15.171-4.18658c2.41614,19.60272,8.775,41.61877,23.02332,61.57428.07117.09967.14661.19568.218.29511-13.52576,30.07147-17.42249,73.092-17.60181,75.14239a6.4997,6.4997,0,0,0,6.47559,7.06494H251.04029c-2.47656,3.17847-5.20178,6.43091-8.21411,9.74023a6.49967,6.49967,0,0,0,4.48242,10.86719c.30273.01514,1.55078.07031,3.57031.07031,12.56445,0,54.89453-2.13232,83.84375-29.28369,36.51392-34.24615,46.46362-76.324,30.42175-128.6272,4.85205-20.81,3.84668-43.71509-3.035-68.36987-8.99316-32.2251-23.44434-44.52637-24.05469-45.03418a6.52345,6.52345,0,0,0-.97119-.66351,106.58859,106.58859,0,0,0-34.28467-55.35992c-21.415-18.48486-50.21875-29.57861-79.02734-30.43652-.17651-.00513-.35059.00244-.52417.01141l-11.91821-23.487a8.71061,8.71061,0,0,0-8.48535-4.68945,8.81734,8.81734,0,0,0-7.60547,6.2207l-3.75952,12.20831-13.1604-15.79279c-.03125-.0376-.0625-.07471-.09473-.11133a9.716,9.716,0,0,0-16.707,3.86816L153.35352,73.48a6.48342,6.48342,0,0,0-.20117,2.06909,37.59287,37.59287,0,0,0-15.72363,10.00269c-8.60059,9.57324-13.23633,25.9375-14.45215,30.71338-9.42676,13.23193-27.01563,37.74316-30.66113,42.16992-2.66895,3.24023-16.43555,15.75-24.4873,22.87354a6.5555,6.5555,0,0,0-.74609.78076A34.3351,34.3351,0,0,0,59.46485,204.793ZM88.53852,180.1532a6.51456,6.51456,0,0,0,1.105.21252,67.61345,67.61345,0,0,1,14.55786,3.54742A79.82383,79.82383,0,0,1,129.262,198.197a6.496,6.496,0,0,0-.97583,2.14478c-.03064.12433-.09229.38049-.17749.75458a171.1152,171.1152,0,0,0-3.48389,41.84711,27.92258,27.92258,0,0,1-8.79346,4.5849l2.27319-15.34821a6.49979,6.49979,0,0,0-11.60156-4.88916L89.04761,250.21985l-3.24194.23718a11.38079,11.38079,0,0,1-12.2041-10.978L72.457,204.36914a21.33255,21.33255,0,0,1,4.41992-13.709C78.57941,189.15082,83.44812,184.81909,88.53852,180.1532Zm58.56012-85.91345c6.90039-7.67969,19.57617-8.41016,19.79395-8.42139a6.50107,6.50107,0,0,0,.08179-12.98236l5.47192-20.63434,13.615,16.33826.85144,1.02161-2.84631,9.24268a6.49983,6.49983,0,0,0,12.42383,3.82617l8.07813-26.23145,9.62817,18.97546a183.4915,183.4915,0,0,1-6.25928,22.979,185.63436,185.63436,0,0,1-9.877,23.38849,195.01947,195.01947,0,0,1-30.96558,44.44122,192.99841,192.99841,0,0,1-27.022,24.19849,93.69162,93.69162,0,0,0-39.96588-21.238c.9444-.96942,1.7171-1.80493,2.24371-2.44434,4.96289-6.02686,30.84082-42.3667,31.93945-43.91064a6.4869,6.4869,0,0,0,1.04395-2.333C136.44043,115.5752,140.71,101.35205,147.09864,94.23975ZM327.45728,175.8111c.061,2.09625.07568,4.23035.02124,6.4184a6.50015,6.50015,0,0,0,6.33594,6.65967c.05566.00146.11035.002.165.002a6.50838,6.50838,0,0,0,6.49512-6.33838c.05505-2.21082.041-4.36823-.00952-6.49646a117.14948,117.14948,0,0,1,9.1228,23.4032c7.125,25.52533,7.37183,48.79749.81055,69.37476q-1.41614,4.4415-3.25793,8.71307c-.249.57794-.47742,1.16418-.73816,1.73737a6.498,6.498,0,0,0,10.83337,6.93884c3.30969,17.47711,3.038,33.34344-.79236,48.1134-4.71289,18.167-14.72656,34.2417-30.61328,49.14258A86.30193,86.30193,0,0,1,297.603,400.66888q-1.0545.40613-2.10742.78687a135.91417,135.91417,0,0,1-33.49658,7.21417c1.851-2.40277,3.56763-4.77051,5.172-7.10205q2.27325-3.30368,4.23779-6.50018,2.04144-3.31641,3.76941-6.49982a125.91828,125.91828,0,0,0,7.657-16.78076,90.94346,90.94346,0,0,0,5.77979-25.96344c13.3916-5.043,29.172-13.774,41.21411-28.79193a6.50028,6.50028,0,0,0-10.14258-8.13281,76.376,76.376,0,0,1-23.64392,19.23279,104.75326,104.75326,0,0,1-21.97327,8.673c15.95374-27.41357,23.43115-51.139,26.9895-69.16882a65.74787,65.74787,0,0,0,7.77771-4.71344c10.14636-7.14484,21.09192-19.046,28.71228-38.85065a6.50009,6.50009,0,0,0-12.13281-4.66895c-5.62183,14.61023-13.15491,24.16962-20.74609,30.42383-.36694.30237-.73413.592-1.1012.87915a53.52189,53.52189,0,0,1-7.068,4.6864,51.43964,51.43964,0,0,1-7.05566,3.24176,49.79581,49.79581,0,0,1-6.075,1.81964,147.42752,147.42752,0,0,0,8.07617-26.58923c.43469-2.14746.82788-4.29852,1.16089-6.45453a140.79657,140.79657,0,0,0-.32715-44.82367c-3.04761-18.298-9.6355-36.63818-19.7644-54.72974a217.107,217.107,0,0,0-13.5918-21.2149A233.94836,233.94836,0,0,0,234.8667,78.42828a115.20245,115.20245,0,0,1,59.438,26.31976C309.11353,117.53064,326.41577,140.04254,327.45728,175.8111Zm-102.556-88.92651A218.222,218.222,0,0,1,261.17285,134.207a169.82138,169.82138,0,0,1,13.61963,30.91449c10.92065,33.93231,8.337,67.46387-7.80811,100.0401a6.4998,6.4998,0,0,0,5.37012,9.37012c.09668.00684.63965.0415,1.56055.0415a56.24013,56.24013,0,0,0,12.63171-1.582c-3.88562,15.8349-10.98035,35.45422-23.97815,57.69983-2.25391,3.85748-4.66357,7.78406-7.28735,11.79334a6.50009,6.50009,0,0,0,5.43652,10.05957c.18555,0,.37109-.00781.55762-.02393a90.83152,90.83152,0,0,0,11.1394-1.86322q1.29529-.2894,2.70166-.6366c-.19409,1.34912-.4519,2.84991-.79565,4.50171-.49341,2.37146-1.15625,5.03-2.062,7.9527q-.32373,1.04434-.699,2.15918a6.46159,6.46159,0,0,0-2.717-.87891c-47.44214-4.246-82.5564-19.68115-104.54163-45.90045.52832-.93616,1.06458-1.85529,1.61877-2.73431,4.9209-7.80566,11.34082-15.23926,17.54785-22.42871,14.49878-16.7901,30.49414-35.327,29.67725-62.21985a75.86233,75.86233,0,0,0-3.43274-19.83917,42.99721,42.99721,0,0,0,6.41956-4.53375c17.96094-15.61865,18.91406-41.90918,18.94531-43.021a6.5,6.5,0,0,0-12.99414-.38623c-.00684.21631-.87793,21.76807-14.48242,33.59766-7.002,6.08887-22.998,11.72314-43.88672,15.4585a40.63818,40.63818,0,0,0-5.64673,1.44061,91.34291,91.34291,0,0,0-8.98657-13.2821A206.10386,206.10386,0,0,0,176.2793,175.397a208.717,208.717,0,0,0,30.37732-42.06458,199.629,199.629,0,0,0,11.44214-24.83087A196.57031,196.57031,0,0,0,224.90125,86.88458ZM139.7616,209.472c.01733-.10645.03406-.206.05127-.30981.21619.27484.438.5354.65222.81543a78.81147,78.81147,0,0,1,6.06958,9.224,40.91448,40.91448,0,0,0-7.26514,6.9361l-1.41064,1.72791A166.40611,166.40611,0,0,1,139.7616,209.472ZM266.67041,376.60321a126.67593,126.67593,0,0,1-6.55542,11.96466H145.14844c1.50916-12.1001,5.377-37.44171,13.18909-57.81226C182.5105,356.7569,218.869,372.15466,266.67041,376.60321ZM138.06665,248.09833c.37354-.42023.74463-.84308,1.10132-1.28l10.17188-12.46a27.85856,27.85856,0,0,1,16.66211-9.814c9.79028-1.75049,21.51563-4.42035,31.8175-8.33771,8.45361,30.175-6.754,47.79547-24.19055,67.98859-6.09338,7.05652-12.36621,14.34637-17.604,22.31177C143.9812,287.37115,139.35987,266.22925,138.06665,248.09833Z"/><path d="M85.17285,214.62109a6.61373,6.61373,0,0,0,1.00781.07764,6.458,6.458,0,0,0,6.39844-5.47461c.03809-.21484.999-5.27441,5.39355-6.73877a6.50012,6.50012,0,0,0-4.11133-12.333c-9.56934,3.18994-13.377,12.19727-14.11914,17.01709A6.53319,6.53319,0,0,0,85.17285,214.62109Z"/><path d="M152.49121,130.33594a6.57007,6.57007,0,0,0,.88574.06055,6.49073,6.49073,0,0,0,6.016-4.11566,11.13983,11.13983,0,0,0,13.18909-5.03864l.002-.002a11.23319,11.23319,0,0,0-2.28894-14.02679,18.41358,18.41358,0,0,1,2.02234-1.18317,6.50032,6.50032,0,0,0-5.81445-11.62793c-16.627,8.314-19.46191,27.78955-19.57422,28.61475A6.4998,6.4998,0,0,0,152.49121,130.33594Z"/></g></svg>