<svg id="Layer_1" data-name="Layer 1" xmlns="http://www.w3.org/2000/svg" viewBox="0 0 432 432"><defs><style>.cls-1 { fill: #fff; }</style></defs><title>Chicago</title><g><path d="M395.26,70.7417,366.866,59.65088a6.50021,6.50021,0,0,0-8.64111,7.74561l4.67737,17.36224L297.8855,214.93164l3.54791-151.72247,13.02728-13.84393a6.50039,6.50039,0,0,0-3.959-10.9082L280.2356,34.82275a6.5,6.5,0,0,0-6.42871,9.66113l8.55481,15.07965L244.16528,197.24512,225.431,50.38525l10.26752-13.91992a6.49988,6.49988,0,0,0-5.231-10.3584h-30.4834a6.49988,6.49988,0,0,0-5.231,10.3584l11.14709,15.11243L186.11743,197.5166,148.46411,59.48029l9.123-16.08136a6.5,6.5,0,0,0-6.42871-9.66113l-30.26611,3.63428a6.50039,6.50039,0,0,0-3.959,10.9082l12.449,13.22931,2.92212,153.41815L68.96149,86.84381l4.81366-17.86823A6.50021,6.50021,0,0,0,65.134,61.23L36.74,72.3208a6.5,6.5,0,0,0-1.104,11.55176l14.2793,9.01031,56.13525,231.415a6.49939,6.49939,0,0,0,5.85352,4.95117c6.144.439,10.26855,2.57275,12.60938,6.52295,3.57422,6.03223,3.6001,16.98828.07324,30.84912a139.35655,139.35655,0,0,1-7.25537,20.981,6.50051,6.50051,0,0,0,4.17627,8.98c.87549.2417,22.29346,5.918,96.75488,5.918,73.50293,0,90.11182-5.479,91.76367-6.104a6.50262,6.50262,0,0,0,3.6084-8.79053,139.371,139.371,0,0,1-7.25684-20.98437c-3.52686-13.86084-3.50049-24.81689.07373-30.84912,2.34082-3.9502,6.46533-6.084,12.60889-6.52295a6.49946,6.49946,0,0,0,5.854-4.95117l56.40045-232.5083L396.364,82.29346A6.5,6.5,0,0,0,395.26,70.7417ZM194.70386,230.95361,215.64917,76.438l19.70459,154.46533a6.49985,6.49985,0,0,0,12.71094.915L287.8396,88.44775l-3.63037,155.25049a6.4998,6.4998,0,0,0,12.313,3.05615L362.28735,115.084,321.01721,285.217c-3.93634,1.03638-20.996,4.62512-71.45123,5.71442L222.74829,254.7627a6.50032,6.50032,0,0,0-10.207-.29883l-30.41058,36.354c-45.08905-1.1427-65.58252-4.25537-72.15924-5.50269L68.92163,116.08936l64.60889,130.64209a6.5,6.5,0,0,0,12.3252-3.00488l-2.957-155.251L181.99194,231.791a6.5,6.5,0,0,0,12.71191-.8374Zm97.7431,133.3c-6.32983,1.19385-25.72534,3.77173-75.17963,3.77173-47.374,0-70.07013-2.42877-78.76184-3.71381.52222-2.597.95679-5.25543,1.25842-7.92694,9.74274,1.44739,32.50128,3.775,78.11328,3.775,43.50012,0,64.13348-2.102,73.34247-3.61041C291.51813,359.14532,291.94067,361.72858,292.447,364.25366Zm-1.47131-20.84534c-6.20984,1.19324-25.11877,3.75134-73.09845,3.75134-48.57507,0-70.49994-2.692-77.90234-3.903a35.52011,35.52011,0,0,0-3.35718-12.413c6.99756.70142,15.74829,1.38593,26.55859,1.93951l.47.39307.2962-.35406c14.25507.71521,32.04,1.20172,54.071,1.20172,37.20508,0,61.092-1.372,76.21185-2.92041A35.84709,35.84709,0,0,0,290.97565,343.40833Zm-65.22693-22.40552c-2.51154.01349-5.08508.02112-7.73529.02112-4.28778,0-8.40137-.01984-12.3656-.05542l10.64246-12.72241Zm16.045-.18677L229.4812,304.21l-7.66211-10.334a6.50032,6.50032,0,0,0-10.207-.29883l-8.86536,10.598-13.82629,16.52856q-7.71725-.17889-14.4726-.44006l13.63745-16.30273,10.73352-12.83124,18.4007-21.99689,16.34467,22.04382,9.54858,12.87811,12.17773,16.424Q248.98074,320.68121,241.79376,320.816Zm-70.28418-17.30133-13.35022,15.95947c-25.16028-1.50439-37.10974-3.67987-40.99908-4.5235l-3.85358-15.886C122.89117,300.50018,140.86432,302.46454,171.50958,303.51471ZM132.32446,385.353c.91272-2.4046,1.92041-5.25031,2.90247-8.3877,8.7196,1.39606,31.9245,4.06006,82.04041,4.06006,50.7016,0,71.097-2.70477,78.43341-4.17285,1.028,3.29419,2.08606,6.26587,3.03485,8.75244-9.94629,1.57373-32.71191,3.895-80.47314,3.895C169.01343,389.5,143.54175,386.96484,132.32446,385.353Zm181.43616-70.22119-.12756-.31445.11963-.04687c-.50134.18207-9.50433,3.28345-42.76758,5.04864l-11.9574-16.12677c32.05707-.957,49.51477-2.96436,58.60382-4.518Z"/><path class="cls-1" d="M132.32446,385.353c11.21729,1.61182,36.689,4.147,85.938,4.147,47.76123,0,70.52686-2.32129,80.47314-3.895-.94879-2.48657-2.00684-5.45825-3.03485-8.75244-7.33636,1.46808-27.73181,4.17285-78.43341,4.17285-50.11591,0-73.3208-2.664-82.04041-4.06006C134.24487,380.10272,133.23718,382.94843,132.32446,385.353Z"/><path class="cls-1" d="M292.447,364.25366c-.50629-2.52509-.92883-5.10834-1.22729-7.70441-9.209,1.50842-29.84235,3.61041-73.34247,3.61041-45.612,0-68.37054-2.32764-78.11328-3.775-.30164,2.67151-.73621,5.33-1.25842,7.92694,8.69171,1.285,31.38782,3.71381,78.76184,3.71381C266.72162,368.02539,286.11713,365.44751,292.447,364.25366Z"/><path class="cls-1" d="M117.16028,314.95068c3.88934.84363,15.83881,3.0191,40.99908,4.5235l13.35022-15.95947c-30.64526-1.05017-48.61841-3.01453-58.20288-4.45007Z"/><path class="cls-1" d="M289.14136,250.15869a6.50017,6.50017,0,0,1-4.93213-6.46045L287.8396,88.44775,248.0647,231.81836a6.49985,6.49985,0,0,1-12.71094-.915L215.64917,76.438,194.70386,230.95361a6.5,6.5,0,0,1-12.71191.8374L142.89868,88.47559l2.957,155.251a6.5,6.5,0,0,1-12.3252,3.00488L68.92163,116.08936l41.0498,169.22583c6.57672,1.24731,27.07019,4.36,72.15924,5.50269l30.41058-36.354a6.50032,6.50032,0,0,1,10.207.29883L249.566,290.93146c50.4552-1.08929,67.51489-4.678,71.45123-5.71442L362.28735,115.084,296.52222,246.75439A6.50551,6.50551,0,0,1,289.14136,250.15869Z"/><path class="cls-1" d="M163.64624,333.17627l-.47-.39307c-10.8103-.55359-19.561-1.2381-26.55859-1.93951a35.52011,35.52011,0,0,1,3.35718,12.413c7.4024,1.211,29.32727,3.903,77.90234,3.903,47.97968,0,66.88861-2.55811,73.09845-3.75134a35.84709,35.84709,0,0,1,3.24963-12.30481c-15.11981,1.5484-39.00677,2.92041-76.21185,2.92041-22.03094,0-39.81592-.48651-54.071-1.20172Z"/><path class="cls-1" d="M313.76062,315.13184l3.87091-15.95746c-9.08905,1.55365-26.54675,3.561-58.60382,4.518l11.9574,16.12677c33.26324-1.7652,42.26624-4.86658,42.76758-5.04864l-.11963.04688Z"/><path class="cls-1" d="M241.79376,320.816q7.195-.13248,13.4967-.33734l-12.17773-16.424-9.54858-12.87811-16.34467-22.04382-18.4007,21.99689-10.73352,12.83124-13.63745,16.30273q6.76144.25818,14.4726.44006l13.82629-16.52856,8.86536-10.598a6.50032,6.50032,0,0,1,10.207.29883l7.66211,10.334Z"/><path class="cls-1" d="M205.64783,320.96851c3.96423.03558,8.07782.05542,12.3656.05542,2.65021,0,5.22375-.00763,7.73529-.02112l-9.45844-12.75671Z"/></g></svg>