<svg id="Layer_1" data-name="Layer 1" xmlns="http://www.w3.org/2000/svg" viewBox="0 0 432 432"><defs><style>.cls-1 { fill: #fff; }</style></defs><title>Chicago</title><g><path class="cls-1" d="M134.70022,344.10675a6.90712,6.90712,0,0,1,3.96436.18524c.38434.12787,15.85754,5.08832,64.84766,6.10876,5.62439.11719,11.68329.18323,18.21936.18323,6.63422,0,12.72107-.066,18.31244-.18323,35.39911-.74225,50.7226-3.56116,56.37366-5.01123a44.519,44.519,0,0,1,2.40607-14.51025,469.639,469.639,0,0,1-82.82349,7.84729,470.17038,470.17038,0,0,1-83.74451-8.01709A42.54494,42.54494,0,0,1,134.70022,344.10675Z"/><path class="cls-1" d="M134.01614,356.48926c-.01642-.00592-.03137-.01392-.04773-.02q-.5538,4.02182-1.5144,8.37915a6.89214,6.89214,0,0,1,3.55072.39764c.34912.12933,11.21313,4.00946,43.13776,6.02032,11.22894.70728,25.05768,1.18378,41.95868,1.18378,17.17511,0,30.79956-.47845,41.55981-1.18378,22.84253-1.49725,32.76013-4.017,36.24188-5.15961-.56848-2.48212-1.07245-5.03406-1.4754-7.61871-10.02179,2.18683-31.632,5.09589-75.69586,5.09589C154.42178,363.584,134.81766,356.7793,134.01614,356.48926Z"/><path class="cls-1" d="M221.10116,385.4502c-69.19739,0-89.39709-7.85254-90.22284-8.1875a6.76081,6.76081,0,0,1-1.5061-.85376c-1.25287,4.02783-2.53766,7.6026-3.62781,10.43481,10.85791,2.75488,37.89307,7.65625,92.80029,7.65625,53.38965,0,77.5415-4.63867,86.96387-7.28418-.93878-2.38721-2.0166-5.30664-3.09442-8.58252C294.0375,381.16223,272.28775,385.4502,221.10116,385.4502Z"/><path class="cls-1" d="M157.30807,145.22345l-39.6662,169.18182c4.85577,1.10413,12.40033,2.70319,21.88062,4.353,3.86377.67236,8.04572,1.35242,12.50781,2.01172l1.68286-2.01172L209.73172,251.791a6.50035,6.50035,0,0,1,10.207.2998l49.43048,66.66748,2.34625,3.16443c7.6272-.99536,14.62189-2.08984,20.7926-3.16443,9.47693-1.65039,17.01422-3.25,21.86279-4.354L274.91226,144.60718Z"/><path class="cls-1" d="M202.80166,318.7583l-5.44263,6.50653c6.08557.29248,12.31641.46173,18.64124.46173q6.37921,0,12.61505-.21338l-5.00842-6.75488-9.77606-13.18506Z"/><path class="cls-1" d="M244.19742,324.703q6.46353-.45566,12.603-1.0705l-3.614-4.87421L214.40994,266.46,170.66263,318.7583l-3.36511,4.02289c4.50281.52136,9.18243.99866,14.00958,1.41064l4.54523-5.43353,23.30029-27.854a6.50035,6.50035,0,0,1,10.207.2998l20.43005,27.5542Z"/><path class="cls-1" d="M131.2283,41.44287l7.83447,90.876,7.92755-.04156,6.68469-.035,6.68481-.035,111.535-.58459,6.66486-.03491,6.66486-.035,8.017-.042,7.33838-91.415H286.71463V63.35449a6.5,6.5,0,0,1-6.5,6.5H254.93191a6.5,6.5,0,0,1-6.5-6.5V40.0957H236.0242V63.35449a6.5,6.5,0,0,1-6.5,6.5H202.242a6.5,6.5,0,0,1-6.5-6.5V41.44287H183.33426V63.35449a6.5,6.5,0,0,1-6.5,6.5H151.55154a6.5,6.5,0,0,1-6.5-6.5V41.44287Z"/><path d="M106.44412,324.25c6.72021.48047,9.74365,3.82324,12.32373,8.17773,8.28711,13.9873-2.71436,45.01367-7.65137,55.78613a6.50042,6.50042,0,0,0,3.19971,8.624c.95117.43457,24.2041,10.66211,104.22852,10.66211,79.11279,0,97.231-9.93359,99.03613-11.06641a6.50243,6.50243,0,0,0,2.45361-8.2168c-4.93848-10.77539-15.93994-41.80176-7.65283-55.78906a13.55,13.55,0,0,1,7.455-5.93549c2.23138-.53339,3.58746-.88635,3.95-.982a9.42227,9.42227,0,0,0,2.35352-1.15454,6.50018,6.50018,0,0,0,2.35333-6.61157L288.242,144.53729l11.03516-.0578a6.49981,6.49981,0,0,0,6.44482-5.98l8.37939-104.38379a6.49971,6.49971,0,0,0-6.479-7.02H280.21463a6.5,6.5,0,0,0-6.5,6.5V56.85449H261.43191V33.5957a6.5,6.5,0,0,0-6.5-6.5H229.5242a6.5,6.5,0,0,0-6.5,6.5V56.85449H208.742V34.94287a6.5,6.5,0,0,0-6.5-6.5H176.83426a6.5,6.5,0,0,0-6.5,6.5V56.85449H158.05154V34.94287a6.5,6.5,0,0,0-6.5-6.5H124.14383a6.49985,6.49985,0,0,0-6.47607,7.05811l8.958,103.90723a6.49954,6.49954,0,0,0,6.47559,5.94189h.03467l10.80261-.05658-40.42957,172.4389a6.49159,6.49159,0,0,0,1.5528,5.88812ZM145.05154,41.44287V63.35449a6.5,6.5,0,0,0,6.5,6.5h25.28271a6.5,6.5,0,0,0,6.5-6.5V41.44287H195.742V63.35449a6.5,6.5,0,0,0,6.5,6.5H229.5242a6.5,6.5,0,0,0,6.5-6.5V40.0957h12.40771V63.35449a6.5,6.5,0,0,0,6.5,6.5h25.28271a6.5,6.5,0,0,0,6.5-6.5V40.0957h13.86523l-7.33838,91.415-8.017.042-6.66486.035-6.66486.03491-111.535.58459-6.68481.035-6.68469.035-7.92755.04156-7.83447-90.876ZM274.91226,144.60718,314.37088,314.4043c-4.84857,1.104-12.38586,2.70361-21.86279,4.354-6.17072,1.07458-13.16541,2.16907-20.7926,3.16443l-2.34625-3.16443-49.43048-66.66748a6.50035,6.50035,0,0,0-10.207-.2998L153.71316,318.7583,152.0303,320.77c-4.4621-.6593-8.644-1.33936-12.50781-2.01172-9.48029-1.64984-17.02484-3.2489-21.88062-4.353l39.6662-169.18182ZM125.74441,386.84375c1.09015-2.83221,2.37494-6.407,3.62781-10.43481a6.76081,6.76081,0,0,0,1.5061.85376c.82574.335,21.02545,8.1875,90.22284,8.1875,51.18658,0,72.93634-4.288,81.313-6.81689,1.07782,3.27588,2.15564,6.19531,3.09442,8.58252-9.42236,2.64551-33.57422,7.28418-86.96387,7.28418C163.63748,394.5,136.60232,389.59863,125.74441,386.84375Zm44.91821-68.08545L214.40994,266.46l38.77649,52.29834,3.614,4.87421q-6.1344.60544-12.603,1.0705l-4.40771-5.9447-20.43005-27.5542a6.50035,6.50035,0,0,0-10.207-.2998l-23.30029,27.854-4.54523,5.43353c-4.82715-.412-9.50677-.88928-14.00958-1.41064Zm32.139,0,11.02917-13.18506,9.77606,13.18506,5.00842,6.75488q-6.22824.20609-12.61505.21338c-6.32483,0-12.55566-.16925-18.64124-.46173Zm-68.78552,37.731c.80151.29,20.40564,7.09473,87.71545,7.09473,44.0639,0,65.67407-2.90906,75.69586-5.09589.403,2.58466.90692,5.1366,1.4754,7.61871-3.48175,1.14258-13.39935,3.66235-36.24188,5.15961-10.76025.70532-24.3847,1.18378-41.55981,1.18378-16.901,0-30.72974-.4765-41.95868-1.18378-31.92462-2.01086-42.78864-5.891-43.13776-6.02032a6.89214,6.89214,0,0,0-3.55072-.39764q.95984-4.356,1.5144-8.37915C133.98477,356.47534,133.99972,356.48334,134.01614,356.48926Zm162.40155-11.09973c-5.65106,1.45007-20.97455,4.269-56.37366,5.01123-5.59137.11725-11.67822.18323-18.31244.18323-6.53607,0-12.595-.066-18.21936-.18323-48.99011-1.02045-64.46332-5.9809-64.84766-6.10876a6.90712,6.90712,0,0,0-3.96436-.18524,42.54494,42.54494,0,0,0-2.44446-13.39728,470.17038,470.17038,0,0,0,83.74451,8.01709,469.639,469.639,0,0,0,82.82349-7.84729A44.519,44.519,0,0,0,296.41769,345.38953Z"/></g></svg>