<?xml version="1.0" encoding="utf-8"?><svg version="1.1" id="Layer_1" xmlns="http://www.w3.org/2000/svg" xmlns:xlink="http://www.w3.org/1999/xlink" x="0px" y="0px" viewBox="0 0 216 216" style="enable-background:new 0 0 216 216;" xml:space="preserve"><style type="text/css">.st0{fill:#FFFFFF;}</style><title>Iowa</title><path d="M155.4,187.1h-12.9c-5.6,0-10.1-3.9-10.1-8.6v-12.7c6.5-0.2,12-4.8,13.2-11.2c2.4-10.7,8.2-43.6,11.7-61.3 	c1.9-9.3-0.2-19-5.8-26.8c-8.2-11.2-20.4-26.2-28.9-34.8L108,68.1L93.4,31.6c-8.6,8.6-20.8,23.6-28.9,34.8 	c-5.6,7.7-7.7,17.4-5.8,26.8c3.5,17.7,9.3,50.6,11.8,61.3c1.3,6.3,6.8,11,13.2,11.2v12.9c0,4.8-4.5,8.6-10.1,8.6h-11 	c-16.8,0-34.9,11.6-34.9,25.9H68c17.4,0,32.5-2.8,40-15.2c7.5,12.3,22.6,15.2,40,15.2h40.5C188.5,198.7,172.1,187.1,155.4,187.1z"/><polygon class="st0" points="125,105.7 114,105.7 114,94.7 102,94.7 102,105.7 91,105.7 91,117.7 102,117.7 102,142.8 114,142.8  	114,117.7 125,117.7 "/><path class="st0" d="M92.6,165.9h30.8l0,0v6.4c0,2.5-2,4.5-4.5,4.5H97.1c-2.5,0-4.5-2-4.5-4.5L92.6,165.9L92.6,165.9z"/></svg>