<?xml version="1.0" encoding="utf-8"?><svg version="1.1" id="Layer_1" xmlns="http://www.w3.org/2000/svg" xmlns:xlink="http://www.w3.org/1999/xlink" x="0px" y="0px" viewBox="0 0 216 216" style="enable-background:new 0 0 216 216;" xml:space="preserve"><style type="text/css">.st0{fill:#FFFFFF;}</style><title>Iowa</title><path d="M175,94.3c-10.3-8.3-23.3-13.1-35.7-13.1c-10.2,0-18.6,1.8-25.4,5.5V66.4h22v-12h-22V35.7h-12v18.7H80v12h22v20.3 	c-6.8-3.7-15.2-5.5-25.4-5.5C64.3,81.2,51.3,86,41,94.3c-11.3,9.1-17.5,20.9-17.5,33.1v1.6l0.8,1.4c2.5,4.4,4.7,9,6.5,13.8 	c1.2,3.1,2.4,6.3,3.5,9.6c2,6.3,3.8,12.8,5.2,19.4c0.9,4.2,1.7,8.4,2.4,12.5c1,6.2,1.8,12.2,2.2,17.6l0.4,4.8l4.8,0.7 	c19.9,2.8,39.9,4.2,59.9,4.3c19.2-0.1,38.3-1.4,57.3-3.9l4.8-0.6l0.4-4.8c0.5-5.5,1.2-11.6,2.3-17.9c0.7-4.1,1.5-8.3,2.4-12.5 	c1.4-6.5,3.2-13.1,5.2-19.4c1.1-3.3,2.2-6.5,3.5-9.6c1.8-4.7,4-9.3,6.5-13.8l0.8-1.4v-1.6C192.5,115.2,186.3,103.4,175,94.3z"/><path class="st0" d="M168.6,155.6c2.1-7.4,4.8-14.6,7.9-21.7c-14.3,1.9-43.7,5.3-68.5,5.3s-54.2-3.4-68.5-5.3 	c3.1,7,5.8,14.3,7.9,21.7c15.7,1.9,39.8,4.3,60.6,4.3S153,157.5,168.6,155.6z"/><path class="st0" d="M161.7,187.2c0.6-4,1.3-8.2,2.2-12.4c-15.5,1.8-37,3.8-55.9,3.8s-40.4-2-55.9-3.8c0.9,4.2,1.6,8.4,2.2,12.4 	c15.3,1.7,35.7,3.5,53.7,3.5S146.4,188.9,161.7,187.2z"/></svg>