<?xml version="1.0" encoding="utf-8"?><svg version="1.1" id="Layer_1" xmlns="http://www.w3.org/2000/svg" xmlns:xlink="http://www.w3.org/1999/xlink" x="0px" y="0px" viewBox="0 0 216 216" style="enable-background:new 0 0 216 216;" xml:space="preserve"><style type="text/css">.st0{fill:#FFFFFF;}</style><title>Iowa</title><path class="st0" d="M90.5,173.8c0,7.9-7.1,14.3-15.7,14.3H64.1c-10.8,0-21.7,5.9-25.9,12.9h31.2c18.4,0,28.4-3.5,33.4-11.7l5.1-8.4 	l5.1,8.4c5,8.2,15,11.7,33.4,11.7H178c-3.8-7.2-13.8-12.9-24.3-12.9h-12.4c-8.7,0-15.7-6.4-15.7-14.3v-6.4l-35-0.1V173.8z"/><path class="st0" d="M85.2,155.2l45.7,0.1c3.3-0.1,6.1-2.5,6.7-5.8c1.6-7.1,4.9-23.7,7.8-38.3c1.2-5.9,2.3-11.5,3.2-16.2 	c1.5-7.1-0.1-14.6-4.4-20.5c-5.4-7.5-13.4-17.4-20.3-25.3L108,88.5L92.2,49.1c-7,7.9-14.9,17.8-20.3,25.3 	c-4.3,5.9-5.9,13.3-4.4,20.5c0.9,4.7,2.1,10.3,3.2,16.2c2.9,14.6,6.2,31.2,7.8,38.4C79.1,152.7,81.9,155.1,85.2,155.2z M92,109.4h11 	v-11h10v11h11v10h-11v24.2h-10v-24.2H92L92,109.4z"/><path d="M153.6,176.1h-12.4c-2.1,0-3.7-1.2-3.7-2.3v-7.7c6-2.4,10.4-7.6,11.7-13.9c1.6-7.3,4.9-23.9,7.9-38.6 	c1.2-5.8,2.3-11.4,3.2-16.1c2.1-10.4-0.2-21.3-6.5-29.9c-7.2-9.9-19-24.6-27.8-33.4l-6.4-6.4L108,56.4L96.4,27.5L90,33.9 	c-8.8,8.8-20.6,23.5-27.8,33.4c-6.2,8.6-8.6,19.5-6.5,29.9c0.9,4.7,2.1,10.3,3.2,16.1c2.9,14.7,6.2,31.4,7.9,38.7 	c1.3,6.3,5.7,11.5,11.7,13.9v7.8c0,1.1-1.6,2.3-3.7,2.3H64.1c-18.7,0-39.7,13.2-39.7,30.9v6h45c12.9,0,28.4-1.4,38.6-11.1 	c10.2,9.7,25.6,11.1,38.5,11.1h45v-6C191.5,190.5,173.8,176.1,153.6,176.1z M78.5,149.4c-1.6-7.1-4.9-23.7-7.8-38.4 	c-1.2-5.9-2.3-11.5-3.2-16.2c-1.5-7.1,0.1-14.6,4.4-20.5c5.4-7.5,13.3-17.4,20.3-25.3L108,88.5l15.8-39.2c7,7.9,14.9,17.8,20.3,25.3 	c4.3,5.9,5.9,13.3,4.4,20.5c-0.9,4.7-2.1,10.3-3.2,16.2c-2.9,14.6-6.2,31.2-7.8,38.3c-0.6,3.3-3.4,5.7-6.7,5.8l-45.7-0.1 	C81.9,155.1,79.1,152.7,78.5,149.4z M146.6,201c-18.4,0-28.4-3.5-33.4-11.7l-5.1-8.4l-5.1,8.4c-5,8.2-15,11.7-33.4,11.7H38.3 	c4.2-7.1,15.1-12.9,25.9-12.9h10.6c8.7,0,15.7-6.4,15.7-14.3v-6.5l35,0.1v6.4c0,7.9,7.1,14.3,15.7,14.3h12.4 	c10.5,0,20.6,5.7,24.3,12.9L146.6,201z"/><polygon points="103,143.7 113,143.7 113,119.4 124,119.4 124,109.4 113,109.4 113,98.5 103,98.5 103,109.4 92,109.4 92,119.4  	103,119.4 "/></svg>