<?xml version="1.0" encoding="utf-8"?><svg version="1.1" id="Layer_1" xmlns="http://www.w3.org/2000/svg" xmlns:xlink="http://www.w3.org/1999/xlink" x="0px" y="0px" viewBox="0 0 216 216" style="enable-background:new 0 0 216 216;" xml:space="preserve"><style type="text/css">.st0{fill:#FFFFFF;stroke:#000000;stroke-miterlimit:10;} 	.st1{fill:none;} 	.st2{fill:#FFFFFF;}</style><polygon class="st0" points="89.8,50.2 123,51.2 115,72.2 98.8,73.8 "/><title>Iowa</title><polygon class="st1" points="95.5,54.5 103.7,68.7 112.3,68.7 120.5,54.5 "/><path class="st2" d="M121,136.7l-3.3-2.3l10.7-46.8c0.4-1.7,0.1-3.5-1-4.9c-0.9-1.2-2.3-1.9-3.8-1.9H92.4c-1.5,0-2.9,0.7-3.8,1.9 	c-1.1,1.4-1.4,3.1-1,4.8l10.7,46.9l-3.3,2.3c-6.2,4.4-11.1,11.5-13.8,20c-2.1,6.7-2.7,13.8-1.8,20.7v0.1l2.3,22.6 	c9.5,0.7,18.8,1,27.8,1c8,0,16.4-0.3,24.9-0.8l2.3-22.9c0.9-7,0.3-14-1.8-20.7C132.1,148.1,127.2,141,121,136.7z"/><path d="M146.3,153L146.3,153c-2.8-9.1-8-17.2-15.1-23.6l8.9-39.2c1.3-5.2,0.1-10.8-3.3-15c-2.7-3.4-6.5-5.6-10.8-6.3l9.7-16.8 	c1.8-3.1,0.7-7.1-2.4-8.8c-1-0.6-2.1-0.9-3.2-0.9H85.9c-3.6,0-6.5,2.9-6.5,6.5c0,1.1,0.3,2.3,0.9,3.2L90,68.9 	c-4.3,0.6-8.1,2.9-10.8,6.3c-3.3,4.2-4.6,9.7-3.3,15l8.9,39.2c-7.1,6.3-12.3,14.5-15.1,23.6c-2.6,8.3-3.4,17.1-2.3,25.8l3.3,32.5 	l5,0.4c11.5,0.9,22.9,1.4,33.8,1.4c9.9,0,20.3-0.4,30.8-1.2l5-0.4l3.3-32.7C149.7,170.1,148.9,161.3,146.3,153z M120.5,54.5 	l-8.3,14.3h-8.6l-8.3-14.3L120.5,54.5z M136.6,177.3l-2.3,22.9c-8.5,0.5-16.8,0.8-24.9,0.8c-9,0-18.3-0.3-27.8-1l-2.3-22.6v-0.1 	c-0.9-7-0.3-14,1.8-20.7c2.7-8.5,7.6-15.6,13.8-20l3.3-2.3L87.6,87.4c-0.4-1.7,0-3.4,1-4.8c0.9-1.2,2.3-1.9,3.8-1.9h31.2 	c1.5,0,2.9,0.7,3.8,1.9c1.1,1.4,1.4,3.2,1,4.9l-10.7,46.8l3.3,2.3c6.2,4.4,11.1,11.5,13.8,20C136.9,163.3,137.5,170.4,136.6,177.3 	L136.6,177.3z"/></svg>