<svg xmlns="http://www.w3.org/2000/svg" viewBox="0 0 97.2 97.2"><title>Oslo</title><path d="M83,84.25H14.66a60,60,0,0,1-1.58,9.95H84.56l0-.17A60,60,0,0,1,83,84.25Z"/><path d="M14.29,68.52h69.1c.24-1.77.54-3.47.91-5.07l4-16.86a33.54,33.54,0,0,0-39.43,0h0a33.54,33.54,0,0,0-39.43,0l3.95,16.68C13.73,64.92,14,66.69,14.29,68.52Z"/><path d="M14.76,73.52c.11,1.89.16,3.81.13,5.73H82.76c0-1.92,0-3.84.14-5.73Z"/><path d="M44.07,39.31a34.06,34.06,0,0,1,4.75,2.6,34.09,34.09,0,0,1,4.59-2.53V30.16H67.07V20.82H53.41V8.22H44.07v12.6H30.57v9.34H44.07Z"/></svg>