<?xml version="1.0" encoding="utf-8"?><svg version="1.1" id="Layer_1" xmlns="http://www.w3.org/2000/svg" xmlns:xlink="http://www.w3.org/1999/xlink" x="0px" y="0px" viewBox="0 0 216 216" style="enable-background:new 0 0 216 216;" xml:space="preserve"><style type="text/css">.st0{fill:#FFFFFF;}</style><g><polygon class="st0" points="86,65.5 65,202 151.5,202 132.5,67 	"/><path d="M155.4,197.7l-1.4-10l-6.1-44.7l-1.3-9.9l-2.5-18.8l-1.1-7.8l-2.5-18.7l-1.2-9l-0.2-1.3v0c6.4-3.9,13.1-10.1,14-18l4-35.2	h-13.9l-1.5,12.7h-10.8l-1.5-12.7h-14.4l-1.5,12.7h-10.8l-1.5-12.7H86.7l-1.5,12.7H74.4l-1.5-12.7H58.9l3.6,34.6	c0.8,8.2,7.7,14.6,14.4,18.5l0.1,0l0,0l-0.2,1.1l-1.4,10l-2.4,17.3l-1.3,9.8l-2.4,17.8l-1.2,8.7l-2.5,18.2l-1.4,10l-2.4,17.7	l-1.2,8.5l-1.8,13.1l5.8,0.7c15.2,1.8,30.2,2.7,44.5,2.7c13.5,0,27.7-0.8,42.1-2.4l5.8-0.6L155.4,197.7z M146,197.7h-10.6	c-2.8,0-5-2.2-5-5s2.2-5,5-5h9.3L146,197.7z M142.4,170.4h-34.9c-2.8,0-5-2.2-5-5s2.2-5,5-5H141L142.4,170.4z M138.7,143.1H131	c-2.8,0-5-2.2-5-5s2.2-5,5-5h6.4L138.7,143.1z M125.3,78.6h4.7l1.3,10h-6c-2.8,0-5-2.2-5-5S122.6,78.6,125.3,78.6z M83.9,88.6	l1.4-10h15.3c2.8,0,5,2.2,5,5s-2.2,5-5,5H83.9z M90.7,110.9c0,2.8-2.2,5-5,5h-5.5l1.4-10h4.2C88.4,105.9,90.7,108.1,90.7,110.9z M108.4,105.9h25.2l1.3,10h-26.6c-2.8,0-5-2.2-5-5S105.7,105.9,108.4,105.9z M77.8,133.1H106c2.8,0,5,2.2,5,5s-2.2,5-5,5H76.4	L77.8,133.1z M74,160.4h9.2c2.8,0,5,2.2,5,5s-2.2,5-5,5H72.6L74,160.4z M70.3,187.7h34.5c2.8,0,5,2.2,5,5s-2.2,5-5,5H68.9	L70.3,187.7z"/></g><title>Iowa</title></svg>