<!DOCTYPE svg PUBLIC "-//W3C//DTD SVG 20010904//EN" "http://www.w3.org/TR/2001/REC-SVG-20010904/DTD/svg10.dtd"><svg version="1.0" xmlns="http://www.w3.org/2000/svg" width="80px" height="80px" viewBox="0 0 800 800" preserveAspectRatio="xMidYMid meet"><g id="layer101" fill="#0a0a0a" stroke="none"><path d="M255 660 c-60 -29 -96 -100 -59 -114 35 -13 59 -5 76 24 34 59 118 30 118 -40 0 -42 -26 -70 -66 -70 -29 0 -34 -3 -34 -22 0 -29 8 -40 45 -58 36 -19 44 -54 19 -81 -24 -27 -41 -24 -75 12 -25 27 -33 30 -65 25 -30 -6 -34 -10 -28 -29 12 -39 34 -65 69 -81 129 -62 265 75 171 173 l-25 26 29 17 c33 19 56 81 46 121 -9 37 -55 88 -93 103 -45 19 -81 17 -128 -6z"/><path d="M560 595 c0 -4 19 -32 41 -65 l42 -58 -42 -59 -41 -58 37 -3 c37 -3 46 3 73 48 8 12 14 9 35 -17 21 -26 34 -33 61 -33 19 0 34 2 34 5 0 3 -18 30 -40 60 l-40 54 40 57 c22 32 40 61 40 66 0 4 -15 8 -34 8 -28 0 -38 -6 -56 -35 -12 -19 -25 -35 -28 -35 -4 0 -17 16 -30 35 -18 29 -28 35 -57 35 -19 0 -35 -2 -35 -5z"/></g></svg>