<svg xmlns="http://www.w3.org/2000/svg" viewBox="0 0 97.2 97.2"><defs><style>.a{fill:#fff;}</style></defs><title>Oslo</title><path d="M87.52,94.2H68.57A26.39,26.39,0,0,1,48,84.23a26.39,26.39,0,0,1-20.61,10H8.41V77.34H25.3a7.42,7.42,0,0,0,6-3.14,8.92,8.92,0,0,0,1.08-8.28L22.89,39.1a8,8,0,0,1,1.87-8.23L48,7.67,59.87,19.58,47.75,31.7l3.49,3.49L63.37,23.08l7.8,7.8A7.92,7.92,0,0,1,73,39.1L63.67,65.63a9,9,0,0,0,1,8.17,7.58,7.58,0,0,0,5.94,3.54H87.52Z"/><path class="a" d="M37.49,65.44h21l9.88-28a2.93,2.93,0,0,0-.69-3l-4.26-4.26L51.25,42.27,40.68,31.7,52.8,19.58,48,14.74,28.3,34.41a2.93,2.93,0,0,0-.69,3Z"/><path class="a" d="M70.63,82.34c-6.51,0-11.57-5.87-12.69-11.9H38c-1,6.84-6.24,11.9-12.73,11.9H13.41V89.2H27.35A21.36,21.36,0,0,0,45.8,78.55L48,74.8l2.17,3.75A21.36,21.36,0,0,0,68.57,89.2H82.52V82.34Z"/></svg>