<svg xmlns="http://www.w3.org/2000/svg" viewBox="0 0 97.2 97.2"><defs><style>.a{fill:#fff;}</style></defs><title>Oslo</title><path d="M86.75,61.8,91,43.49l-1.34-1a35.63,35.63,0,0,0-33.15-4.7V30.07H70.88V15.26H56.55V2H41.74V15.26H27.58v14.8H41.74v7.73A35.64,35.64,0,0,0,8.64,42.51l-1.35,1,4.29,18.14a68.55,68.55,0,0,1-.24,29.45l-.8,3.12H87.77L87,90.92A68.65,68.65,0,0,1,86.75,61.8Z"/><path class="a" d="M46.74,40q1.23.67,2.42,1.45,1.17-.76,2.38-1.43v-15H65.88v-4.8H51.55V7h-4.8V20.26H32.58v4.8H46.74Z"/><path class="a" d="M50.64,46.55l-1.47,1.07L47.7,46.55a30.65,30.65,0,0,0-34.77-.93l3.52,14.86a59.46,59.46,0,0,1,1.25,7.64h63a59.35,59.35,0,0,1,1.21-7.46l3.53-15A30.65,30.65,0,0,0,50.64,46.55Z"/><path class="a" d="M18.06,76.87H80.29c0-1.25,0-2.5,0-3.75H18C18.07,74.36,18.08,75.62,18.06,76.87Z"/><path class="a" d="M80.51,81.87H17.84a67,67,0,0,1-1,7.33H81.46A66.85,66.85,0,0,1,80.51,81.87Z"/></svg>