<!DOCTYPE svg PUBLIC "-//W3C//DTD SVG 20010904//EN" "http://www.w3.org/TR/2001/REC-SVG-20010904/DTD/svg10.dtd"><svg version="1.0" xmlns="http://www.w3.org/2000/svg" width="80px" height="80px" viewBox="0 0 800 800" preserveAspectRatio="xMidYMid meet"><g id="layer101" fill="#070707" stroke="none"><path d="M380 615 l0 -45 -95 0 -95 0 0 -38 c0 -32 16 -62 100 -185 97 -142 102 -147 135 -147 l35 0 0 145 0 145 30 0 c28 0 30 2 30 40 0 38 -2 40 -30 40 -29 0 -30 2 -30 45 l0 45 -40 0 -40 0 0 -45z m0 -202 l0 -78 -33 50 c-19 28 -42 62 -52 78 l-17 27 51 0 51 0 0 -77z"/><path d="M560 605 c0 -4 19 -32 41 -65 l42 -58 -42 -59 -41 -58 37 -3 c37 -3 46 3 73 48 8 12 14 9 35 -17 21 -26 34 -33 61 -33 19 0 34 2 34 5 0 3 -18 30 -40 60 l-40 54 40 57 c22 32 40 61 40 66 0 4 -15 8 -34 8 -28 0 -38 -6 -56 -35 -12 -19 -25 -35 -28 -35 -4 0 -17 16 -30 35 -18 29 -28 35 -57 35 -19 0 -35 -2 -35 -5z"/></g><g id="layer102" fill="#9f9f9f" stroke="none"><path d="M463 615 c0 -27 2 -38 4 -22 2 15 2 37 0 50 -2 12 -4 0 -4 -28z"/><path d="M464 345 c0 -82 2 -115 3 -72 2 43 2 110 0 150 -1 40 -3 5 -3 -78z"/></g></svg>