<?xml version="1.0" encoding="UTF-8"?>
<!DOCTYPE svg PUBLIC "-//W3C//DTD SVG 1.1//EN" "http://www.w3.org/Graphics/SVG/1.1/DTD/svg11.dtd">
<svg xmlns="http://www.w3.org/2000/svg" version="1.1" width="80px" height="80px" style="shape-rendering:geometricPrecision; text-rendering:geometricPrecision; image-rendering:optimizeQuality; fill-rule:evenodd; clip-rule:evenodd" xmlns:xlink="http://www.w3.org/1999/xlink">
<g><path style="opacity:0.963" fill="#e6e6e6" d="M 50.5,12.5 C 63.7074,11.8671 68.5407,17.8671 65,30.5C 62.3309,34.0915 58.8309,36.5915 54.5,38C 59.6693,43.1604 61.836,49.3271 61,56.5C 57.0491,57.9449 53.2158,57.6116 49.5,55.5C 42.4687,65.3875 33.1353,68.2208 21.5,64C 13.1598,58.3238 10.3265,50.4905 13,40.5C 14.8841,35.5407 18.0508,31.7074 22.5,29C 20.648,25.351 20.148,21.5177 21,17.5C 23.7372,16.3895 26.5706,16.2228 29.5,17C 33.4964,18.6627 37.1631,20.8294 40.5,23.5C 42.1214,21.8474 43.2881,19.8474 44,17.5C 46.3256,15.9343 48.4922,14.2676 50.5,12.5 Z M 26.5,36.5 C 31.6313,41.1302 36.6313,45.9635 41.5,51C 34.1652,61.0993 26.9985,60.9326 20,50.5C 19.2092,44.417 21.3759,39.7503 26.5,36.5 Z"/></g>
<g><path style="opacity:1" fill="#141414" d="M 50.5,15.5 C 59.6583,13.8346 63.825,17.5013 63,26.5C 62.6541,28.8477 61.4875,30.6811 59.5,32C 54.6775,33.9124 50.0108,36.079 45.5,38.5C 43.3235,37.1557 41.6569,35.3223 40.5,33C 42.4338,26.2911 45.7671,20.4577 50.5,15.5 Z"/></g>
<g><path style="opacity:1" fill="#cfcfcf" d="M 52.5,17.5 C 55.7123,17.1058 58.0456,18.2724 59.5,21C 59.1667,21.5 58.8333,22 58.5,22.5C 55.9876,20.5333 53.321,20.2 50.5,21.5C 50.1667,21.1667 49.8333,20.8333 49.5,20.5C 50.3398,19.265 51.3398,18.265 52.5,17.5 Z"/></g>
<g><path style="opacity:1" fill="#151515" d="M 23.5,18.5 C 29.8569,20.1888 35.5235,23.1888 40.5,27.5C 39.1667,29.1667 37.8333,30.8333 36.5,32.5C 39.1059,36.6092 42.2726,40.2759 46,43.5C 47.6667,41.8333 49.3333,40.1667 51,38.5C 56.0828,43.0662 58.5828,48.7329 58.5,55.5C 44.1537,49.6636 32.987,39.997 25,26.5C 23.9207,23.9373 23.4207,21.2706 23.5,18.5 Z"/></g>
<g><path style="opacity:0.994" fill="#212121" d="M 22.5,32.5 C 24.0281,32.5173 24.5281,33.184 24,34.5C 14.5301,42.0983 14.0301,50.265 22.5,59C 31.8689,63.403 39.3689,61.2363 45,52.5C 45.458,55.096 44.6246,57.2627 42.5,59C 33.8943,65.3699 25.7276,64.8699 18,57.5C 12.3857,47.8505 13.8857,39.5172 22.5,32.5 Z"/></g>
</svg>
