<svg id="svg" version="1.1" xmlns="http://www.w3.org/2000/svg" xmlns:xlink="http://www.w3.org/1999/xlink" width="400" height="400" viewBox="0, 0, 400,400"><g id="svgg"><path id="path0" d="M44.800 7.977 C 44.470 8.159,43.705 8.539,43.100 8.821 C 42.495 9.104,42.000 9.492,42.000 9.684 C 42.000 9.876,41.640 10.420,41.200 10.892 C 40.760 11.364,40.400 12.156,40.400 12.652 C 40.400 13.147,40.220 13.664,40.000 13.800 C 39.446 14.142,39.446 128.400,40.000 128.400 C 40.220 128.400,40.400 128.940,40.400 129.600 C 40.400 130.260,40.580 130.800,40.800 130.800 C 41.020 130.800,41.200 131.083,41.200 131.429 C 41.200 132.147,42.134 133.200,42.771 133.200 C 43.007 133.200,43.200 133.380,43.200 133.600 C 43.200 133.820,43.545 134.000,43.967 134.000 C 44.388 134.000,44.797 134.191,44.875 134.425 C 45.093 135.078,59.582 135.573,78.876 135.587 C 89.815 135.596,96.042 135.744,96.200 136.000 C 96.336 136.220,96.752 136.403,97.124 136.406 C 98.033 136.415,100.400 138.543,100.400 139.353 C 100.400 139.709,100.580 140.000,100.800 140.000 C 101.053 140.000,101.200 142.933,101.200 148.000 C 101.200 153.067,101.053 156.000,100.800 156.000 C 100.549 156.000,100.400 158.600,100.400 163.000 C 100.400 167.400,100.251 170.000,100.000 170.000 C 99.749 170.000,99.600 172.467,99.600 176.600 C 99.600 180.733,99.451 183.200,99.200 183.200 C 98.963 183.200,98.800 184.667,98.800 186.800 C 98.800 188.933,98.637 190.400,98.400 190.400 C 98.149 190.400,98.000 193.000,98.000 197.400 C 98.000 201.800,97.851 204.400,97.600 204.400 C 97.350 204.400,97.200 206.859,97.200 210.976 C 97.200 214.929,97.040 217.651,96.800 217.800 C 96.559 217.949,96.400 220.730,96.400 224.800 C 96.400 228.870,96.241 231.651,96.000 231.800 C 95.760 231.949,95.600 234.663,95.600 238.600 C 95.600 242.537,95.440 245.251,95.200 245.400 C 94.959 245.549,94.800 248.330,94.800 252.400 C 94.800 256.470,94.641 259.251,94.400 259.400 C 94.159 259.549,94.000 262.337,94.000 266.424 C 94.000 270.459,93.846 273.200,93.618 273.200 C 93.399 273.200,93.155 276.048,93.044 279.900 C 92.448 300.599,91.643 305.200,88.618 305.200 C 88.278 305.200,88.000 305.380,88.000 305.600 C 88.000 305.820,87.460 306.000,86.800 306.000 C 86.140 306.000,85.600 306.180,85.600 306.400 C 85.600 306.664,73.533 306.800,50.200 306.800 C 26.867 306.800,14.800 306.936,14.800 307.200 C 14.800 307.420,14.305 307.613,13.700 307.629 C 10.045 307.726,8.415 310.580,8.407 316.900 C 8.403 319.762,8.244 321.600,8.000 321.600 C 7.737 321.600,7.600 331.600,7.600 350.800 C 7.600 370.000,7.737 380.000,8.000 380.000 C 8.244 380.000,8.400 381.807,8.400 384.621 C 8.400 389.148,9.281 392.385,10.517 392.397 C 10.691 392.399,11.220 392.760,11.692 393.200 C 12.276 393.744,13.104 394.000,14.275 394.000 C 15.224 394.000,16.000 394.180,16.000 394.400 C 16.000 394.666,78.133 394.800,201.600 394.800 C 325.067 394.800,387.200 394.666,387.200 394.400 C 387.200 394.180,387.830 394.000,388.600 394.000 C 389.370 394.000,390.000 393.820,390.000 393.600 C 390.000 393.380,390.278 393.200,390.618 393.200 C 391.418 393.200,393.200 391.418,393.200 390.618 C 393.200 390.278,393.380 390.000,393.600 390.000 C 393.820 390.000,394.000 389.370,394.000 388.600 C 394.000 387.830,394.180 387.200,394.400 387.200 C 394.664 387.200,394.800 374.800,394.800 350.800 C 394.800 326.800,394.664 314.400,394.400 314.400 C 394.180 314.400,394.000 313.680,394.000 312.800 C 394.000 311.920,393.820 311.200,393.600 311.200 C 393.380 311.200,393.200 310.930,393.200 310.600 C 393.200 310.270,393.020 310.000,392.800 310.000 C 392.580 310.000,392.400 309.733,392.400 309.408 C 392.400 309.082,391.950 308.702,391.400 308.564 C 390.850 308.426,390.400 308.153,390.400 307.957 C 390.400 307.760,389.781 307.600,389.024 307.600 C 388.267 307.600,387.536 307.420,387.400 307.200 C 387.238 306.938,375.129 306.800,352.376 306.800 C 329.459 306.800,317.600 306.664,317.600 306.400 C 317.600 306.180,317.060 306.000,316.400 306.000 C 315.740 306.000,315.200 305.820,315.200 305.600 C 315.200 305.380,314.922 305.200,314.582 305.200 C 314.242 305.200,313.522 304.758,312.982 304.218 C 312.442 303.678,312.000 302.958,312.000 302.618 C 312.000 302.278,311.820 302.000,311.600 302.000 C 311.380 302.000,311.200 301.291,311.200 300.424 C 311.200 299.557,311.020 298.736,310.800 298.600 C 310.564 298.454,310.400 296.063,310.400 292.776 C 310.400 289.325,310.248 287.200,310.000 287.200 C 309.749 287.200,309.600 284.733,309.600 280.600 C 309.600 276.467,309.451 274.000,309.200 274.000 C 308.952 274.000,308.800 271.792,308.800 268.175 C 308.800 264.971,308.626 259.796,308.413 256.675 C 307.647 245.458,306.582 224.395,306.174 212.400 C 306.050 208.770,305.781 205.629,305.575 205.420 C 305.369 205.211,305.200 202.027,305.200 198.344 C 305.200 194.311,305.041 191.549,304.800 191.400 C 304.561 191.252,304.400 188.654,304.400 184.950 C 304.400 181.539,304.231 178.432,304.025 178.047 C 303.819 177.662,303.572 174.479,303.477 170.973 C 303.381 167.468,303.206 164.330,303.089 164.000 C 302.414 162.110,301.791 140.576,302.400 140.200 C 302.620 140.064,302.800 139.680,302.800 139.346 C 302.800 138.588,304.946 136.400,305.689 136.400 C 305.992 136.400,306.465 136.175,306.740 135.900 C 307.125 135.515,313.042 135.354,332.487 135.200 C 352.185 135.044,357.770 134.890,357.900 134.500 C 357.992 134.225,358.412 134.000,358.833 134.000 C 359.255 134.000,359.600 133.820,359.600 133.600 C 359.600 133.380,359.960 133.200,360.400 133.200 C 360.900 133.200,361.200 132.933,361.200 132.488 C 361.200 132.097,361.560 131.517,362.000 131.200 C 362.470 130.861,362.800 130.165,362.800 129.512 C 362.800 128.900,362.980 128.400,363.200 128.400 C 363.465 128.400,363.600 109.133,363.600 71.400 C 363.600 33.667,363.465 14.400,363.200 14.400 C 362.980 14.400,362.800 13.792,362.800 13.048 C 362.800 11.334,360.149 8.400,358.600 8.400 C 358.050 8.400,357.600 8.220,357.600 8.000 C 357.600 7.737,347.267 7.600,327.400 7.600 C 307.533 7.600,297.200 7.737,297.200 8.000 C 297.200 8.220,296.747 8.400,296.194 8.400 C 294.777 8.400,292.453 10.670,291.895 12.600 C 291.586 13.665,291.390 19.847,291.307 31.100 C 291.229 41.772,291.039 48.000,290.792 48.000 C 290.576 48.000,290.400 48.540,290.400 49.200 C 290.400 49.860,290.220 50.400,290.000 50.400 C 289.780 50.400,289.600 50.678,289.600 51.018 C 289.600 51.990,287.741 53.600,286.618 53.600 C 286.058 53.600,285.600 53.780,285.600 54.000 C 285.600 54.262,278.267 54.400,264.400 54.400 C 250.533 54.400,243.200 54.262,243.200 54.000 C 243.200 53.780,242.840 53.600,242.400 53.600 C 241.960 53.600,241.600 53.420,241.600 53.200 C 241.600 52.980,241.407 52.800,241.171 52.800 C 239.946 52.800,238.800 50.397,238.800 47.829 C 238.800 46.629,238.620 45.536,238.400 45.400 C 238.145 45.242,238.000 39.669,238.000 29.995 C 238.000 19.701,237.856 14.479,237.550 13.719 C 236.547 11.224,236.150 10.552,235.058 9.500 C 234.348 8.816,233.477 8.400,232.758 8.400 C 232.121 8.400,231.600 8.220,231.600 8.000 C 231.600 7.737,221.333 7.600,201.600 7.600 C 181.867 7.600,171.600 7.737,171.600 8.000 C 171.600 8.220,171.079 8.400,170.442 8.400 C 169.150 8.400,166.800 10.310,166.800 11.360 C 166.800 11.712,166.620 12.000,166.400 12.000 C 166.180 12.000,166.000 12.439,166.000 12.976 C 166.000 13.513,165.820 14.064,165.600 14.200 C 165.345 14.358,165.200 19.796,165.200 29.200 C 165.200 38.604,165.055 44.042,164.800 44.200 C 164.580 44.336,164.400 45.466,164.400 46.712 C 164.400 50.028,163.155 52.386,160.806 53.518 C 158.774 54.497,116.800 54.957,116.800 54.000 C 116.800 53.780,116.524 53.600,116.187 53.600 C 115.063 53.600,112.800 50.936,112.800 49.613 C 112.800 48.946,112.620 48.400,112.400 48.400 C 112.140 48.400,112.000 42.533,112.000 31.600 C 112.000 20.667,111.860 14.800,111.600 14.800 C 111.380 14.800,111.200 14.102,111.200 13.248 C 111.200 11.334,108.658 8.400,107.000 8.400 C 106.450 8.400,106.000 8.220,106.000 8.000 C 106.000 7.508,45.694 7.485,44.800 7.977 M107.392 12.700 C 107.545 13.305,107.635 23.790,107.593 36.000 C 107.551 48.210,107.535 58.426,107.558 58.702 C 107.591 59.102,113.929 59.184,138.500 59.102 L 169.400 59.000 169.600 35.400 L 169.800 11.800 201.156 11.698 C 223.989 11.623,232.660 11.718,233.056 12.047 C 233.503 12.418,233.600 16.650,233.600 35.849 L 233.600 59.200 264.400 59.200 C 281.340 59.200,295.241 59.155,295.292 59.100 C 295.343 59.045,295.478 48.380,295.592 35.400 L 295.800 11.800 327.175 11.698 C 352.010 11.616,358.616 11.700,358.869 12.098 C 359.560 13.187,359.262 130.291,358.567 130.557 C 358.219 130.691,344.069 130.800,327.122 130.800 L 296.309 130.800 296.543 132.500 C 296.672 133.435,296.968 137.890,297.201 142.400 C 297.754 153.087,298.255 162.160,299.015 175.200 C 299.638 185.888,300.093 193.953,300.798 206.800 C 301.240 214.876,301.810 224.838,302.392 234.700 C 302.617 238.495,302.983 244.705,303.208 248.500 C 304.053 262.812,304.844 276.529,305.613 290.200 C 306.393 304.083,306.770 309.424,307.029 310.305 L 307.296 311.211 348.548 311.194 L 389.800 311.178 389.902 350.589 L 390.004 390.000 201.202 390.000 L 12.400 390.000 12.400 350.600 L 12.400 311.200 53.900 311.194 C 76.725 311.191,95.607 311.056,95.860 310.894 C 96.137 310.717,96.422 308.765,96.575 306.000 C 96.715 303.470,96.998 298.520,97.204 295.000 C 97.410 291.480,97.766 285.360,97.995 281.400 C 98.402 274.365,98.761 268.175,99.584 254.000 C 99.808 250.150,100.177 243.760,100.405 239.800 C 100.633 235.840,101.352 223.420,102.004 212.200 C 102.656 200.980,103.375 188.560,103.602 184.600 C 103.829 180.640,104.199 174.250,104.425 170.400 C 104.650 166.550,105.010 160.250,105.224 156.400 C 105.439 152.550,105.785 146.340,105.994 142.600 C 106.203 138.860,106.495 134.675,106.643 133.300 L 106.911 130.800 75.670 130.800 C 45.191 130.800,44.418 130.781,44.014 130.026 C 43.437 128.948,43.437 13.452,44.014 12.374 C 44.418 11.619,45.193 11.600,75.771 11.600 L 107.113 11.600 107.392 12.700 " stroke="none" fill="#f8f9fa" fill-rule="evenodd"></path><path id="path1" d="M44.800 71.198 L 44.800 129.995 75.900 130.098 L 107.000 130.200 106.974 135.200 C 106.960 137.950,106.724 143.800,106.449 148.200 C 106.175 152.600,105.785 159.080,105.584 162.600 C 105.383 166.120,105.037 172.150,104.814 176.000 C 104.591 179.850,104.239 186.060,104.031 189.800 C 103.134 205.945,102.802 211.811,102.414 218.400 C 102.187 222.250,101.289 237.730,100.418 252.800 C 99.547 267.870,98.649 283.260,98.421 287.000 C 98.194 290.740,97.811 297.490,97.571 302.000 C 97.331 306.510,96.973 310.605,96.776 311.100 L 96.417 312.000 54.809 312.000 L 13.200 312.000 13.200 350.800 L 13.200 389.600 201.400 389.600 L 389.600 389.600 389.600 350.800 L 389.600 312.000 348.500 311.994 C 305.075 311.987,306.568 312.051,306.296 310.199 L 306.120 309.000 306.060 310.300 L 306.000 311.600 202.700 311.544 C 145.885 311.513,101.290 311.352,103.600 311.186 C 108.115 310.862,119.845 310.367,160.200 308.799 C 171.733 308.351,184.222 307.859,201.000 307.191 C 206.720 306.963,220.670 306.420,232.000 305.983 C 243.330 305.547,257.010 305.014,262.400 304.800 C 267.790 304.585,277.060 304.229,283.000 304.008 C 288.940 303.787,296.361 303.487,299.491 303.343 L 305.181 303.080 305.601 304.040 C 305.969 304.881,305.993 304.827,305.792 303.600 C 305.666 302.830,305.398 299.320,305.195 295.800 C 304.993 292.280,304.641 286.295,304.414 282.500 C 303.060 259.918,301.875 239.309,301.200 226.600 C 300.293 209.518,298.088 171.913,297.204 158.438 C 296.982 155.049,296.800 151.719,296.800 151.038 L 296.800 149.800 294.500 149.790 C 293.235 149.784,290.220 149.559,287.800 149.290 C 285.380 149.021,281.690 148.627,279.600 148.414 C 277.510 148.201,274.000 147.836,271.800 147.602 C 269.600 147.368,264.380 146.824,260.200 146.394 C 253.234 145.678,226.391 142.884,212.400 141.420 C 207.390 140.896,199.611 140.099,182.600 138.367 C 180.400 138.143,176.980 137.788,175.000 137.578 C 173.020 137.368,169.600 137.013,167.400 136.789 C 157.998 135.831,155.983 135.623,152.000 135.198 C 149.690 134.951,146.090 134.586,144.000 134.386 C 139.865 133.992,134.247 133.421,128.600 132.822 C 126.620 132.612,123.110 132.249,120.800 132.017 C 113.306 131.261,110.619 130.889,109.600 130.466 C 108.905 130.177,137.070 130.073,202.000 130.125 L 295.400 130.200 295.621 132.600 L 295.842 135.000 296.021 132.600 L 296.200 130.200 327.300 130.098 L 358.400 129.995 358.400 71.198 L 358.400 12.400 327.403 12.400 L 296.406 12.400 296.303 35.900 L 296.200 59.400 264.503 59.502 L 232.806 59.605 232.703 36.102 L 232.600 12.600 201.600 12.600 L 170.600 12.600 170.400 36.000 L 170.200 59.400 138.600 59.400 L 107.000 59.400 106.897 35.900 L 106.794 12.400 75.797 12.400 L 44.800 12.400 44.800 71.198 M296.093 139.400 C 296.086 140.500,296.214 142.930,296.378 144.800 L 296.676 148.200 296.703 144.800 C 296.718 142.930,296.590 140.500,296.418 139.400 L 296.107 137.400 296.093 139.400 " stroke="none" fill="#4c93bc" fill-rule="evenodd"></path><path id="path2" d="M44.014 12.374 C 43.360 13.596,43.444 129.235,44.100 130.127 C 44.564 130.759,46.821 130.800,75.800 130.701 L 107.000 130.595 75.700 130.498 L 44.400 130.400 44.400 71.195 L 44.400 11.990 75.800 12.095 C 93.070 12.153,107.200 12.065,107.200 11.900 C 107.200 11.098,44.445 11.569,44.014 12.374 M169.787 12.100 C 169.684 12.375,169.555 23.040,169.500 35.800 L 169.400 59.000 138.600 59.204 L 107.800 59.407 138.400 59.498 C 155.230 59.547,169.224 59.446,169.497 59.272 C 169.881 59.028,170.017 53.671,170.097 35.578 L 170.200 12.200 201.500 12.098 C 218.715 12.041,232.841 12.041,232.892 12.098 C 232.943 12.154,233.080 22.820,233.198 35.800 L 233.413 59.400 233.506 35.980 C 233.577 18.192,233.485 12.445,233.120 12.080 C 232.406 11.366,170.055 11.386,169.787 12.100 M295.790 12.100 C 295.475 12.956,295.383 59.200,295.697 59.200 C 295.860 59.200,296.040 48.625,296.097 35.700 L 296.200 12.200 327.400 12.200 L 358.600 12.200 358.600 71.200 L 358.600 130.200 327.405 130.400 C 297.938 130.589,296.207 130.639,296.146 131.308 C 296.101 131.803,296.138 131.833,296.270 131.408 C 296.437 130.871,300.047 130.800,327.197 130.800 C 344.102 130.800,358.219 130.691,358.567 130.557 C 359.213 130.309,359.597 13.899,358.957 12.233 C 358.631 11.382,296.104 11.250,295.790 12.100 M107.386 33.000 C 107.386 44.220,107.437 48.868,107.500 43.328 C 107.562 37.788,107.562 28.608,107.500 22.928 C 107.437 17.248,107.386 21.780,107.386 33.000 M249.100 59.500 C 257.515 59.560,271.285 59.560,279.700 59.500 C 288.115 59.440,281.230 59.390,264.400 59.390 C 247.570 59.390,240.685 59.440,249.100 59.500 M296.531 135.400 C 296.533 136.940,296.605 137.521,296.692 136.691 C 296.779 135.861,296.777 134.601,296.689 133.891 C 296.600 133.181,296.529 133.860,296.531 135.400 M106.258 136.850 C 106.116 138.207,106.027 141.046,106.060 143.159 C 106.112 146.538,106.158 146.257,106.441 140.814 C 106.776 134.349,106.697 132.645,106.258 136.850 M296.942 141.800 C 296.941 143.780,297.008 144.640,297.092 143.712 C 297.176 142.784,297.177 141.164,297.095 140.112 C 297.012 139.060,296.943 139.820,296.942 141.800 M297.350 149.800 C 297.351 152.220,297.416 153.158,297.496 151.885 C 297.576 150.612,297.575 148.632,297.494 147.485 C 297.414 146.338,297.349 147.380,297.350 149.800 M105.714 149.400 C 105.717 150.500,105.795 150.903,105.887 150.295 C 105.979 149.686,105.977 148.786,105.882 148.295 C 105.787 147.803,105.711 148.300,105.714 149.400 M105.353 156.200 C 105.353 158.840,105.418 159.868,105.497 158.484 C 105.575 157.101,105.574 154.941,105.495 153.684 C 105.416 152.428,105.352 153.560,105.353 156.200 M297.640 157.633 C 297.662 159.485,297.823 162.530,297.999 164.400 C 298.225 166.796,298.258 165.851,298.111 161.200 C 297.894 154.282,297.571 151.847,297.640 157.633 M104.636 166.600 C 104.484 169.680,104.195 174.630,103.994 177.600 C 103.574 183.819,103.174 194.987,103.414 193.800 C 103.504 193.360,103.765 189.490,103.995 185.200 C 104.225 180.910,104.604 173.929,104.836 169.687 C 105.068 165.444,105.180 161.754,105.085 161.487 C 104.990 161.219,104.788 163.520,104.636 166.600 M298.506 171.000 C 298.491 172.760,298.614 175.730,298.778 177.600 C 299.068 180.912,299.077 180.933,299.091 178.400 C 299.099 176.970,298.977 174.000,298.819 171.800 L 298.532 167.800 298.506 171.000 M299.313 185.600 C 299.306 187.470,299.429 190.260,299.587 191.800 L 299.874 194.600 299.895 192.000 C 299.906 190.570,299.783 187.780,299.621 185.800 L 299.327 182.200 299.313 185.600 M102.663 200.939 C 102.488 204.425,102.428 207.361,102.530 207.463 C 102.781 207.714,103.317 197.308,103.131 195.800 C 103.049 195.140,102.839 197.453,102.663 200.939 M300.106 200.200 C 300.096 201.960,300.221 204.480,300.385 205.800 L 300.682 208.200 300.692 205.400 C 300.697 203.860,300.571 201.340,300.413 199.800 L 300.126 197.000 300.106 200.200 M101.852 214.734 C 101.678 218.328,101.620 221.354,101.725 221.458 C 101.977 221.710,102.529 210.481,102.327 209.200 C 102.240 208.650,102.027 211.140,101.852 214.734 M300.905 214.200 C 300.895 215.960,301.021 218.480,301.185 219.800 L 301.482 222.200 301.501 220.000 C 301.512 218.790,301.386 216.270,301.222 214.400 L 300.924 211.000 300.905 214.200 M101.030 228.523 C 100.856 232.001,100.804 234.937,100.914 235.047 C 101.175 235.309,101.741 223.996,101.518 222.978 C 101.424 222.550,101.204 225.046,101.030 228.523 M301.702 227.800 C 301.689 229.340,301.814 232.130,301.978 234.000 L 302.276 237.400 302.298 234.600 C 302.311 233.060,302.186 230.270,302.022 228.400 L 301.724 225.000 301.702 227.800 M100.234 242.320 C 100.054 245.687,99.999 248.533,100.111 248.645 C 100.378 248.911,100.933 238.503,100.722 237.200 C 100.633 236.650,100.413 238.954,100.234 242.320 M302.502 241.600 C 302.489 243.250,302.614 246.130,302.778 248.000 L 303.076 251.400 303.098 248.400 C 303.111 246.750,302.986 243.870,302.822 242.000 L 302.524 238.600 302.502 241.600 M99.441 256.062 C 99.258 258.846,99.194 261.366,99.299 261.662 C 99.556 262.390,100.112 254.160,99.924 252.400 C 99.842 251.630,99.624 253.278,99.441 256.062 M303.304 255.000 C 303.294 256.540,303.417 259.420,303.579 261.400 L 303.873 265.000 303.897 262.000 C 303.910 260.350,303.786 257.470,303.622 255.600 L 303.324 252.200 303.304 255.000 M98.641 270.118 C 98.455 272.932,98.396 275.329,98.512 275.445 C 98.803 275.737,99.302 268.553,99.125 266.600 C 99.046 265.720,98.828 267.303,98.641 270.118 M304.109 268.800 C 304.099 270.230,304.220 273.110,304.380 275.200 L 304.671 279.000 304.683 275.600 C 304.690 273.730,304.568 270.850,304.412 269.200 L 304.129 266.200 304.109 268.800 M97.843 283.921 C 97.659 286.847,97.601 289.334,97.714 289.447 C 97.993 289.727,98.510 281.748,98.326 280.000 C 98.245 279.230,98.028 280.994,97.843 283.921 M305.089 286.400 C 305.203 289.590,305.366 292.275,305.449 292.367 C 305.709 292.654,305.522 285.926,305.193 283.200 C 304.992 281.531,304.954 282.676,305.089 286.400 M97.021 298.117 C 96.845 301.372,96.795 304.128,96.908 304.242 C 97.177 304.510,97.743 293.996,97.514 292.977 C 97.419 292.550,97.197 294.863,97.021 298.117 M305.700 297.000 C 305.693 298.100,305.821 300.080,305.985 301.400 L 306.282 303.800 306.302 301.600 C 306.312 300.390,306.184 298.410,306.017 297.200 L 305.713 295.000 305.700 297.000 M96.474 308.457 C 96.420 310.098,96.227 310.781,95.767 310.957 C 95.419 311.091,76.519 311.200,53.767 311.200 L 12.400 311.200 12.400 350.600 C 12.400 387.869,12.438 389.998,13.100 389.968 C 13.518 389.950,13.599 389.856,13.300 389.735 C 12.905 389.576,12.800 381.366,12.800 350.567 L 12.800 311.600 54.351 311.600 C 101.057 311.600,96.945 311.917,96.696 308.332 L 96.548 306.200 96.474 308.457 M306.432 309.051 C 306.414 309.980,306.635 310.897,306.936 311.147 C 307.564 311.668,390.069 312.008,389.896 311.489 C 389.839 311.318,371.218 311.185,348.515 311.194 L 307.238 311.211 306.986 309.705 C 306.601 307.404,306.466 307.245,306.432 309.051 " stroke="none" fill="#accce2" fill-rule="evenodd"></path><path id="path3" d="M109.600 130.466 C 110.619 130.889,113.308 131.261,120.800 132.017 C 123.110 132.249,126.620 132.612,128.600 132.822 C 134.247 133.421,139.865 133.992,144.000 134.386 C 146.090 134.586,149.690 134.951,152.000 135.198 C 155.983 135.623,157.998 135.831,167.400 136.789 C 169.600 137.013,173.020 137.368,175.000 137.578 C 176.980 137.788,180.400 138.143,182.600 138.367 C 199.611 140.099,207.390 140.896,212.400 141.420 C 226.391 142.884,253.234 145.678,260.200 146.394 C 264.380 146.824,269.600 147.368,271.800 147.602 C 274.000 147.836,277.510 148.201,279.600 148.414 C 281.690 148.627,285.380 149.018,287.800 149.283 C 290.220 149.548,293.190 149.773,294.400 149.782 L 296.600 149.800 296.542 148.509 C 296.238 141.733,295.506 130.571,295.349 130.318 C 295.241 130.143,253.178 130.011,201.876 130.025 C 137.006 130.043,108.905 130.177,109.600 130.466 M297.600 303.427 C 297.270 303.501,291.240 303.757,284.200 303.997 C 277.160 304.236,267.260 304.599,262.200 304.803 C 257.140 305.008,243.550 305.538,232.000 305.982 C 220.450 306.427,206.410 306.974,200.800 307.198 C 187.638 307.725,173.733 308.274,160.200 308.799 C 119.845 310.367,108.115 310.862,103.600 311.186 C 101.290 311.352,145.885 311.513,202.700 311.544 L 306.000 311.600 306.000 308.426 C 306.000 303.311,305.901 303.191,301.710 303.246 C 299.779 303.272,297.930 303.353,297.600 303.427 " stroke="none" fill="#2676ac" fill-rule="evenodd"></path><path id="path4" d="M44.400 71.198 L 44.400 130.400 75.567 130.400 C 96.452 130.400,106.800 130.535,106.937 130.810 C 107.049 131.036,107.094 130.991,107.037 130.710 C 106.954 130.303,100.660 130.179,75.867 130.098 L 44.800 129.995 44.800 71.198 L 44.800 12.400 75.797 12.400 L 106.794 12.400 106.897 35.867 C 106.987 56.328,107.077 59.354,107.600 59.497 C 108.041 59.617,108.068 59.568,107.703 59.309 C 107.319 59.037,107.183 53.647,107.103 35.578 L 107.000 12.200 75.700 12.098 L 44.400 11.995 44.400 71.198 M170.267 12.267 C 170.120 12.413,170.000 23.018,170.000 35.833 C 170.000 51.347,169.863 59.201,169.590 59.337 C 169.365 59.449,169.410 59.494,169.690 59.437 C 170.094 59.355,170.242 54.457,170.400 35.967 L 170.600 12.600 201.600 12.600 L 232.600 12.600 232.703 36.100 C 232.800 58.148,232.849 59.598,233.503 59.568 C 233.921 59.549,234.000 59.456,233.700 59.335 C 233.308 59.177,233.200 54.172,233.200 36.199 C 233.200 23.586,233.091 12.981,232.957 12.633 C 232.704 11.972,170.922 11.612,170.267 12.267 M296.269 12.264 C 296.121 12.412,296.000 23.020,296.000 35.837 C 296.000 57.686,295.956 59.154,295.300 59.348 C 294.756 59.508,294.778 59.536,295.400 59.472 C 296.189 59.390,296.201 59.057,296.303 35.895 L 296.406 12.400 327.403 12.400 L 358.400 12.400 358.400 71.200 L 358.400 130.000 327.424 130.000 C 310.387 130.000,296.364 130.135,296.262 130.300 C 296.160 130.465,310.144 130.510,327.338 130.400 L 358.600 130.200 358.600 71.200 L 358.600 12.200 327.569 12.098 C 310.502 12.041,296.417 12.116,296.269 12.264 M296.134 134.800 C 296.134 136.450,296.205 137.125,296.291 136.300 C 296.378 135.475,296.378 134.125,296.291 133.300 C 296.205 132.475,296.134 133.150,296.134 134.800 M106.649 137.921 C 106.462 140.847,106.401 143.335,106.515 143.448 C 106.808 143.741,107.296 136.558,107.129 134.400 C 107.053 133.410,106.837 134.994,106.649 137.921 M296.501 139.400 C 296.505 140.280,296.587 140.593,296.683 140.095 C 296.779 139.598,296.775 138.878,296.675 138.495 C 296.575 138.113,296.496 138.520,296.501 139.400 M296.845 149.433 C 296.869 151.835,297.030 155.510,297.201 157.600 C 297.407 160.117,297.443 158.698,297.307 153.400 C 297.194 149.000,297.034 145.325,296.951 145.233 C 296.868 145.142,296.820 147.032,296.845 149.433 M105.852 151.227 C 105.666 153.772,105.592 156.202,105.688 156.627 C 105.944 157.764,106.488 150.938,106.328 148.600 C 106.231 147.194,106.090 147.974,105.852 151.227 M105.074 165.540 C 104.894 168.257,104.832 170.566,104.937 170.670 C 105.240 170.973,105.675 165.212,105.531 162.800 C 105.438 161.241,105.305 162.039,105.074 165.540 M297.707 164.600 C 297.697 166.140,297.820 169.110,297.980 171.200 L 298.271 175.000 298.296 171.800 C 298.309 170.040,298.186 167.070,298.022 165.200 L 297.724 161.800 297.707 164.600 M104.281 179.348 C 104.105 181.959,104.044 184.178,104.146 184.279 C 104.459 184.593,104.866 179.527,104.729 177.000 C 104.627 175.097,104.534 175.582,104.281 179.348 M298.507 177.800 C 298.497 179.340,298.620 182.310,298.780 184.400 L 299.071 188.200 299.096 185.000 C 299.109 183.240,298.986 180.270,298.822 178.400 L 298.524 175.000 298.507 177.800 M103.467 193.538 C 103.289 196.474,103.228 198.961,103.331 199.065 C 103.595 199.328,104.104 191.302,103.932 189.600 C 103.854 188.830,103.645 190.602,103.467 193.538 M299.494 195.400 C 299.608 198.700,299.768 201.475,299.850 201.567 C 300.102 201.847,299.920 195.173,299.594 192.200 C 299.399 190.421,299.363 191.587,299.494 195.400 M102.598 207.699 C 102.441 210.640,102.390 213.396,102.486 213.823 C 102.581 214.250,102.803 211.937,102.979 208.683 C 103.155 205.428,103.205 202.672,103.092 202.558 C 102.978 202.444,102.756 204.758,102.598 207.699 M300.314 210.000 C 300.422 213.410,300.576 216.275,300.656 216.367 C 300.912 216.663,300.723 208.677,300.415 206.200 C 300.242 204.814,300.200 206.418,300.314 210.000 M101.796 221.737 C 101.637 224.918,101.592 227.764,101.696 228.061 C 101.799 228.357,102.021 225.846,102.188 222.480 C 102.356 219.113,102.401 216.268,102.289 216.156 C 102.177 216.044,101.955 218.555,101.796 221.737 M301.118 224.400 C 301.224 228.030,301.376 231.075,301.456 231.167 C 301.712 231.463,301.523 222.677,301.219 220.200 C 301.055 218.861,301.010 220.719,301.118 224.400 M100.998 235.298 C 100.840 238.458,100.787 241.393,100.879 241.822 C 100.972 242.250,101.188 239.751,101.360 236.269 C 101.532 232.788,101.585 229.852,101.479 229.745 C 101.373 229.639,101.156 232.138,100.998 235.298 M301.731 234.200 C 301.733 235.740,301.805 236.321,301.892 235.491 C 301.979 234.661,301.977 233.401,301.889 232.691 C 301.800 231.981,301.729 232.660,301.731 234.200 M302.148 241.200 C 302.148 243.510,302.214 244.455,302.295 243.300 C 302.376 242.145,302.376 240.255,302.295 239.100 C 302.214 237.945,302.148 238.890,302.148 241.200 M100.200 248.876 C 100.044 251.804,99.987 254.650,100.073 255.200 C 100.159 255.750,100.372 253.439,100.546 250.065 C 100.720 246.690,100.778 243.844,100.674 243.740 C 100.570 243.636,100.357 245.947,100.200 248.876 M302.626 250.400 C 302.835 256.335,303.539 268.513,304.013 274.400 L 304.352 278.600 304.173 273.400 C 303.966 267.379,303.286 255.672,302.792 249.600 L 302.449 245.400 302.626 250.400 M99.488 260.960 C 99.330 262.699,99.226 265.399,99.258 266.960 C 99.302 269.110,99.400 268.536,99.660 264.600 C 100.049 258.718,99.928 256.148,99.488 260.960 M98.670 274.601 C 98.525 276.141,98.431 279.110,98.463 281.200 C 98.512 284.511,98.562 284.202,98.850 278.800 C 99.202 272.193,99.107 269.974,98.670 274.601 M304.452 282.233 C 304.481 284.195,304.641 287.150,304.807 288.800 C 304.997 290.684,305.034 289.418,304.905 285.400 C 304.792 281.880,304.633 278.925,304.550 278.833 C 304.468 278.742,304.424 280.272,304.452 282.233 M98.114 287.400 C 98.117 288.500,98.195 288.903,98.287 288.295 C 98.379 287.686,98.377 286.786,98.282 286.295 C 98.187 285.803,98.111 286.300,98.114 287.400 M97.504 295.800 C 96.987 307.012,96.705 310.587,96.298 311.100 C 95.986 311.494,87.114 311.600,54.351 311.600 L 12.800 311.600 12.898 350.700 L 12.996 389.800 13.100 350.900 L 13.204 312.000 54.811 312.000 L 96.417 312.000 96.778 311.100 C 97.220 309.995,98.137 294.635,97.942 291.600 C 97.864 290.390,97.667 292.280,97.504 295.800 M305.235 295.833 C 305.254 297.795,305.412 300.300,305.585 301.400 C 305.776 302.615,305.819 301.280,305.694 298.000 C 305.460 291.830,305.183 290.524,305.235 295.833 M306.134 306.400 C 306.134 308.050,306.205 308.725,306.291 307.900 C 306.378 307.075,306.378 305.725,306.291 304.900 C 306.205 304.075,306.134 304.750,306.134 306.400 M306.400 311.108 C 306.400 311.952,308.663 312.000,348.633 312.000 L 389.600 312.000 389.600 350.800 L 389.600 389.599 201.700 389.700 L 13.800 389.801 201.800 389.801 L 389.800 389.800 389.800 350.800 L 389.800 311.800 348.639 311.698 C 319.032 311.625,307.326 311.471,306.939 311.149 C 306.601 310.869,306.400 310.854,306.400 311.108 " stroke="none" fill="#8db6d4" fill-rule="evenodd"></path></g></svg>