<?xml version="1.0"?>
<svg width="800" height="800" xmlns="http://www.w3.org/2000/svg" xmlns:svg="http://www.w3.org/2000/svg" preserveAspectRatio="xMidYMid meet" version="1.0">
 <g class="layer">
  <title>Layer 1</title>
  <g fill="#070707" id="layer101">
   <path d="m380,615l0,-45l-95,0l-95,0l0,-38c0,-32 16,-62 100,-185c97,-142 102,-147 135,-147l35,0l0,145l0,145l30,0c28,0 30,2 30,40c0,38 -2,40 -30,40c-29,0 -30,2 -30,45l0,45l-40,0l-40,0l0,-45zm0,-202l0,-78l-33,50c-19,28 -42,62 -52,78l-17,27l51,0l51,0l0,-77z" fill="#ffffff" id="svg_1"/>
   <path d="m560,605c0,-4 19,-32 41,-65l42,-58l-42,-59l-41,-58l37,-3c37,-3 46,3 73,48c8,12 14,9 35,-17c21,-26 34,-33 61,-33c19,0 34,2 34,5c0,3 -18,30 -40,60l-40,54l40,57c22,32 40,61 40,66c0,4 -15,8 -34,8c-28,0 -38,-6 -56,-35c-12,-19 -25,-35 -28,-35c-4,0 -17,16 -30,35c-18,29 -28,35 -57,35c-19,0 -35,-2 -35,-5z" fill="#ffffff" id="svg_2"/>
  </g>
  <g fill="#9f9f9f" id="layer102">
   <path d="m463,615c0,-27 2,-38 4,-22c2,15 2,37 0,50c-2,12 -4,0 -4,-28z" id="svg_3"/>
   <path d="m464,345c0,-82 2,-115 3,-72c2,43 2,110 0,150c-1,40 -3,5 -3,-78z" id="svg_4"/>
  </g>
 </g>
</svg>