<svg id="Layer_1" data-name="Layer 1" xmlns="http://www.w3.org/2000/svg" viewBox="0 0 432 432"><defs><style>.cls-1 { fill: #fff; }</style></defs><title>Chicago</title><g><path d="M378.845,364.95313c-.9707-.707-24.03467-17.36816-46.19238-21.58789-13.42627-2.55957-24.73242,2.16309-35.66895,6.72754-8.209,3.42773-15.96289,6.665-24.3501,6.77246-12.32556.12915-14.88391-6.03259-16.15613-20.0564,14.24573-1.45959,24.805-3.02832,25.62-3.15063a6.49909,6.49909,0,0,0,5.22852-8.40137L271.93329,276.962c19.90338-18.57092,30.36774-41.92639,30.36774-68.09778,0-29.20117-13.95605-61.34473-41.481-95.53809a335.47009,335.47009,0,0,0-32.84888-35.14893c.23071-.197.47021-.38031.6936-.58838a20.68922,20.68922,0,1,0-27.66638.44788,335.51311,335.51311,0,0,0-31.97375,34.33533c-27.52441,34.19336-41.48047,66.33691-41.48047,95.53809,0,25.01331,9.55658,47.45447,27.77722,65.60474l-13.75867,52.05444a6.50007,6.50007,0,0,0,5.26221,8.08008c.84119.13428,12.686,1.99963,28.38074,3.56079-1.40082,11.87439-4.44751,17.17139-15.83923,16.98706-8.38721-.10742-16.1416-3.34473-24.35059-6.77246-10.93506-4.56543-22.24219-9.28613-35.66846-6.72852C77.1897,344.917,54.12622,361.57715,53.155,362.28418a6.4996,6.4996,0,0,0-1.56738,8.88086L68.9314,396.959a6.50069,6.50069,0,0,0,4.56348,2.81934,6.42929,6.42929,0,0,0,.83105.05371,6.50033,6.50033,0,0,0,4.29785-1.624c3.978-3.50684,16.55273-12.60742,26.83154-12.60742,5.10156,0,10.92188,2.249,17.66064,4.85352,10.21143,3.94531,22.92236,8.88574,39.6958,8.49121,25.08545-.5459,46.21143-14.5791,52.56836-34.92187.08179-.26172.15875-.52563.23816-.78833q.46829,1.73712,1.00159,3.4563c6.35693,20.34375,27.48242,34.37793,52.56836,34.92188,16.791.377,29.48486-4.54492,39.69531-8.49121,6.73926-2.60352,12.55908-4.85254,17.66064-4.85254,10.21387,0,22.83691,9.10449,26.832,12.60645a6.50085,6.50085,0,0,0,9.69238-1.249l17.34375-25.793A6.4996,6.4996,0,0,0,378.845,364.95313ZM159.01154,310.42725c9.94391,1.396,33.83551,4.41064,54.74359,4.41064,20.13062,0,44.1051-2.79272,55.251-4.25073l3.58643,11.25269c-7.6507.99036-20.24579,2.47461-33.79358,3.46716-5.95685.4364-12.09521.77649-18.08185.9386-2.46967.06689-4.91449.105-7.30768.105-.33118,0-.66492-.00269-.99744-.00415-11.15839-.04614-23.02765-.85791-33.45361-1.8479-9.32812-.88574-17.49976-1.91272-22.9635-2.65771Zm82.15375-147.61084a6.5,6.5,0,0,1,0,13h-18.959v32.46777a6.5,6.5,0,0,1-13,0V175.81641h-18.959a6.5,6.5,0,0,1,0-13h18.959V143.33789a6.5,6.5,0,0,1,13,0v19.47852Zm-27.76807,77.626a6.50035,6.50035,0,0,1,10.207.2998l22.4234,30.24268c-4.355.63257-9.4032,1.23242-14.95288,1.65894l-12.99933-17.53247-14.84155,17.74243c-5.36743-.343-10.739-.86694-15.73407-1.45251Zm-41.80835,46.54956c.85.10083,1.71954.20215,2.61487.304,2.30615.262,4.75049.52417,7.30231.776,2.69147.26563,5.49927.51819,8.373.74719,4.63446.36938,9.44067.67407,14.23187.86023,3.24921.12622,6.48981.19958,9.65985.19958,4.8233,0,9.86963-.167,14.90289-.43823,4.78345-.25769,9.55072-.61035,14.10761-1.0083,2.84674-.24854,5.6073-.51392,8.23706-.78491,2.39362-.24658,4.67773-.49683,6.81335-.74219.77649-.08936,1.53851-.178,2.27417-.26538.41766-.04956.81732-.09814,1.22095-.147l2.86566,8.99109,1.15479,3.62317c-3.81116.47876-8.4198,1.01855-13.5108,1.53809-6.221.63489-13.15314,1.23657-20.22577,1.65576-3.73462.22119-7.50354.38989-11.22748.48608-2.22681.05762-4.43848.0918-6.61243.0918-1.90363,0-3.82617-.02588-5.75537-.07056-2.16925-.05-4.3465-.12646-6.51831-.22437-7.56531-.34058-15.0448-.94141-21.78369-1.6123-5.16315-.51392-9.88989-1.06738-13.87732-1.575-1.34814-.17163-2.61029-.33765-3.7782-.49512l3.35144-12.68005C167.27393,286.46558,169.35126,286.72607,171.58887,286.99194Z"/><path class="cls-1" d="M218.57349,238.11621a6.52146,6.52146,0,0,0-5.17627,2.32617l-25.8974,30.95886c4.99506.58557,10.36664,1.1095,15.73407,1.45251l14.84155-17.74243,12.99933,17.53247c5.54968-.42651,10.5979-1.02637,14.95288-1.65894l-22.4234-30.24268A6.50083,6.50083,0,0,0,218.57349,238.11621Z"/><path class="cls-1" d="M215.7063,136.83789a6.5,6.5,0,0,0-6.5,6.5v19.47852h-18.959a6.5,6.5,0,0,0,0,13h18.959v32.46777a6.5,6.5,0,0,0,13,0V175.81641h18.959a6.5,6.5,0,0,0,0-13h-18.959V143.33789A6.5,6.5,0,0,0,215.7063,136.83789Z"/><path class="cls-1" d="M174.20374,287.2959c-.89532-.10181-1.76489-.20312-2.61487-.304-2.23761-.26587-4.31494-.52637-6.17957-.77039l-3.35144,12.68005c1.16791.15747,2.43005.32349,3.7782.49512,3.98743.50757,8.71417,1.061,13.87732,1.575,6.73889.6709,14.21838,1.27173,21.78369,1.6123,2.17181.0979,4.34906.17432,6.51831.22437,1.9292.04468,3.85175.07056,5.75537.07056,2.174,0,4.38562-.03418,6.61243-.0918,3.72394-.09619,7.49286-.26489,11.22748-.48608,7.07263-.41919,14.00476-1.02087,20.22577-1.65576,5.091-.51953,9.69965-1.05933,13.5108-1.53809l-1.15479-3.62317-2.86566-8.99109c-.40363.04883-.80328.09741-1.22095.147-.73566.0874-1.49768.176-2.27417.26538-2.13562.24536-4.41974.49561-6.81335.74219-2.62976.271-5.39032.53638-8.23706.78491-4.55688.39795-9.32416.75061-14.10761,1.0083-5.03326.27124-10.07959.43823-14.90289.43823-3.17,0-6.41064-.07336-9.65985-.19958-4.7912-.18616-9.59741-.49084-14.23187-.86023-2.87372-.229-5.68152-.48157-8.373-.74719C178.95422,287.82007,176.50989,287.55786,174.20374,287.2959Z"/><path class="cls-1" d="M213.75513,314.83789c-20.90808,0-44.79968-3.01465-54.74359-4.41064l-3.01666,11.41357c5.46375.745,13.63538,1.772,22.9635,2.65771,10.426.99,22.29523,1.80176,33.45361,1.8479.33252.00146.66626.00415.99744.00415,2.39319,0,4.838-.03809,7.30768-.105,5.98663-.16211,12.125-.5022,18.08185-.9386,13.54779-.99255,26.14288-2.47681,33.79358-3.46716l-3.58643-11.25269C257.86023,312.04517,233.88574,314.83789,213.75513,314.83789Z"/></g></svg>