<svg id="Layer_1" data-name="Layer 1" xmlns="http://www.w3.org/2000/svg" viewBox="0 0 432 432"><defs><style>.cls-1 { fill: #fff; }</style></defs><title>Chicago</title><g><path d="M256.65314,396.33887c2.21881-2.968,4.24457-6.006,6.26849-8.99683,1.94824-3.04175,3.83954-6.07581,5.58917-9.17993a130.13251,130.13251,0,0,0,8.90881-19.46814c1.233-3.41052,2.30042-6.92078,3.2771-10.55554.48187-1.80493.93213-3.63135,1.34692-5.50366-.18359.06458-.36566.13354-.54962.19714-3.0672,1.02637-6.16473,1.98962-9.3338,2.717q-2.3714.56744-4.78857,1.02454c-.80676.15247-1.61725.30359-2.444.42578l-1.25189.17444-1.37714.1593a6.37591,6.37591,0,0,1-5.41559-10.66052l.19965-.21411c2.55554-2.7417,4.9646-5.61438,7.309-8.54565q3.47617-4.42914,6.60693-9.15063a172.77035,172.77035,0,0,0,11.25714-19.83972c3.33832-6.91541,6.35144-14.07361,9.12921-21.4198,1.86639-4.89417,3.6012-9.8833,5.38788-14.90759-.62378.29785-1.24835.5946-1.88354.87109a62.87013,62.87013,0,0,1-10.22913,3.38416,54.46567,54.46567,0,0,1-5.3728.97375c-.91266.11267-1.83105.21045-2.76886.27551-.47052.03064-.941.06091-1.429.075l-.7442.01685-.39484.00085-.48328-.01172a5.108,5.108,0,0,1-4.67242-6.85242l.16168-.43372a229.63382,229.63382,0,0,0,12.84607-51.86169c.36035-2.191.47009-4.40369.65314-6.6095l.26111-3.30945c.0838-1.10327.19971-2.20532.19305-3.31128l.18488-6.62878.04852-1.65747-.048-1.65576-.09406-3.31189-.09131-3.3125c-.0036-1.10632-.15979-2.20166-.22058-3.3042-.17676-2.20056-.31793-4.40662-.51886-6.60669l-.869-6.57117-.21375-1.64441-.29272-1.63147-.5838-3.2655a177.80725,177.80725,0,0,0-6.79736-25.70874,193.30924,193.30924,0,0,0-10.64783-24.60229A201.99246,201.99246,0,0,0,248.73542,82.73a191.06406,191.06406,0,0,0-14.261-18.14319c-9.1842,45.26752-31.87091,78.53741-49.43964,98.57916a209.68429,209.68429,0,0,1-32.98669,30.64551,98.29085,98.29085,0,0,1,14.675,17.63c-.41858.0769-.82458.15759-1.24738.23328a40.55909,40.55909,0,0,0-8.053,2.32886c-17.6875-26.27222-50.43042-40.21729-64.31641-45.175,3.04163-2.90161,5.57635-5.4353,6.802-6.92334.06531-.07935.149-.1853.22131-.27466a213.18725,213.18725,0,0,1,21.58093,10.33813,151.987,151.987,0,0,1,21.81018,14.40735,195.655,195.655,0,0,0,33.49988-30.756C191.7057,138.808,210.18,112.22729,220.2403,76.68817c.55347-1.95526,1.07288-3.94617,1.57343-5.95551.08112-.32568.16437-.64929.24408-.97638q1.05734-4.34116,1.94281-8.84259L212.796,37.14063a8.71745,8.71745,0,0,0-8.48682-4.68848,8.59938,8.59938,0,0,0-3.83246,1.3064,8.94927,8.94927,0,0,0-4.2373,5.18237l-3.5733,11.60364L179.78529,35.08789c-.03076-.03711-.062-.07422-.09326-.11035a10.17439,10.17439,0,0,0-17.17426,4.13574l-8.16309,30.78125c-.00244.00928-.00256.01849-.00494.02777a37.14665,37.14665,0,0,0-15.2373,9.79547c-8.04657,8.9563-12.68457,23.90582-14.31158,29.94092-.17914.61987-.33453,1.17944-.47131,1.68469-4.09882,5.74963-27.64191,38.74084-32.14044,44.20447-3.20215,3.8877-19.62988,18.65527-25.68994,24.01758a4.97417,4.97417,0,0,0-.57422.59961,33.986,33.986,0,0,0-7.53955,22.4707l1.19189,36.55664A23.621,23.621,0,0,0,83.13392,262.041q.8811,0,1.77051-.06543l24.82861-1.81641a40.79081,40.79081,0,0,0,27.81866-14.02869c.91461-.92139,1.79114-1.885,2.61743-2.89709L150.34,230.77295c.34039-.41687.70935-.80432,1.07135-1.199a30.74491,30.74491,0,0,1,15.8241-8.05542,193.167,193.167,0,0,0,31.76715-8.19507c8.01959,29.74292-7.07306,47.25146-24.37256,67.28589-6.52148,7.55176-13.26465,15.36133-18.70605,23.99121-18.33887,29.09082-23.30957,83.99414-23.5127,86.31738a6.50032,6.50032,0,0,0,6.47559,7.06445H255.45362C255.85566,397.43506,256.25825,396.88794,256.65314,396.33887ZM168.93525,67.119l4.978-18.77136L187.5293,64.6861l-15.75366,3.93842-3.4696.86737Z"/><path d="M224.77265,60.88525c-.07715-.00232-.20276.00153-.33221.0069C224.55085,60.88818,224.66071,60.88184,224.77265,60.88525Z"/><path d="M224.77265,60.88525q2.54654.07581,5.09137.26068Q227.31986,60.96439,224.77265,60.88525Z"/><path d="M346.53791,294.9812c-.13177-.3783,9.48523-11.2135,17.57593-31.44006a75.19886,75.19886,0,0,0,4.45-17.63086c1.63538-16.70923-.17017-34.60181-5.45331-53.53137-4.95312-17.74792-11.55835-29.442-16.59851-36.46155l-6.64081,27.06384c-.308-.2561.48346-15.26086-2.42493-36.63037a53.31367,53.31367,0,0,0-1.29578-6.40369,104.83412,104.83412,0,0,0-10.25635-22.616,122.16957,122.16957,0,0,0-20.441-24.54028c-.55237-.49573-1.106-.99683-1.65314-1.46912-18.877-16.29407-43.49548-26.84045-68.7973-29.70013a5.508,5.508,0,0,1-.08655.78656c-.07428.3877-.15759.7674-.23383,1.15338q1.25226.91617,2.47742,1.86957c1.8457,1.41211,3.62445,2.90851,5.36517,4.44983,3.48285,3.0799,6.89569,6.27667,10.06732,9.70416a157.55782,157.55782,0,0,1,17.40662,22.07214A162.96847,162.96847,0,0,1,283.428,126.60791a158.24564,158.24564,0,0,1,8.73767,27.13721l.77209,3.49377.38519,1.74817.28662,1.76575,1.11121,7.07373c.47546,4.74475,1.12122,9.49158,1.168,14.26855l.12891,3.57837.06342,1.78931-.03455,1.78845-.1593,7.15466c-.007,1.19434-.13708,2.37939-.236,3.56665l-.30878,3.56067c-.21631,2.37231-.36316,4.75378-.76209,7.10022A193.65312,193.65312,0,0,1,281.978,257.32886c.27905-.03418.55743-.062.83679-.09863a53.5268,53.5268,0,0,0,8.90033-2.08423,58.323,58.323,0,0,0,16.51141-8.4801,71.11646,71.11646,0,0,0,13.67279-13.39722A83.17149,83.17149,0,0,0,327.551,225.239c.88556-1.39111,1.7049-2.82666,2.56665-4.24976.78986-1.45605,1.57336-2.92371,2.392-4.38672-.45026,1.605-.90851,3.21729-1.40967,4.81958-.56439,1.57471-1.08038,3.18213-1.69568,4.75159a86.17391,86.17391,0,0,1-4.3324,9.19385,66.338,66.338,0,0,1-12.548,16.41272,62.331,62.331,0,0,1-13.016,9.4281,144.74127,144.74127,0,0,1-1.5708,17.9967,133.58485,133.58485,0,0,1-5.81506,23.77966,118.79327,118.79327,0,0,1-10.4632,22.49695c-1.06689,1.79053-2.20435,3.54089-3.35,5.28821-.16626.23669-.33618.47083-.503.70715.09033-.02319.18134-.04333.27161-.06689,2.82867-.7262,5.65735-1.48962,8.43738-2.40894,2.8017-.86291,5.56134-1.8623,8.29712-2.936a111.89566,111.89566,0,0,0,30.97369-18.23474,59.83248,59.83248,0,0,1-11.36035,15.20911,78.323,78.323,0,0,1-15.32941,11.70813,93.40409,93.40409,0,0,1-13.76776,6.66772c.11169.32385.22546.64709.3288.973a41.4334,41.4334,0,0,1,1.39032,6.02246,51.34805,51.34805,0,0,1,.33508,12.40808,60.75734,60.75734,0,0,1-7.529,23.691A70.0701,70.0701,0,0,1,272.801,394.7384c-.67126.78308-1.36053,1.54907-2.05334,2.31006-.67755.774-1.395,1.511-2.1427,2.21521l-2.20978,2.13354c-.76447.68091-1.55969,1.326-2.33539,1.98657a59.43569,59.43569,0,0,1-21.24854,11.56689c15.56,5.36389,66.43018,1.20166,93.9126-24.57471,32.74432-30.71106,43.74371-70.01147,32.82886-116.95007Z"/><path class="cls-1" d="M106.43909,235.33105c-1.36475.793-2.6543,1.542-3.604,2.0166-6.58545,3.29346-8.11713,10.053-7.99493,13.875l4.49945-.3291,9.66345-.707c.13666-.01.27191-.02881.40833-.04053a30.487,30.487,0,0,0,6.87689-1.41089,75.70831,75.70831,0,0,0,4.53656-7.5896c.75635-1.42969,3.05859-5.77832-.084-8.79883C117.2887,229.02637,112.50111,231.81055,106.43909,235.33105Z"/><path class="cls-1" d="M97.99964,199.34961a6.49965,6.49965,0,1,0-4.11133-12.332c-9.56934,3.18945-13.377,12.19727-14.11816,17.0166a6.53386,6.53386,0,0,0,5.42969,7.45215,6.68334,6.68334,0,0,0,1.00879.07715,6.457,6.457,0,0,0,6.39746-5.47461C92.64515,205.874,93.60609,200.81445,97.99964,199.34961Z"/><path class="cls-1" d="M155.14863,104.70776c-.07562.09143-.15686.17566-.22955.27075-.03912.05121-.071.10614-.10895.158a43.83881,43.83881,0,0,0-6.51117,11.95142,3.99989,3.99989,0,1,0,7.60742,2.47461c.00989-.03027.2345-.70038.69287-1.76617.01392.01074.02606.02307.04.03375a9.16158,9.16158,0,0,0,11.50244-14.25494,19.66212,19.66212,0,0,1,4.26953-1.94623A3.9997,3.9997,0,1,0,170.005,94,30.98161,30.98161,0,0,0,155.14863,104.70776Z"/><polygon class="cls-1" points="187.529 64.686 173.913 48.348 168.935 67.119 168.306 69.492 171.776 68.625 187.529 64.686"/><path class="cls-1" d="M327.551,225.239a83.17149,83.17149,0,0,1-5.65167,8.02966,71.11646,71.11646,0,0,1-13.67279,13.39722,58.323,58.323,0,0,1-16.51141,8.4801,53.5268,53.5268,0,0,1-8.90033,2.08423c-.27936.03662-.55774.06445-.83679.09863a193.65312,193.65312,0,0,0,12.60242-46.69543c.39893-2.34644.54578-4.72791.76209-7.10022l.30878-3.56067c.09888-1.18726.229-2.37231.236-3.56665l.1593-7.15466.03455-1.78845-.06342-1.78931-.12891-3.57837c-.04675-4.777-.6925-9.5238-1.168-14.26855l-1.11121-7.07373-.28662-1.76575-.38519-1.74817-.77209-3.49377a158.24564,158.24564,0,0,0-8.73767-27.13721,162.96847,162.96847,0,0,0-13.42914-24.95062,157.55782,157.55782,0,0,0-17.40662-22.07214c-3.17163-3.42749-6.58447-6.62427-10.06732-9.70416-1.74072-1.54132-3.51947-3.03772-5.36517-4.44983q-1.22342-.95471-2.47742-1.86957c.07623-.386.15955-.76569.23383-1.15338a5.508,5.508,0,0,0,.08655-.78656l-.00067-.00006q-2.54553-.28775-5.09863-.47314l-.03937-.0025q-2.54407-.18338-5.09137-.26068c-.11194-.00342-.2218.00293-.33221.0069-.0639.00232-.1286.00073-.19232.004l-.2475.01758q-.87671,4.50687-1.94281,8.84259c-.07971.32709-.163.6507-.24408.97638-.50055,2.00934-1.02,4.00024-1.57343,5.95551C210.18,112.22729,191.7057,138.808,177.02064,155.62012a195.655,195.655,0,0,1-33.49988,30.756,151.987,151.987,0,0,0-21.81018-14.40735,213.18725,213.18725,0,0,0-21.58093-10.33813c-.07227.08936-.156.19531-.22131.27466-1.22565,1.488-3.76038,4.02173-6.802,6.92334,13.886,4.95776,46.62891,18.90283,64.31641,45.175a40.55909,40.55909,0,0,1,8.053-2.32886c.42279-.07568.8288-.15637,1.24738-.23328a98.29085,98.29085,0,0,0-14.675-17.63A209.68429,209.68429,0,0,0,185.0348,163.166c17.56873-20.04175,40.25543-53.31165,49.43964-98.57916A191.06406,191.06406,0,0,1,248.73542,82.73a201.99246,201.99246,0,0,1,14.03046,23.17145,193.30924,193.30924,0,0,1,10.64783,24.60229,177.80725,177.80725,0,0,1,6.79736,25.70874l.5838,3.2655.29272,1.63147.21375,1.64441.869,6.57117c.20093,2.20007.3421,4.40613.51886,6.60669.06079,1.10254.217,2.19788.22058,3.3042l.09131,3.3125.09406,3.31189.048,1.65576-.04852,1.65747-.18488,6.62878c.00665,1.106-.10925,2.208-.19305,3.31128l-.26111,3.30945c-.183,2.20581-.29279,4.41846-.65314,6.6095a229.63382,229.63382,0,0,1-12.84607,51.86169l-.16168.43372a5.108,5.108,0,0,0,4.67242,6.85242l.48328.01172.39484-.00085.7442-.01685c.488-.014.9585-.04431,1.429-.075.93781-.06506,1.8562-.16284,2.76886-.27551a54.46567,54.46567,0,0,0,5.3728-.97375,62.87013,62.87013,0,0,0,10.22913-3.38416c.63519-.27649,1.25977-.57324,1.88354-.87109-1.78668,5.02429-3.52148,10.01343-5.38788,14.90759-2.77777,7.34619-5.79089,14.50439-9.12921,21.4198a172.77035,172.77035,0,0,1-11.25714,19.83972q-3.13861,4.71112-6.60693,9.15063c-2.34436,2.93127-4.75342,5.804-7.309,8.54565l-.19965.21411a6.37591,6.37591,0,0,0,5.41559,10.66052l1.37714-.1593,1.25189-.17444c.82672-.12219,1.63721-.27332,2.444-.42578q2.42029-.46069,4.78857-1.02454c3.16907-.72742,6.2666-1.69067,9.3338-2.717.184-.0636.366-.13257.54962-.19714-.4148,1.87231-.86505,3.69873-1.34692,5.50366-.97668,3.63477-2.04413,7.145-3.2771,10.55554a130.13251,130.13251,0,0,1-8.90881,19.46814c-1.74963,3.10413-3.64093,6.13818-5.58917,9.17993-2.02393,2.99084-4.04968,6.02881-6.26849,8.99683-.3949.54907-.79749,1.09619-1.19952,1.64355-4.0144,5.46533-8.36029,10.88245-12.64239,16.96826a59.43569,59.43569,0,0,0,21.24854-11.56689c.7757-.66052,1.57092-1.30566,2.33539-1.98657l2.20978-2.13354c.74774-.70422,1.46515-1.44116,2.1427-2.21521.69281-.761,1.38208-1.527,2.05334-2.31006A70.0701,70.0701,0,0,0,279.85328,384.51a60.75734,60.75734,0,0,0,7.529-23.691,51.34805,51.34805,0,0,0-.33508-12.40808,41.4334,41.4334,0,0,0-1.39032-6.02246c-.10333-.32593-.2171-.64917-.3288-.973a93.40409,93.40409,0,0,0,13.76776-6.66772,78.323,78.323,0,0,0,15.32941-11.70813,59.83248,59.83248,0,0,0,11.36035-15.20911,111.89566,111.89566,0,0,1-30.97369,18.23474c-2.73578,1.07373-5.49542,2.07312-8.29712,2.936-2.78.91931-5.6087,1.68274-8.43738,2.40894-.09027.02356-.18127.0437-.27161.06689.16681-.23633.33673-.47046.503-.70715,1.14563-1.74731,2.28308-3.49768,3.35-5.28821a118.79327,118.79327,0,0,0,10.4632-22.49695,133.58485,133.58485,0,0,0,5.81506-23.77966,144.74127,144.74127,0,0,0,1.5708-17.9967,62.331,62.331,0,0,0,13.016-9.4281,66.338,66.338,0,0,0,12.548-16.41272,86.17391,86.17391,0,0,0,4.3324-9.19385c.6153-1.56946,1.13129-3.17688,1.69568-4.75159.50116-1.60229.95941-3.2146,1.40967-4.81958-.8186,1.463-1.60211,2.93066-2.392,4.38672C329.25587,222.41235,328.43653,223.8479,327.551,225.239Z"/></g></svg>