<svg xmlns="http://www.w3.org/2000/svg" viewBox="0 0 97.2 97.2"><defs><style>.a{fill:#fff;}</style></defs><title>Oslo</title><path d="M69.67,94.2l-2.25-.84a55.79,55.79,0,0,0-19.27-3.25,55.79,55.79,0,0,0-19.27,3.25l-2.25.84L1.92,35.53,23.06,51.08l-4.83-35L38.65,44.32l9.49-41.5,9.51,41.5L78.08,16.06l-4.83,35L94.38,35.53Z"/><path class="a" d="M48.15,80.12A55,55,0,0,0,27.7,83.84l1.71,4.05a62.22,62.22,0,0,1,18.75-2.78A62.22,62.22,0,0,1,66.9,87.89l1.71-4.05A55,55,0,0,0,48.15,80.12Z"/><path class="a" d="M25.76,79.23a60.11,60.11,0,0,1,22.39-4.12,60.11,60.11,0,0,1,22.39,4.12L82.73,50.31,66.68,62.12l3.71-26.88-15.15,21-7.09-31-7.08,31-15.15-21,3.71,26.88L13.57,50.31ZM48.15,55.81,53,61.95l-4.85,8.13L43.3,61.95Z"/></svg>