<svg id="Layer_1" data-name="Layer 1" xmlns="http://www.w3.org/2000/svg" viewBox="0 0 216 216"><defs><style>.cls-1{fill:#231f20;}.cls-2{fill:#fff;}</style></defs><title>Iowa</title><path class="cls-1" d="M155.351,187.135H142.479c-5.586,0-10.114-3.86-10.114-8.622V165.779A13.893,13.893,0,0,0,145.6,154.622c2.4-10.7,8.195-43.62,11.739-61.257a34.138,34.138,0,0,0-5.766-26.776C143.4,55.4,131.181,40.4,122.626,31.826L108,68.065,93.374,31.647C84.819,40.222,72.6,55.221,64.427,66.411a34.137,34.137,0,0,0-5.766,26.776c3.548,17.653,9.346,50.615,11.751,61.31a13.9,13.9,0,0,0,13.223,11.159v12.856c0,4.762-4.528,8.622-10.114,8.622H62.487c-16.757,0-34.939,11.58-34.939,25.865H68c17.382,0,32.485-2.844,40-15.164C115.51,210.156,130.614,213,148,213h40.456C188.451,198.715,172.109,187.135,155.351,187.135Z"/><polygon class="cls-2" points="124.957 105.678 114 105.678 114 94.721 102 94.721 102 105.678 91.043 105.678 91.043 117.678 102 117.678 102 142.766 114 142.766 114 117.678 124.957 117.678 124.957 105.678"/><path class="cls-2" d="M92.6,165.856H123.4a0,0,0,0,1,0,0v6.361a4.482,4.482,0,0,1-4.482,4.482H97.085a4.482,4.482,0,0,1-4.482-4.482v-6.361A0,0,0,0,1,92.6,165.856Z"/></svg>