<svg id="Layer_1" data-name="Layer 1" xmlns="http://www.w3.org/2000/svg" viewBox="0 0 216 216"><defs><style>.cls-1{fill:#231f20;}.cls-2{fill:#fff;}</style></defs><title>Iowa</title><path class="cls-1" d="M175.038,94.339c-10.315-8.329-23.314-13.105-35.664-13.105-10.207,0-18.61,1.8-25.374,5.469V66.394h22.033v-12H114V35.722H102V54.394H79.967v12H102V86.7c-6.764-3.665-15.166-5.469-25.374-5.469-12.35,0-25.348,4.776-35.663,13.105-11.268,9.1-17.474,20.852-17.474,33.093v1.61l.806,1.394a104.919,104.919,0,0,1,6.54,13.766c1.228,3.1,2.38,6.324,3.452,9.637,2.029,6.269,3.774,12.838,5.226,19.38.932,4.2,1.741,8.391,2.428,12.484,1.037,6.187,1.792,12.154,2.25,17.6l.4,4.783,4.755.658A447.437,447.437,0,0,0,109.265,213a447.107,447.107,0,0,0,57.331-3.906l4.8-.636.395-4.823c.453-5.541,1.213-11.623,2.268-17.931.685-4.094,1.493-8.283,2.423-12.484,1.45-6.543,3.2-13.111,5.225-19.38,1.074-3.317,2.229-6.547,3.461-9.649a105.143,105.143,0,0,1,6.54-13.756l.806-1.394v-1.61C192.511,115.189,186.305,103.438,175.038,94.339Z"/><path class="cls-2" d="M168.607,155.554a165.907,165.907,0,0,1,7.886-21.668c-14.3,1.9-43.73,5.345-68.492,5.345s-54.19-3.449-68.494-5.345a166.2,166.2,0,0,1,7.88,21.667C63.04,157.456,87.171,159.9,108,159.9S152.952,157.457,168.607,155.554Z"/><path class="cls-2" d="M161.671,187.2c.61-4.01,1.34-8.169,2.2-12.417-15.524,1.789-37.047,3.783-55.873,3.783s-40.354-1.994-55.879-3.784c.864,4.25,1.594,8.41,2.206,12.418,15.317,1.72,35.72,3.533,53.673,3.533S146.354,188.917,161.671,187.2Z"/></svg>