<?xml version="1.0" encoding="utf-8"?><svg version="1.1" id="Layer_1" xmlns="http://www.w3.org/2000/svg" xmlns:xlink="http://www.w3.org/1999/xlink" x="0px" y="0px" viewBox="0 0 216 216" style="enable-background:new 0 0 216 216;" xml:space="preserve"><style type="text/css">.st0{fill:#FFFFFF;}</style><title>Iowa</title><g><path d="M166.7,107.6c-4.4-9.8-12.4-30-18.3-35.7c-0.3-0.3-0.5-0.5-0.8-0.7c-0.7-1.8-9.6-26.6-16.3-32.8c-1.1-1.2-2.2-1.9-3.2-1.9	l0,0c-0.3,0-0.5,0.1-0.8,0.2c-1.8,0.8-7.8,17.9-7.8,17.9c-0.3,0-0.6,0-1,0c-9.8,0-25.4,7.2-34.3,15.9c-7,6.8-15.6,15.6-36.2,23.9	c-6.9,2.8-14.8,5.6-24,8.5l14.4,25c0.6,1.3,1.5,2.5,2.5,3.5c1.4,1.6,3.3,2.7,5.3,3.3c2.9,0.8,5.9,0.3,8.4-1.3	c3.3-2.1,7.7-5,12.4-6.4c11.4-3.2,18.1-3.9,30.5-2.8c3.8,0.4,7.6,0.2,11.3-0.4c-1.2,31.4-20.1,36.4-21,86c14.9,2,29.9,3.1,44.9,3.2	c0.6,0,1.1,0,1.7,0c15.8-0.1,31.5-1.1,47.1-3.2v0l0,0C181.8,209.8,183.4,144.3,166.7,107.6z"/><polygon class="st0" points="125.1,56.7 129.1,44.2 130.3,59.5 	"/><path class="st0" d="M157.7,110c-2.1-5-5.2-12.6-8.5-19.3c-4.3-8.9-6.6-11.8-7.3-12.6c1.3,9.5,4.9,41.1,0.1,68.4l12.6-4.4	c0,0,1.1,16.5-10,51.5l27-9.5c-1.5-21.8-5.1-52.8-13.8-73.6L157.7,110z"/></g></svg>