<svg id="Layer_1" data-name="Layer 1" xmlns="http://www.w3.org/2000/svg" viewBox="0 0 216 216"><defs><style>.cls-1{fill:#231f20;}.cls-2{fill:#fff;}</style></defs><title>Iowa</title><path class="cls-1" d="M166.747,107.555c-4.62-10.231-13.086-31.723-19.018-36.3,0,0-13.012-36.934-19.792-34.094-1.812.759-7.785,17.93-7.785,17.93C110.408,54.578,94.081,62,84.842,71c-6.968,6.79-15.625,15.6-36.188,23.936-6.854,2.777-14.775,5.6-23.968,8.456L39.08,128.378a11.482,11.482,0,0,0,7.321,6.258,10.629,10.629,0,0,0,8.422-1.258c3.295-2.075,7.715-5.046,12.435-6.388,11.372-3.232,18.106-3.919,30.541-2.777a42.694,42.694,0,0,0,11.82-.506c-.939,31.9-20.613,36.155-21.538,86.113h93.692S183.365,144.35,166.747,107.555Z"/><path class="cls-2" d="M141.562,75.289s6.173,38.672.512,71.258l12.642-4.385s1.117,16.5-10,51.508l31.568-11.163-11.517-58.293L146.409,78.074Z"/><path class="cls-1" d="M129.91,52.684a193.477,193.477,0,0,1,8.83,21.061l.847,2.48,2.106,1.625c.243.209,2.517,2.342,7.589,12.872,3.25,6.746,6.384,14.311,8.459,19.316l.192.462C169.382,138.125,172,183.61,172.6,201.883A375.02,375.02,0,0,1,134.637,204q-.81,0-1.624,0c-14.422-.085-27.589-1.228-35.6-2.1,1.37-20.7,6.337-31.726,11.157-42.424,4.462-9.9,9.076-20.141,9.543-36l.329-11.174-10.986,2.064a32.534,32.534,0,0,1-5.989.545c-1.094,0-2.22-.052-3.346-.156-4.105-.377-7.477-.553-10.612-.553-7.5,0-14.01,1.019-23.213,3.635-5.549,1.577-10.36,4.631-13.872,6.86l-.9.569a1.485,1.485,0,0,1-.825.236,2.094,2.094,0,0,1-.526-.071,2.614,2.614,0,0,1-1.477-1.436l-.148-.309-.171-.3L37.517,108c4.97-1.712,9.659-3.46,14.017-5.226C73.119,94.029,82.873,84.509,90,77.557l.628-.612c7.858-7.657,21.29-13.379,28.05-13.379q.258,0,.506.013l6.752.356,2.222-6.386c.536-1.542,1.14-3.211,1.758-4.864m-1.7-16.179a1.992,1.992,0,0,0-.778.156c-1.812.759-7.785,17.93-7.785,17.93q-.479-.025-.979-.025c-9.828,0-25.4,7.225-34.331,15.933-6.968,6.79-15.625,15.6-36.188,23.936-6.855,2.777-14.775,5.6-23.968,8.456L38.58,127.878a11.482,11.482,0,0,0,7.321,6.258,11.087,11.087,0,0,0,2.8.363,10.49,10.49,0,0,0,5.621-1.621c3.295-2.075,7.715-5.046,12.435-6.388,8.015-2.278,13.726-3.292,20.753-3.292,2.943,0,6.117.178,9.788.515q2.121.2,4.169.194a41.392,41.392,0,0,0,7.651-.7c-.939,31.9-20.113,36.655-21.038,86.613A359.042,359.042,0,0,0,132.96,213q.839,0,1.677,0a372.709,372.709,0,0,0,47.136-3.179s-.146-65.659-15.526-102.766c-4.3-10.37-13.086-31.723-19.018-36.3,0,0-12.066-34.25-19.014-34.25Z"/><polygon class="cls-2" points="125.12 56.674 129.12 44.174 130.287 59.507 125.12 56.674"/></svg>