<svg id="Layer_1" data-name="Layer 1" xmlns="http://www.w3.org/2000/svg" viewBox="0 0 216 216"><title>Iowa</title><path d="M142.721,157.308c-3.363-10.454-9.441-19.122-17.114-24.583L136.05,86.912c1.823-7.645-3.772-15.032-11.386-15.032h-6.183l10.586-23.2a3.425,3.425,0,0,0-2.965-5.14H89.9a3.425,3.425,0,0,0-2.965,5.14l10.586,23.2H91.336c-7.614,0-13.21,7.387-11.386,15.032l10.443,45.814c-7.673,5.461-13.751,14.128-17.114,24.583A58.363,58.363,0,0,0,71.1,182.125l2.96,29.4C84.89,212.4,96.925,213,109.569,213c11.427,0,22.353-.492,32.345-1.23l2.985-29.646A58.364,58.364,0,0,0,142.721,157.308Z"/></svg>