<svg id="Layer_1" data-name="Layer 1" xmlns="http://www.w3.org/2000/svg" viewBox="0 0 216 216"><defs><style>.cls-1{fill:#fff;}</style></defs><title>Iowa</title><path d="M77.026,77.4h-.044l-.127,1.112h.019Z"/><path class="cls-1" d="M102.48,165.339a5,5,0,0,0,5,5h36.908l-1.344-10H107.48A5,5,0,0,0,102.48,165.339Z"/><path class="cls-1" d="M88.226,165.339a5,5,0,0,0-5-5H72.039l-1.376,10H83.226A5,5,0,0,0,88.226,165.339Z"/><path class="cls-1" d="M109.821,192.616a5,5,0,0,0-5-5H68.286l-1.376,10h37.91A5,5,0,0,0,109.821,192.616Z"/><path class="cls-1" d="M130.421,192.616a5,5,0,0,0,5,5h12.632l-1.344-10H135.421A5,5,0,0,0,130.421,192.616Z"/><path class="cls-1" d="M110.991,138.061a5,5,0,0,0-5-5h-30.2l-1.376,10h31.576A5,5,0,0,0,110.991,138.061Z"/><path class="cls-1" d="M125.98,138.061a5,5,0,0,0,5,5h9.743l-1.344-10h-8.4A5,5,0,0,0,125.98,138.061Z"/><path class="cls-1" d="M103.464,110.783a5,5,0,0,0,5,5h28.593l-1.344-10h-27.25A5,5,0,0,0,103.464,110.783Z"/><path class="cls-1" d="M90.7,110.783a5,5,0,0,0-5-5H79.544l-1.376,10H85.7A5,5,0,0,0,90.7,110.783Z"/><path class="cls-1" d="M81.92,88.505H100.6a5,5,0,0,0,0-10H83.3Z"/><path class="cls-1" d="M120.362,83.505a5,5,0,0,0,5,5h8.03l-1.344-10h-6.686A5,5,0,0,0,120.362,83.505Z"/><path d="M155.39,197.616l-1.357-10-6.066-44.7-1.337-9.851-2.545-18.755-1.064-7.839-2.54-18.715-1.225-9.028-.182-1.343c1.917-.069,3.044-.114,3.044-.114a4.052,4.052,0,0,0,4.021-3.556l4.772-41.643h-12.19l-1.335,11.138h-9.4L126.65,32.068H114.036L112.7,43.206h-9.4l-1.335-11.138H89.35L88.015,43.206h-9.4L77.277,32.068H65.088l4.279,41.593a4.052,4.052,0,0,0,4.027,3.606s1.344.051,3.588.127h.044l-.152,1.11-1.368,10-2.364,17.283-1.337,9.775-2.437,17.82-1.193,8.725-2.493,18.23-1.368,10-2.418,17.68-1.159,8.475-1.8,13.149,5.769.675A384.736,384.736,0,0,0,109.171,213a383.026,383.026,0,0,0,42.087-2.413l5.8-.646Zm-7.337,0H135.421a5,5,0,0,1,0-10H146.71Zm-3.665-27.278H107.48a5,5,0,0,1,0-10h35.564Zm-3.665-27.278H130.98a5,5,0,0,1,0-10h8.4ZM125.362,78.505h6.686l1.344,10h-8.03a5,5,0,0,1,0-10Zm-43.442,10,1.376-10H100.6a5,5,0,0,1,0,10ZM90.7,110.783a5,5,0,0,1-5,5H78.168l1.376-10H85.7A5,5,0,0,1,90.7,110.783Zm17.76-5h27.25l1.344,10H108.464a5,5,0,0,1,0-10ZM75.791,133.061h30.2a5,5,0,0,1,0,10H74.416Zm-3.752,27.278H83.226a5,5,0,0,1,0,10H70.663Zm-3.752,27.278h36.534a5,5,0,0,1,0,10H66.911Z"/></svg>