<svg id="Layer_1" data-name="Layer 1" xmlns="http://www.w3.org/2000/svg" viewBox="0 0 216 216"><defs><style>.cls-1{fill:#fff;}.cls-2{fill:#231f20;}</style></defs><title>Iowa</title><path class="cls-1" d="M90.514,173.758c0,7.891-7.065,14.311-15.749,14.311H64.13c-10.75,0-21.659,5.875-25.868,12.932H69.448c18.416,0,28.413-3.511,33.43-11.74l5.123-8.4,5.123,8.4c5.016,8.229,15.014,11.74,33.429,11.74h31.43c-3.772-7.2-13.83-12.932-24.339-12.932H141.235c-8.684,0-15.749-6.42-15.749-14.311v-6.423l-34.972-.089Z"/><path class="cls-1" d="M85.164,155.232l45.651.116a7.029,7.029,0,0,0,6.7-5.816c1.606-7.147,4.9-23.722,7.8-38.345,1.161-5.853,2.273-11.457,3.217-16.151a26.053,26.053,0,0,0-4.388-20.47C138.7,67.1,130.789,57.156,123.8,49.294L107.987,88.48,92.186,49.14C85.2,57,77.3,66.937,71.853,74.4a26.056,26.056,0,0,0-4.388,20.47c.944,4.7,2.057,10.306,3.22,16.163,2.906,14.642,6.2,31.238,7.807,38.383A7.077,7.077,0,0,0,85.164,155.232Zm6.883-45.786H103V98.493h10v10.953h10.953v10H113v24.247H103V119.446H92.047Z"/><path class="cls-2" d="M153.643,176.068H141.235c-2.111,0-3.749-1.242-3.749-2.311v-7.665a19.329,19.329,0,0,0,11.742-13.93c1.64-7.294,4.945-23.947,7.86-38.64,1.16-5.842,2.27-11.437,3.211-16.123a38.081,38.081,0,0,0-6.461-29.911c-7.23-9.9-19.024-24.577-27.831-33.4l-6.413-6.428L108.014,56.351l-11.6-28.873-6.425,6.439c-8.808,8.828-20.6,23.5-27.831,33.4A38.086,38.086,0,0,0,55.7,97.233c.942,4.689,2.054,10.288,3.214,16.135,2.92,14.712,6.23,31.386,7.869,38.679a19.349,19.349,0,0,0,11.73,13.923v7.789c0,1.068-1.638,2.311-3.749,2.311H64.13C45.4,176.068,24.452,189.3,24.452,207v6h45c12.945,0,28.363-1.411,38.553-11.121C118.189,211.589,133.607,213,146.552,213h45v-6C191.548,190.522,173.835,176.068,153.643,176.068ZM78.491,149.415c-1.606-7.145-4.9-23.741-7.807-38.383-1.163-5.857-2.276-11.466-3.22-16.163A26.056,26.056,0,0,1,71.853,74.4C77.3,66.937,85.2,57,92.186,49.14l15.8,39.341L123.8,49.294c6.987,7.862,14.893,17.807,20.345,25.272a26.053,26.053,0,0,1,4.388,20.47c-.943,4.694-2.056,10.3-3.217,16.151-2.9,14.623-6.192,31.2-7.8,38.345a7.029,7.029,0,0,1-6.7,5.816l-45.651-.116A7.077,7.077,0,0,1,78.491,149.415ZM146.552,201c-18.416,0-28.413-3.511-33.429-11.74l-5.123-8.4-5.123,8.4C97.861,197.489,87.863,201,69.448,201H38.261c4.209-7.057,15.118-12.932,25.868-12.932H74.765c8.684,0,15.749-6.42,15.749-14.311v-6.512l34.972.089v6.423c0,7.891,7.065,14.311,15.749,14.311h12.408c10.509,0,20.567,5.732,24.339,12.932Z"/><polygon class="cls-2" points="103 143.693 113 143.693 113 119.446 123.953 119.446 123.953 109.446 113 109.446 113 98.493 103 98.493 103 109.446 92.047 109.446 92.047 119.446 103 119.446 103 143.693"/></svg>