<?xml version="1.0" encoding="utf-8"?><svg version="1.1" id="Layer_1" xmlns="http://www.w3.org/2000/svg" xmlns:xlink="http://www.w3.org/1999/xlink" x="0px" y="0px" viewBox="0 0 216 216" style="enable-background:new 0 0 216 216;" xml:space="preserve"><style type="text/css">.st0{fill:#FFFFFF;}</style><title>Iowa</title><path class="st0" d="M54,184.8c0.7,4.4,1.3,8.7,1.7,12.7c17.8,2.3,35.7,3.5,53.6,3.5c17.1-0.1,34.1-1.1,51-3.2c0.4-4,1-8.2,1.7-12.7 	c-17.5,2.2-35.1,3.3-52.7,3.3C90.8,188.4,72.3,187.2,54,184.8z"/><path class="st0" d="M40.2,135.6c5,11.9,8.8,24.2,11.4,36.8c19.1,2.6,38.4,4,57.6,4.1c18.4-0.1,36.8-1.3,55-3.7 	c2.6-12.6,6.3-24.9,11.3-36.7c-21.9,3.4-44.1,5.1-66.3,5.2C86.1,141.1,63.1,139.3,40.2,135.6z"/><path class="st0" d="M139.4,93.2c-12.8,0-21.3,3.1-26.7,9.9L108,109l-4.7-5.8c-5.4-6.7-13.9-9.9-26.7-9.9c-17,0-37.3,12.8-40.7,29.4 	c6.9,1.2,20.8,3.5,38.3,5c10.6,0.9,22.5,1.6,35,1.6s24.4-0.6,35-1.6c15.6-1.3,28.3-3.3,35.8-4.5C177,106.2,156.6,93.2,139.4,93.2z" 	/><polygon class="st0" points="170.1,178 170.1,178 170.1,178 "/><path d="M175,94.3c-10.3-8.3-23.3-13.1-35.7-13.1c-10.2,0-18.6,1.8-25.4,5.5V62.9h22v-12h-22V32.2h-12v18.7H80v12h22v23.8 	c-6.8-3.7-15.2-5.5-25.4-5.5C64.3,81.2,51.3,86,41,94.3c-11.3,9.1-17.5,20.9-17.5,33.1v1.6l0.8,1.4c11.1,19.2,18,50.5,19.9,72.9 	l0.4,4.8l4.8,0.7c19.9,2.8,39.9,4.2,59.9,4.3c19.2-0.1,38.3-1.4,57.3-3.9l4.8-0.6l0.4-4.8c1.8-22.5,8.7-53.8,19.9-73.2l0.8-1.4v-1.6 	C192.5,115.2,186.3,103.4,175,94.3z M76.6,93.2c12.8,0,21.3,3.1,26.7,9.9l4.7,5.8l4.7-5.8c5.4-6.7,13.9-9.9,26.7-9.9 	c17.2,0,37.7,13,40.7,29.9c-7.5,1.3-20.2,3.2-35.8,4.5c-10.6,0.9-22.5,1.6-35,1.6s-24.4-0.6-35-1.6c-17.5-1.5-31.3-3.7-38.3-5 	C39.3,106,59.6,93.2,76.6,93.2z M160.3,197.8c-16.9,2.1-34,3.1-51,3.2c-17.9-0.1-35.8-1.2-53.6-3.5c-0.4-4-1-8.2-1.7-12.7 	c18.3,2.4,36.8,3.6,55.3,3.6c17.6-0.1,35.2-1.2,52.7-3.3C161.3,189.6,160.7,193.8,160.3,197.8z M170.1,178L170.1,178z M164.3,172.7 	c-18.2,2.4-36.6,3.6-55,3.7c-19.3-0.1-38.5-1.4-57.6-4.1c-2.6-12.6-6.4-24.9-11.4-36.8c22.8,3.7,45.9,5.5,69,5.6 	c22.2-0.1,44.4-1.8,66.3-5.2C170.6,147.9,166.9,160.2,164.3,172.7L164.3,172.7z"/></svg>