<svg id="Layer_1" data-name="Layer 1" xmlns="http://www.w3.org/2000/svg" viewBox="0 0 216 216"><defs><style>.cls-1{fill:#fff;}.cls-2{fill:#231f20;}</style></defs><title>Iowa</title><path class="cls-1" d="M53.958,184.794c.721,4.44,1.294,8.705,1.724,12.685A432.281,432.281,0,0,0,109.266,201a431.446,431.446,0,0,0,51.021-3.2c.422-3.978.988-8.243,1.7-12.681a441.8,441.8,0,0,1-52.722,3.32A441.849,441.849,0,0,1,53.958,184.794Z"/><path class="cls-1" d="M40.25,135.6a196.835,196.835,0,0,1,11.368,36.783,432,432,0,0,0,57.647,4.057,432.158,432.158,0,0,0,55.035-3.709,197.647,197.647,0,0,1,11.262-36.7,445.9,445.9,0,0,1-66.3,5.174A445.831,445.831,0,0,1,40.25,135.6Z"/><path class="cls-1" d="M139.374,93.233c-12.8,0-21.282,3.143-26.692,9.892L108,108.965l-4.682-5.84c-5.41-6.749-13.892-9.892-26.692-9.892-17.046,0-37.329,12.77-40.66,29.449,6.917,1.236,20.778,3.456,38.265,4.959,10.6.91,22.512,1.558,35.035,1.558s24.439-.648,35.034-1.558c15.621-1.342,28.338-3.256,35.807-4.531C177.04,106.222,156.565,93.233,139.374,93.233Z"/><polygon class="cls-1" points="170.128 177.989 170.128 177.989 170.128 177.989 170.128 177.989"/><path class="cls-2" d="M175.037,94.338c-10.314-8.329-23.313-13.105-35.663-13.105-10.207,0-18.61,1.8-25.374,5.469V62.893h22.033v-12H114V32.221H102V50.893H79.967v12H102V86.7c-6.764-3.665-15.167-5.469-25.374-5.469-12.35,0-25.348,4.777-35.663,13.105-11.268,9.1-17.474,20.851-17.474,33.093v1.61l.806,1.394C35.427,149.683,42.307,180.9,44.188,203.3l.4,4.783,4.755.658A447.363,447.363,0,0,0,109.266,213a447.052,447.052,0,0,0,57.331-3.907l4.8-.636.395-4.824c1.836-22.469,8.707-53.816,19.916-73.2l.806-1.394v-1.61C192.511,115.189,186.306,103.437,175.037,94.338ZM76.626,93.233c12.8,0,21.282,3.143,26.692,9.892l4.682,5.84,4.682-5.84c5.41-6.749,13.892-9.892,26.692-9.892,17.191,0,37.666,12.99,40.732,29.878-7.468,1.275-20.185,3.188-35.807,4.531-10.6.91-22.512,1.558-35.034,1.558s-24.439-.648-35.035-1.558c-17.487-1.5-31.348-3.723-38.265-4.959C39.3,106,59.58,93.233,76.626,93.233ZM160.286,197.8a431.446,431.446,0,0,1-51.021,3.2,432.281,432.281,0,0,1-53.584-3.521c-.43-3.979-1-8.245-1.724-12.685a441.849,441.849,0,0,0,55.308,3.642,441.8,441.8,0,0,0,52.722-3.32C161.274,189.555,160.708,193.819,160.286,197.8Zm9.842-19.808h0Zm-5.828-5.261a432.158,432.158,0,0,1-55.035,3.709,432,432,0,0,1-57.647-4.057A196.835,196.835,0,0,0,40.25,135.6a445.831,445.831,0,0,0,69.016,5.6,445.9,445.9,0,0,0,66.3-5.174A197.647,197.647,0,0,0,164.3,172.728Z"/></svg>