<?xml version="1.0" encoding="utf-8"?><svg version="1.1" id="Layer_1" xmlns="http://www.w3.org/2000/svg" xmlns:xlink="http://www.w3.org/1999/xlink" x="0px" y="0px" viewBox="0 0 216 216" style="enable-background:new 0 0 216 216;" xml:space="preserve"><style type="text/css">.st0{fill:#FFFFFF;}</style><title>Iowa</title><path class="st0" d="M139.3,210.4c-15.9,0-32.4-0.5-49.1-1.6l-5.6-0.4l0.2-5.7c1-25.4,7.1-37.7,12.5-48.6 	c3.8-7.7,10.2-14.6,11.1-24.6c-1.9,0-6.4-2.2-8.3-2.3c-11-1-17.9,0-28.3,3c-3.3,0.9-6.2-1.1-9,0.7l-4,3.7c-3.8,2.4-7.4,2.5-11.7,1.3 	c-4.7-1.3-6.8-0.4-8.9-4.8L20.7,101l6.9-2.1c8.3-2.6,15.9-5.3,22.7-8c18.2-7.4,26.1-15.1,32.4-21.3l0.6-0.6 	c8.9-8.7,23.2-15.6,34-16.8c5.6-15.4,7.4-16.2,9.4-17c2.1-0.8,4.4-0.8,6.4,0.1c7.6,3.4,15.6,22.6,19.9,34.8c5,5,10,16.1,16,29.9 	c1,2.3,1.9,4.3,2.7,6.1c13.8,30.7,15,80.4,15,96.5c0,0.4,0,0.7,0,1l0,5.5l-5.5,0.3C167,210,152.9,210.4,139.3,210.4z"/><path d="M173.4,104.7c-0.8-1.8-1.7-3.9-2.8-6.3c-6.2-14.3-11.4-25.8-16.6-31c-4.5-12.6-12.8-32.6-20.6-36.1c-2.1-1-4.5-1-6.6-0.1 	c-2.1,0.9-4,1.7-9.8,17.6c-11.2,1.3-26,8.4-35.2,17.4L81.2,67C74.7,73.4,66.5,81.4,47.6,89c-7,2.8-14.9,5.6-23.5,8.3L17,99.5 	l18,31.3c2.2,4.5,6.2,7.9,11.1,9.2c4.5,1.2,9.2,0.5,13.1-2l0.9-0.6c2.9-1.8,6.5-4.1,9.9-5.1c10.8-3.1,16.9-3.6,28.4-2.6 	c2,0.2,3.9,0.2,5.9,0.2c-0.9,10.3-4.1,16.8-8,24.7c-5.5,11.2-11.8,24-12.9,50.3l-0.2,5.9l5.9,0.4c17.3,1.1,34.5,1.7,50.9,1.7 	c14.1,0,28.7-0.4,43.4-1.2l5.6-0.3l0-5.7c0-0.3,0-0.7,0-1.1C189,188,187.8,136.5,173.4,104.7z M107.1,160.1 	c4.5-9.1,8.7-17.6,9.4-31.9c10.2-4.3,9.6-19.5,9.6-19.5c-6.8,7-15.9,10.3-26.6,9.3c-13-1.2-20.4-0.5-32.7,3 	c-5.1,1.5-9.7,4.4-13.1,6.5l-0.9,0.6c-1.1,0.7-2.5,0.9-3.7,0.5c-1.5-0.5-2.8-1.6-3.4-3l-10.9-19c6.2-2.1,12-4.2,17.3-6.3 	c21-8.5,30.5-17.8,37.5-24.6l0.6-0.6c8.8-8.6,23.5-14.6,30.8-14.2l0.2,0l4.4,0l1.4-4c1.4-4,2.9-7.9,4.1-10.9 	c3.3,5.4,8.1,15.7,11.8,26.3c2.5,8.9,10,38.5,7,64.7l-1.2,10.4L165,140c-0.3,8-1.7,21.9-6.8,42l-3.1,12l21.4-9.6 	c0.3,6,0.4,11.4,0.5,15.6c-12.6,0.6-25,0.9-37,0.9c-14.3,0-29.1-0.4-44.2-1.3C97.3,179.9,102.3,169.8,107.1,160.1L107.1,160.1z"/></svg>