<svg id="Layer_1" data-name="Layer 1" xmlns="http://www.w3.org/2000/svg" viewBox="0 0 216 216"><defs><style>.cls-1{fill:#fff;}.cls-2{fill:#231f20;}</style></defs><title>Iowa</title><path class="cls-1" d="M144.958,213c-16.449,0-33.579-.564-50.914-1.677l-5.851-.375.24-5.858C89.515,178.744,95.8,166,101.346,154.748c3.914-7.938,7.1-14.393,8.013-24.723a51.068,51.068,0,0,1-5.886-.2c-11.449-1.05-17.542-.5-28.352,2.573-3.452.981-7.046,3.262-9.934,5.1l-.945.6a16.551,16.551,0,0,1-13.135,1.986A17.388,17.388,0,0,1,40,130.826L21.963,99.515l7.167-2.223c8.608-2.67,16.513-5.458,23.493-8.287,18.852-7.639,27.039-15.63,33.617-22.051l.636-.621c9.234-9,24.023-16.16,35.2-17.433,5.795-15.978,7.646-16.754,9.765-17.642a8.294,8.294,0,0,1,6.623.149c7.882,3.5,16.123,23.469,20.637,36.054,5.164,5.217,10.4,16.713,16.583,30.98,1.014,2.339,1.943,4.483,2.753,6.277,14.356,31.788,15.6,83.311,15.6,100.032q0,.551,0,1.051l-.019,5.659-5.65.313C173.633,212.587,159.028,213,144.958,213Z"/><path class="cls-2" d="M173.438,104.718c-.81-1.793-1.739-3.938-2.753-6.277C164.5,84.174,159.265,72.679,154.1,67.461c-4.514-12.584-12.755-32.555-20.637-36.054a8.294,8.294,0,0,0-6.623-.149c-2.12.888-3.97,1.665-9.765,17.642-11.177,1.273-25.966,8.435-35.2,17.433l-.636.621c-6.578,6.421-14.765,14.412-33.617,22.051-6.98,2.828-14.884,5.616-23.493,8.287l-7.167,2.223L35,130.826a17.388,17.388,0,0,0,11.107,9.248,16.551,16.551,0,0,0,13.135-1.986l.945-.6c2.888-1.833,6.482-4.114,9.934-5.1,10.81-3.072,16.9-3.624,28.352-2.573a51.068,51.068,0,0,0,5.886.2c-.917,10.331-4.1,16.785-8.013,24.723-5.546,11.248-11.831,24-12.914,50.341l-.24,5.858,5.851.375c17.335,1.113,34.465,1.677,50.914,1.677,14.071,0,28.676-.413,43.409-1.228l5.65-.312.019-5.659q0-.5,0-1.051C189.037,188.029,187.794,136.506,173.438,104.718Zm-66.329,55.336c4.462-9.05,8.687-17.62,9.408-31.938,10.183-4.264,9.637-19.526,9.637-19.526-6.75,7.049-15.947,10.257-26.583,9.281-13.04-1.2-20.381-.53-32.73,2.979-5.13,1.458-9.727,4.376-13.084,6.507l-.909.576a4.624,4.624,0,0,1-3.708.529,5.53,5.53,0,0,1-3.424-3.043l-10.9-18.956c6.208-2.064,12.008-4.187,17.315-6.336C73.169,91.6,82.679,82.32,89.623,75.542l.629-.614c8.824-8.6,23.546-14.586,30.807-14.213l.158.008,4.422-.016,1.405-4.021c1.4-4.006,2.9-7.946,4.122-10.921,3.325,5.352,8.059,15.743,11.83,26.287,2.527,8.93,10.035,38.474,7.028,64.7l-1.187,10.36L165,140.044c-.279,7.992-1.676,21.86-6.816,42.032l-3.069,12.043,21.4-9.6c.3,6.044.435,11.374.488,15.569-12.576.607-25.014.915-37.049.915-14.308,0-29.143-.434-44.186-1.291C97.336,179.874,102.3,169.813,107.109,160.055Z"/></svg>