<svg id="Layer_1" data-name="Layer 1" xmlns="http://www.w3.org/2000/svg" viewBox="0 0 216 216"><defs><style>.cls-1{fill:none;}.cls-2{fill:#fff;}</style></defs><title>Iowa</title><polygon class="cls-1" points="95.459 54.465 103.713 68.735 112.287 68.735 120.541 54.465 95.459 54.465"/><path class="cls-2" d="M121.023,136.651l-3.26-2.32L128.44,87.49a5.635,5.635,0,0,0-1.018-4.861,4.817,4.817,0,0,0-3.8-1.894H92.382a4.817,4.817,0,0,0-3.8,1.894,5.6,5.6,0,0,0-1.032,4.8l10.69,46.9-3.26,2.32c-6.17,4.391-11.073,11.49-13.807,19.989a49.016,49.016,0,0,0-1.8,20.706l.013.115,2.271,22.55c9.5.657,18.834.989,27.814.989,8.035,0,16.373-.267,24.853-.795l2.3-22.859a49.017,49.017,0,0,0-1.8-20.706C132.1,148.141,127.193,141.042,121.023,136.651Z"/><path d="M146.254,152.966h0a52.448,52.448,0,0,0-15.061-23.559l8.933-39.191a17.533,17.533,0,0,0-3.287-15.023,16.8,16.8,0,0,0-10.808-6.263l9.7-16.754a6.475,6.475,0,0,0-5.607-9.711H85.879a6.475,6.475,0,0,0-5.6,9.716l9.688,16.75a16.8,16.8,0,0,0-10.8,6.262,17.5,17.5,0,0,0-3.3,14.964l8.947,39.25a52.439,52.439,0,0,0-15.061,23.559,60.227,60.227,0,0,0-2.295,25.754L70.722,211.2l4.987.4c11.537.929,22.9,1.4,33.762,1.4,9.909,0,20.257-.394,30.757-1.169l5.023-.371,3.3-32.739A60.232,60.232,0,0,0,146.254,152.966Zm-25.713-98.5-8.254,14.271h-8.574L95.459,54.465Zm16.086,122.881-2.3,22.859c-8.48.528-16.818.795-24.853.795-8.98,0-18.314-.332-27.814-.989l-2.271-22.55-.013-.115a49.016,49.016,0,0,1,1.8-20.706c2.733-8.5,7.637-15.6,13.807-19.989l3.26-2.32-10.69-46.9a5.6,5.6,0,0,1,1.032-4.8,4.817,4.817,0,0,1,3.8-1.894h31.237a4.817,4.817,0,0,1,3.8,1.894,5.635,5.635,0,0,1,1.018,4.861l-10.677,46.84,3.26,2.32c6.169,4.391,11.073,11.49,13.807,19.989A49.017,49.017,0,0,1,136.627,177.346Z"/></svg>