<?xml version="1.0" encoding="utf-8"?><svg version="1.1" id="Layer_1" xmlns="http://www.w3.org/2000/svg" xmlns:xlink="http://www.w3.org/1999/xlink" x="0px" y="0px" viewBox="0 0 216 216" style="enable-background:new 0 0 216 216;" xml:space="preserve"><style type="text/css">.st0{fill:#FFFFFF;}</style><title>Iowa</title><g><path d="M109.7,213c-12.8,0-26.3-0.6-39.9-1.8l-3.9-0.3L17.1,68.2l43.6,44.1l-7.1-68.1l36.3,56.2L108,11.4l18.1,88.9l36.3-56.2	l-7.1,68.1l43.6-44.1l-48.9,143.1l-3.9,0.3C133.7,212.5,121.4,213,109.7,213z M74.6,199.6c12,0.9,23.7,1.4,35,1.4	c10.2,0,20.8-0.4,31.6-1.1l29.4-86.1l-30.8,31.1l5.4-52.1l-25.1,38.8l-12.2-60l-12.2,60L70.7,92.8l5.4,52.1l-30.8-31.1L74.6,199.6z	"/><path class="st0" d="M109.7,201c10.2,0,20.8-0.4,31.6-1.1l29.4-86.1l-30.8,31.1l5.4-52.1l-25.1,38.8l-12.2-60l-12.2,60L70.7,92.8	l5.4,52.1l-30.8-31.1l29.3,85.9C86.6,200.5,98.4,201,109.7,201z"/><polygon points="108.6,186 98.2,166.8 108.6,147.6 118.9,166.8 	"/></g></svg>