<svg id="Layer_1" data-name="Layer 1" xmlns="http://www.w3.org/2000/svg" viewBox="0 0 216 216"><defs><style>.cls-1{fill:#fff;}.cls-2{fill:#231f20;}</style></defs><title>Iowa</title><path d="M109.66,213c-12.837,0-26.273-.593-39.938-1.763l-3.9-.334L17.052,68.155l43.643,44.052L53.632,44.14l36.275,56.2L108,11.413l18.092,88.928,36.274-56.2-7.061,68.066,43.642-44.054L150.072,211.21l-3.932.31C133.658,212.5,121.384,213,109.66,213ZM74.64,199.6c11.981.93,23.743,1.4,35.02,1.4,10.183,0,20.8-.387,31.612-1.15l29.428-86.13-30.845,31.135,5.4-52.078L120.2,131.592,108,71.605,95.8,131.592,70.744,92.778l5.4,52.077L45.3,113.718Z"/><path class="cls-1" d="M109.66,201c10.183,0,20.8-.387,31.612-1.15l29.428-86.13-30.845,31.135,5.4-52.078L120.2,131.592,108,71.605,95.8,131.592,70.744,92.778l5.4,52.077L45.3,113.718,74.64,199.6C86.622,200.529,98.383,201,109.66,201Z"/><polygon class="cls-2" points="108.573 185.998 98.247 166.783 108.573 147.568 118.899 166.783 108.573 185.998"/></svg>