<svg id="Layer_1" data-name="Layer 1" xmlns="http://www.w3.org/2000/svg" viewBox="0 0 216 216"><defs><style>.cls-1{fill:#fff;}</style></defs><title>Iowa</title><path class="cls-1" d="M81.33,77.253l-18.658,133.1A429.808,429.808,0,0,0,109.246,213a427.428,427.428,0,0,0,44.081-2.381l-18.7-133.366Z"/><path class="cls-1" d="M141.631,213H74.369a7.815,7.815,0,0,1-7.765-6.933l-4.774-43.021h92.339L149.4,206.067A7.815,7.815,0,0,1,141.631,213Z"/><path d="M155.359,72.564l5.513-49.683H55.128l5.515,49.7A13.8,13.8,0,0,0,73.966,84.817L56.469,209.64l6.143.676A433.652,433.652,0,0,0,109.843,213a431.894,431.894,0,0,0,44.706-2.414l6.181-.646-17.55-125.2A13.806,13.806,0,0,0,155.359,72.564ZM72.568,71.241l-4.035-36.36h9.6l1.347,11.242H90.01l1.347-11.242h10.029l1.347,11.242h10.533l1.347-11.242h10.029l1.347,11.242h10.533l1.347-11.242h9.6l-4.033,36.345a1.813,1.813,0,0,1-1.8,1.61H74.37A1.811,1.811,0,0,1,72.568,71.241Zm55.877,115.542h16.92l1.749,12.474C134.356,200.414,121.847,201,109.843,201c-12.805,0-26.156-.665-39.769-1.977l1.716-12.241h36.054a6,6,0,0,0,0-12H73.472l1.905-13.592H87.249a6,6,0,0,0,0-12H77.06L78.965,135.6h29.049a6,6,0,0,0,0-12H80.647L82.553,110h9.175a6,6,0,1,0,0-12H84.235l1.846-13.169h44.994L132.921,98H111.487a6,6,0,1,0,0,12H134.6l1.905,13.592H127a6,6,0,0,0,0,12H138.19L140.1,149.19H107.5a6,6,0,0,0,0,12h34.275l1.905,13.592H128.445a6,6,0,0,0,0,12Z"/></svg>