<?xml version="1.0" encoding="utf-8"?><svg version="1.1" id="Layer_1" xmlns="http://www.w3.org/2000/svg" xmlns:xlink="http://www.w3.org/1999/xlink" x="0px" y="0px" viewBox="0 0 216 216" style="enable-background:new 0 0 216 216;" xml:space="preserve"><style type="text/css">.st0{fill:#FFFFFF;stroke:#000000;stroke-miterlimit:10;} 	.st1{fill:#FFFFFF;}</style><rect x="63.5" y="29.5" class="st0" width="87.5" height="46.5"/><title>Iowa</title><path class="st1" d="M82.4,80.1L64.6,207.7c14.9,1.6,29.7,2.5,44.7,2.5c14.1,0,28.2-0.8,42.3-2.3l-18-127.8H82.4z"/><path d="M155.4,72.6l5.5-49.7H55.1l5.5,49.7c0.8,6.8,6.5,12,13.3,12.2L56.5,209.6l6.1,0.7c15.7,1.8,31.5,2.6,47.2,2.7 	c14.9,0,29.9-0.8,44.7-2.4l6.2-0.6L143.2,84.7C149.6,84,154.6,79,155.4,72.6z M72.6,71.2l-4-36.4h9.6L79.5,46H90l1.3-11.2h10 	l1.3,11.2h10.5l1.3-11.2h10l1.3,11.2h10.5l1.3-11.2h9.6l-4,36.3c-0.1,0.9-0.9,1.6-1.8,1.6H74.4C73.5,72.8,72.7,72.2,72.6,71.2z M128.4,186.8h16.9l1.7,12.5c-12.8,1.2-25.3,1.7-37.3,1.7c-12.8,0-26.2-0.7-39.8-2l1.7-12.2h36.1c3.3,0,6-2.7,6-6s-2.7-6-6-6H73.5 	l1.9-13.6h11.9c3.3,0,6-2.7,6-6s-2.7-6-6-6H77.1l1.9-13.6h29c3.3,0,6-2.7,6-6s-2.7-6-6-6H80.6l1.9-13.6h9.2c3.3,0,6-2.7,6-6 	s-2.7-6-6-6h-7.5L86,84.8h45l1.8,13.2h-21.4c-3.3,0-6,2.7-6,6s2.7,6,6,6h23.1l1.9,13.6H127c-3.3,0-6,2.7-6,6c0,3.3,2.7,6,6,6h11.2 	l1.9,13.6h-32.6c-3.3,0-6,2.7-6,6s2.7,6,6,6h34.3l1.9,13.6h-15.2c-3.3,0-6,2.7-6,6S125.1,186.8,128.4,186.8L128.4,186.8z"/></svg>