<svg id="Layer_1" data-name="Layer 1" xmlns="http://www.w3.org/2000/svg" viewBox="0 0 432 432"><defs><style>.cls-1 { fill: #fff; }</style></defs><title>Chicago</title><g><path d="M328.49364,318.07715,288.24218,144.871l11.15186-.05847a6.50062,6.50062,0,0,0,6.44531-5.98l8.37988-104.3833a6.50117,6.50117,0,0,0-6.47949-7.02h-27.4082a6.5,6.5,0,0,0-6.5,6.5V57.188H261.54931V33.9292a6.5,6.5,0,0,0-6.5-6.5h-25.4082a6.5,6.5,0,0,0-6.5,6.5V57.188H208.85888V35.27637a6.5,6.5,0,0,0-6.5-6.5h-25.4082a6.5,6.5,0,0,0-6.5,6.5V57.188H158.16845V35.27637a6.5,6.5,0,0,0-6.5-6.5h-27.4082a6.49985,6.49985,0,0,0-6.47559,7.05811l8.958,103.90723a6.49827,6.49827,0,0,0,6.47461,5.94189h.03516l10.68628-.056L103.50927,318.06543a6.49607,6.49607,0,0,0,1.92725,6.26727s1.08691,1.0274,1.64758,1.09937a6.51736,6.51736,0,0,0,1.09021.4c.34619.0918,2.03625.53394,4.87732,1.20367a13.24985,13.24985,0,0,1,6.14124,5.392c8.28711,13.9873-2.71387,45.01367-7.65137,55.78613a6.50118,6.50118,0,0,0,3.2002,8.624c.9502.43555,24.20508,10.66211,104.22852,10.66211,79.1123,0,97.23047-9.93359,99.03613-11.06641a6.499,6.499,0,0,0,2.45215-8.21973c-4.94434-10.75879-15.958-41.75-7.65527-55.7793a13.25056,13.25056,0,0,1,6.1427-5.39777c2.84265-.67,4.53333-1.11212,4.87976-1.2038a6.51264,6.51264,0,0,0,1.09229-.40118c.56018-.07184,1.64551-1.09882,1.64551-1.09882A6.4978,6.4978,0,0,0,328.49364,318.07715Zm-31.64734,29.31122c-10.93286,2.12738-33.56213,4.805-78.21594,4.805-47.12207,0-71.92883-2.9978-83.48413-5.08221a48.2539,48.2539,0,0,0-1.54675-13.5611c7.494,1.6535,31.16345,5.64331,85.03088,5.64331,53.2981,0,73.51489-3.8017,79.717-5.42487A49.58034,49.58034,0,0,0,296.84631,347.38837Zm7.79334,36.41693c-3.25269,1.53546-21.19714,8.2533-86.04834,8.2533-69.82422,0-90.14648-7.81543-90.97754-8.14844l2.417-6.03613,2.35645-6.05566c.19141.07227,19.89648,7.24023,86.2041,7.24023,64.95508,0,79.835-6.69238,80.43652-6.97754-.127.06055-.18359.0957-.18359.0957l4.71875,8.603Q304.1101,382.366,304.63964,383.8053Zm-74.1521-58.02844-13.22632-17.83838-14.94678,17.86829c-5.52222-.198-10.93457-.50568-16.19775-.89777l31.75977-37.96857,28.1438,37.95825C240.969,325.27655,235.77978,325.57648,230.48754,325.77686Zm31.29175-2.33167-42.78857-57.70886L170.6759,323.49414c-5.30652-.57623-10.38684-1.21631-15.17981-1.89a6.52374,6.52374,0,0,1,.76025-1.13342L214.313,251.06738a6.50037,6.50037,0,0,1,10.207.2998l51.46,69.40332a6.52471,6.52471,0,0,1,.51709.83441C271.84277,322.259,266.91918,322.88208,261.77929,323.44519ZM157.30712,145.5575l76.15186-.39929h41.504l3.02112,13H154.35278Z"/><polygon class="cls-1" points="154.353 158.158 277.984 158.158 274.963 145.158 233.459 145.158 157.307 145.557 154.353 158.158"/><path class="cls-1" d="M130.03075,377.874l-2.417,6.03613c.83105.333,21.15332,8.14844,90.97754,8.14844,64.8512,0,82.79565-6.71783,86.04834-8.2533q-.52808-1.43747-1.07666-3.02551l-4.71875-8.603s.05664-.03516.18359-.0957c-.60156.28516-15.48145,6.97754-80.43652,6.97754-66.30762,0-86.0127-7.168-86.2041-7.24023Z"/><path class="cls-1" d="M135.14623,347.11115c11.5553,2.08441,36.36206,5.08221,83.48413,5.08221,44.65381,0,67.28308-2.67761,78.21594-4.805a49.58034,49.58034,0,0,1,1.5011-13.61987c-6.20215,1.62317-26.41895,5.42487-79.717,5.42487-53.86743,0-77.53687-3.98981-85.03088-5.64331A48.2539,48.2539,0,0,1,135.14623,347.11115Z"/><path class="cls-1" d="M276.49706,321.60492a6.52471,6.52471,0,0,0-.51709-.83441l-51.46-69.40332a6.50037,6.50037,0,0,0-10.207-.2998L156.25634,320.4707a6.52374,6.52374,0,0,0-.76025,1.13342c4.793.67371,9.87329,1.31378,15.17981,1.89l48.31482-57.75781,42.78857,57.70886C266.91918,322.88208,271.84277,322.259,276.49706,321.60492Z"/><path class="cls-1" d="M186.11669,324.909c5.26318.39209,10.67554.69977,16.19775.89777l14.94678-17.86829,13.22632,17.83838c5.29224-.20038,10.48145-.50031,15.53271-.87817l-28.1438-37.95825Z"/></g></svg>