<svg id="Layer_1" data-name="Layer 1" xmlns="http://www.w3.org/2000/svg" viewBox="0 0 432 432"><defs><style>.cls-1 { fill: #fff; }</style></defs><title>Chicago</title><g><path d="M221.8103,34.42139a6.5,6.5,0,0,0-13,0V55.13965h13Z"/><path d="M215.79224,88.22852a6.50057,6.50057,0,0,1,4.78711,2.12354l1.231,1.35168V68.13965h-13V92.694l2.18262-2.36932A6.41729,6.41729,0,0,1,215.79224,88.22852Z"/><path d="M237.73608,68.13965a6.5,6.5,0,0,0,0-13H221.8103v13Z"/><path d="M190.64185,55.13965a6.5,6.5,0,0,0,0,13H208.8103v-13Z"/><rect x="208.8103" y="55.13965" width="13" height="13"/><path d="M261.74536,145.20959q2.672-1.98349,5.45758-3.66058L221.8103,91.70374v9.65369Z"/><path d="M208.8103,102.28735V92.694l-44.56445,48.37726c-.03156.03424-.05719.07245-.088.1073q2.80728,1.65079,5.49915,3.61243Z"/><path d="M215.77344,94.72839l6.03687,6.629V91.70374l-1.231-1.35168a6.50057,6.50057,0,0,0-4.78711-2.12354,6.41729,6.41729,0,0,0-4.79932,2.09619L208.8103,92.694v9.59332Z"/><path d="M175.97729,147.52344l36.28278-39.3869a6.4968,6.4968,0,0,1-3.44977-5.73859v-.1106L169.657,144.791a73.81863,73.81863,0,0,1,6.823,5.63855Z"/><path d="M218.8999,107.81494l37.79669,41.50458q2.47018-2.19727,5.04877-4.10992L221.8103,101.35742v1.04053A6.49165,6.49165,0,0,1,218.8999,107.81494Z"/><path d="M212.26007,108.13654l3.48627-3.78448,3.15356,3.46289a6.49165,6.49165,0,0,0,2.9104-5.417v-1.04053l-6.03687-6.629-6.96313,7.559v.1106A6.4968,6.4968,0,0,0,212.26007,108.13654Z"/><path d="M71.94409,232.49719c-14.04932-29.57153-15.06549-91.20642,57.91211-93.46252a56.5963,56.5963,0,0,1,33.00458,8.92963l-.239-1.38129a6.4952,6.4952,0,0,1,1.53607-5.40442,63.00544,63.00544,0,0,0-34.50238-8.641c-20.44727.63232-47.87793,6.39258-62.44092,30.24316-13.82666,22.64355-10.53613,52.73193-1.1416,72.50586,7.1123,14.96973,14.6123,24.86328,21.22949,33.59229,5.6131,7.40442,10.19745,13.45782,13.174,20.75848,1.46472-.30292,3.57367-.67877,6.52393-1.09064C100.17993,270.41846,85.16736,260.33014,71.94409,232.49719Z"/><path d="M302.34448,132.5376a63.05731,63.05731,0,0,0-35.14154,9.01141l.915,1.0047a6.49979,6.49979,0,0,1,1.69336,4.49707l-.00867.46655a56.75038,56.75038,0,0,1,32.34125-8.48267c72.97754,2.2561,71.96143,63.891,57.91211,93.46252-13.13922,27.65594-28.04675,37.79047-34.92719,55.7027,2.84387.3205,5.02277.61322,6.63647.85516,2.98029-7.04266,7.469-12.96942,12.93225-20.17615,6.61719-8.729,14.11719-18.62256,21.22949-33.59229,9.39453-19.77393,12.68506-49.8623-1.1416-72.50586C350.22241,138.93018,322.79175,133.16992,302.34448,132.5376Z"/><path d="M235.59277,176.80481l4.731,4.88287a102.77363,102.77363,0,0,1,16.2749-23.31909l.16675-8.97357-.06879-.0755Q244.85791,159.85037,235.59277,176.80481Z"/><path d="M238.96259,184.35022l-7.30414,7.07654-2.1189-2.187q-3.73389,8.60825-6.89624,18.46436c-2.80225,8.76367-5.02441,17.50586-6.78467,25.75684-1.73584-8.24561-3.93164-16.9834-6.70654-25.74072q-2.90771-9.17624-6.32654-17.26178l-9.7384-8.38763,3.71661-4.31525q-8.88785-16.68906-20.32373-27.326l1.97528,11.41748c34.2616,40.42181,37.335,120.34863,37.335,120.34863S218.10156,226.2973,238.96259,184.35022Z"/><path d="M162.62183,146.583l.239,1.38129a63.93467,63.93467,0,0,1,7.58252,5.69879l-1.4165-8.18787.63025-.6842q-2.69193-1.9606-5.49915-3.61243A6.4952,6.4952,0,0,0,162.62183,146.583Z"/><path d="M263.31238,146.93036l-.09869,5.31335a62.82805,62.82805,0,0,1,6.58893-4.72638l.00867-.46655a6.49979,6.49979,0,0,0-1.69336-4.49707l-.915-1.0047q-2.78549,1.67688-5.45758,3.66058Z"/><path d="M256.76538,149.395l-.16675,8.97357a72.00805,72.00805,0,0,1,6.61505-6.12488l.09869-5.31335-1.567-1.72076q-2.57785,1.91373-5.04877,4.10992Z"/><path d="M178.45532,161.847,176.48,150.42957a73.81863,73.81863,0,0,0-6.823-5.63855l-.63025.6842,1.4165,8.18787A76.38209,76.38209,0,0,1,178.45532,161.847Z"/><path d="M97.66235,261.02539c-6.23828-8.229-13.30908-17.55615-19.84717-31.31787-7.63672-16.07373-10.73975-41.75391.49463-60.15234,9.26025-15.16553,26.67041-23.24854,51.74707-24.02344a50.76712,50.76712,0,0,1,34.37476,11.5127l-1.57086-9.08014a56.5963,56.5963,0,0,0-33.00458-8.92963c-72.9776,2.2561-71.96143,63.891-57.91211,93.46252,13.22327,27.83295,28.23584,37.92126,35.05634,56.04956,1.85669-.25916,4.0473-.53235,6.624-.81079C110.022,277.3335,104.1062,269.52588,97.66235,261.02539Z"/><path d="M301.94312,145.53174c25.07666.7749,42.48682,8.85791,51.74707,24.02344,11.23438,18.39844,8.13135,44.07861.49463,60.15283-6.53809,13.76123-13.6084,23.08838-19.84717,31.31738-6.39978,8.442-12.27673,16.2019-15.88562,26.49738,2.55011.23364,4.76392.46161,6.67676.67712,6.88043-17.91223,21.788-28.04675,34.92719-55.7027,14.04932-29.57153,15.06543-91.20642-57.91211-93.46252a56.75038,56.75038,0,0,0-32.34125,8.48267l-.14691,7.9071A50.76165,50.76165,0,0,1,301.94312,145.53174Z"/><path d="M209.29517,282.44678a6.49061,6.49061,0,0,0,.31152,1.73834q2.23883-.00421,4.53418-.00446c2.66821,0,5.27216.0047,7.83081.0127a6.48887,6.48887,0,0,0,.31323-1.73c.01465-.35547,1.59277-35.938,12.74072-70.7998q8.70108-27.20847,21.387-43.2832l.186-10.01178a102.77363,102.77363,0,0,0-16.2749,23.31909l.67163.69318-2.03278,1.96936c-20.861,41.94708-23.1723,97.84546-23.1723,97.84546s-3.07336-79.92682-37.335-120.34863l2.45776,14.20679q9.08221,14.3508,15.7771,35.37683C207.77612,246.28809,209.281,282.08887,209.29517,282.44678Z"/><path d="M263.0509,161.00269a61.47426,61.47426,0,0,1,6.6048-5.57825l.14691-7.9071a62.82805,62.82805,0,0,0-6.58893,4.72638Z"/><path d="M172.33514,164.59888l-1.89185-10.93579a63.93467,63.93467,0,0,0-7.58252-5.69879l1.57086,9.08014A66.03776,66.03776,0,0,1,172.33514,164.59888Z"/><path d="M256.59863,158.36859l-.186,10.01178a74.52012,74.52012,0,0,1,6.63831-7.37769l.16278-8.759A72.00805,72.00805,0,0,0,256.59863,158.36859Z"/><path d="M180.91309,176.05383,178.45532,161.847a76.38209,76.38209,0,0,0-8.012-8.184l1.89185,10.93579A87.14291,87.14291,0,0,1,180.91309,176.05383Z"/><path d="M303.43591,350.39734l.78943,2.20129c-.10864.03894-.28979.09991-.55121.17847a109.85726,109.85726,0,0,0,3.51154,17.06171l1.74719,5.00153c-.05328.01862-.12451.04254-.2121.07062a149.60506,149.60506,0,0,0,5.68933,15.017S298.355,396,218.82831,396s-101.52222-6.072-101.52222-6.072a154.132,154.132,0,0,0,7.23376-20.12183,6.45048,6.45048,0,0,1,1.35992-5.19489,100.034,100.034,0,0,0,2.18353-12.20245,6.48851,6.48851,0,0,1,.22015-11.95123,29.836,29.836,0,0,0-3.49457-12.03625c-3.24719-.18958-6.21136-.37024-8.85767-.53632a13.034,13.034,0,0,1,3.09979,3.54272c8.28711,13.9873-2.71436,45.01367-7.65137,55.78564a6.50051,6.50051,0,0,0,4.17627,8.98c.93311.25732,23.75879,6.30664,103.25244,6.30664,78.4502,0,96.124-5.82812,97.88086-6.49268a6.50294,6.50294,0,0,0,3.6084-8.791c-4.93848-10.7749-15.93994-41.80127-7.65283-55.78857a13.04764,13.04764,0,0,1,2.9483-3.41919c-2.63464.17834-5.58044.37091-8.79565.57074C303.47046,334.55573,302.76373,342.36072,303.43591,350.39734Z"/><path d="M296.85388,341.02264a29.02513,29.02513,0,0,0,3.10193-.70233l-.11914.041L302.031,346.48h0l1.40491,3.9173c-.67218-8.03662.03455-15.84161,3.38153-21.81805q-3.48642.2168-7.37878.44226A40.76922,40.76922,0,0,0,296.85388,341.02264Z"/><path d="M132.52173,362.39893c.03082.00739.19427.04529.50043.10809q.9472-4.546,1.44214-8.71954c-3.56073-.5589-5.161-.96222-5.37958-1.01941a6.51412,6.51412,0,0,1-1.0014-.35925,100.034,100.034,0,0,1-2.18353,12.20245A6.49577,6.49577,0,0,1,132.52173,362.39893Z"/><path d="M298.87036,363.68329a45.37026,45.37026,0,0,0,5.8877-1.1535l-.1123.03809,2.53992,7.27094a109.85726,109.85726,0,0,1-3.51154-17.06171,53.2529,53.2529,0,0,1-6.42541,1.35919C297.63281,357.36566,298.19739,360.57214,298.87036,363.68329Z"/><path d="M132.34595,340.18408c.05383.01324.82446.19757,2.4967.48639a39.89543,39.89543,0,0,0-2.62292-11.82941c-2.60211-.14282-5.07782-.28351-7.41083-.41974a29.836,29.836,0,0,1,3.49457,12.03625A6.46429,6.46429,0,0,1,132.34595,340.18408Z"/><path d="M305.41431,385.24658c-10.37646,1.689-34.68066,4.25342-86.58594,4.25342-53.51025,0-80.76855-2.7998-92.47021-4.522,1.04364-2.75623,2.235-6.12415,3.39392-9.87689-.2251-.0509-.36212-.085-.41589-.09869a6.49666,6.49666,0,0,1-4.79633-5.19629,154.132,154.132,0,0,1-7.23376,20.12183S139.30157,396,218.82831,396s95.58179-6.072,95.58179-6.072a149.60506,149.60506,0,0,1-5.68933-15.017,47.86757,47.86757,0,0,1-6.45746,1.38507C303.34161,379.67645,304.4386,382.7168,305.41431,385.24658Z"/><path d="M133.02216,362.507c-.38336,1.84-.80792,3.71362-1.30267,5.64435-.04785.18665-.09851.36713-.14691.55273H300.06268c-.42426-1.63422-.82312-3.314-1.19232-5.02081-9.14972,1.38715-30.79968,3.52423-77.35449,3.52423C158.77606,367.20752,136.50677,363.2218,133.02216,362.507Z"/><path d="M131.5368,368.83856c-.56866,2.17236-1.17072,4.27417-1.78473,6.26257,3.26251.73822,25.39252,5.10638,91.76379,5.10638,48.47528,0,70.96893-2.30823,80.74744-3.9115-.63428-1.98828-1.26031-4.096-1.85309-6.28931-9.51764,1.48254-31.6488,3.701-78.89459,3.701C157.49683,373.70776,135.26929,369.63452,131.5368,368.83856Z"/><path d="M308.93286,374.84033l-1.74719-5.00153c.49908,1.76215,1.01624,3.46027,1.5351,5.07214C308.80835,374.88287,308.87958,374.85895,308.93286,374.84033Z"/><path d="M124.6438,367.09814a6.46763,6.46763,0,0,0-.10394,2.708c.47565-1.68079.934-3.4176,1.35992-5.19489A6.46328,6.46328,0,0,0,124.6438,367.09814Z"/><path d="M304.75806,362.52979a45.37026,45.37026,0,0,1-5.8877,1.1535c.3692,1.70679.76807,3.3866,1.19232,5.02081h6.7265a43.14971,43.14971,0,0,1-6.379,1.30261c.59277,2.1933,1.21881,4.301,1.85309,6.28931a47.86757,47.86757,0,0,0,6.45746-1.38507c-.51886-1.61188-1.036-3.31-1.5351-5.07214l-2.53992-7.27094Z"/><path d="M129.33618,375.00244c.05377.01373.1908.04779.41589.09869.614-1.9884,1.21606-4.09021,1.78473-6.26257-.40411-.08618-.59448-.13446-.59448-.13446h.63025c.0484-.18561.09906-.36609.14691-.55273.49475-1.93073.91931-3.80438,1.30267-5.64435-.30615-.06281-.4696-.10071-.50043-.10809a6.49577,6.49577,0,0,0-6.62195,2.21234c-.4259,1.77728-.88428,3.5141-1.35992,5.19489A6.49666,6.49666,0,0,0,129.33618,375.00244Z"/><path d="M131.5368,368.83856c3.73248.796,25.96,4.8692,89.97882,4.8692,47.24579,0,69.377-2.21851,78.89459-3.701-.11676-.43213-.23364-.86407-.34753-1.30261H131.57257C131.56079,368.74927,131.54858,368.79352,131.5368,368.83856Z"/><path d="M306.78918,368.7041h-6.7265c.11389.43854.23077.87048.34753,1.30261A43.14971,43.14971,0,0,0,306.78918,368.7041Z"/><path d="M130.94232,368.7041s.19037.04828.59448.13446c.01178-.045.024-.08929.03577-.13446Z"/><path d="M134.84265,340.67047c.14581,1.855.19214,3.7948.14966,5.80957H296.71094c-.03375-1.83887.01123-3.6618.14294-5.4574-6.96881,1.306-27.3512,3.96124-77.89172,3.96124C165.13263,344.98389,141.9093,341.891,134.84265,340.67047Z"/><path d="M134.96552,347.28888q-.10345,3.126-.50122,6.4986c9.69086,1.52112,33.92328,4.19641,84.49786,4.19641,46.51074,0,68.50287-2.243,78.28656-3.8476-.25787-2.16785-.43262-4.34363-.50879-6.50507-8.72675,1.47748-30.1593,3.85248-77.77777,3.85248C167.45074,351.4837,143.71637,348.70471,134.96552,347.28888Z"/><path d="M128.30347,340.45758a6.48851,6.48851,0,0,0-.22015,11.95123A59.11183,59.11183,0,0,0,128.30347,340.45758Z"/><path d="M304.22534,352.59863l-.78943-2.20129q.09933,1.18753.23822,2.37976C303.93555,352.69855,304.1167,352.63757,304.22534,352.59863Z"/><path d="M134.46429,353.78748q.39963-3.3739.50122-6.4986c-2.99066-.48383-4.235-.80884-4.235-.80884h4.26178c.04248-2.01477-.00385-3.95459-.14966-5.80957-1.67224-.28882-2.44287-.47314-2.4967-.48639a6.46429,6.46429,0,0,0-4.04248.2735,59.11183,59.11183,0,0,1-.22015,11.95123,6.51412,6.51412,0,0,0,1.0014.35925C129.30328,352.82526,130.90356,353.22858,134.46429,353.78748Z"/><path d="M296.71094,346.48H302.031l-2.19434-6.11871.11914-.041a29.02513,29.02513,0,0,1-3.10193.70233C296.72217,342.81824,296.67719,344.64117,296.71094,346.48Z"/><path d="M296.73993,347.63123c.07617,2.16144.25092,4.33722.50879,6.50507a53.2529,53.2529,0,0,0,6.42541-1.35919q-.13742-1.19174-.23822-2.37976L302.031,346.48A36.59719,36.59719,0,0,1,296.73993,347.63123Z"/><path d="M134.99231,346.48c-.00562.26685-.01782.53925-.02679.80884,8.75085,1.41583,32.48523,4.19482,83.99664,4.19482,47.61847,0,69.051-2.375,77.77777-3.85248-.01355-.3844-.022-.76788-.029-1.15118Z"/><path d="M130.73053,346.48s1.24432.325,4.235.80884c.009-.26959.02118-.542.02679-.80884Z"/><path d="M296.73993,347.63123A36.59719,36.59719,0,0,0,302.031,346.48h-5.32007C296.718,346.86334,296.72638,347.24683,296.73993,347.63123Z"/><path d="M215.49146,156.05811l-18.68768,21.69745q3.17963,5.97052,6.02179,12.70288l.11121.09576,13.11914-15.23145,13.48364,13.917q2.85974-6.59317,6.05322-12.43494Z"/><path d="M193.08716,182.0708l9.7384,8.38763q-2.84015-6.73224-6.02179-12.70288Z"/><path d="M229.53955,189.23975l2.1189,2.187,7.30414-7.07654q.66733-1.34189,1.36115-2.66254l-4.731-4.88287Q232.40344,182.65164,229.53955,189.23975Z"/><path d="M240.99536,182.38086l-.67163-.69318q-.69287,1.32175-1.36115,2.66254Z"/><path d="M283.754,216.97992c32.76318,1.10052,32.307,31.16541,25.99957,45.59015-4.99365,11.42017-10.55884,16.71246-14.02338,23.36847q3.8541.20361,7.26984.41681c.84619-1.33685,1.80133-2.71228,2.86353-4.23425a92.70449,92.70449,0,0,0,9.8457-16.94678c4.77783-10.92676,6.17822-27.37793-1.46338-39.498-4.165-6.60693-12.79834-14.60547-30.27344-15.19238a30.58762,30.58762,0,0,0-15.40228,3.36737l-.14435,7.76941A24.23513,24.23513,0,0,1,283.754,216.97992Z"/><path d="M245.0636,284.38422c.35828-5.74268,2.19611-27.66455,10.0293-44.97748l.251-13.50983c-13.84778,19.528-16.39441,51.457-16.79059,58.40784Q241.88156,284.3399,245.0636,284.38422Z"/><path d="M268.42578,221.62067l.14435-7.76941a32.85254,32.85254,0,0,0-6.58588,4.55878l-.17938,9.65656A32.95728,32.95728,0,0,1,268.42578,221.62067Z"/><path d="M261.80487,228.06659l.17938-9.65656a43.44544,43.44544,0,0,0-6.64032,7.48688l-.251,13.50983A54.89758,54.89758,0,0,1,261.80487,228.06659Z"/><path d="M283.53589,223.47656c9.46045.31738,16.09277,3.39014,19.71289,9.13232,4.8501,7.69287,3.94727,19.58545.54932,27.35742a79.34009,79.34009,0,0,1-8.59619,14.71582,59.29331,59.29331,0,0,0-6.482,10.91376q3.679.16617,7.01025.34265c3.46454-6.656,9.02972-11.9483,14.02338-23.36847,6.30743-14.42474,6.76361-44.48962-25.99957-45.59015a24.23513,24.23513,0,0,0-15.32819,4.64075l-.16534,8.89661C272.31586,226.03961,277.33179,223.26666,283.53589,223.47656Z"/><path d="M254.65985,262.71222l.433-23.30548c-7.83319,17.31293-9.671,39.2348-10.0293,44.97748q3.33453.04614,6.51935.10126A172.15294,172.15294,0,0,1,254.65985,262.71222Z"/><path d="M268.26044,230.51727l.16534-8.89661a32.95728,32.95728,0,0,0-6.62091,6.44592l-.23944,12.88409A42.74377,42.74377,0,0,1,268.26044,230.51727Z"/><path d="M261.56543,240.95068l.23944-12.88409a54.89758,54.89758,0,0,0-6.712,11.34015l-.433,23.30548A100.3235,100.3235,0,0,1,261.56543,240.95068Z"/><path d="M185.88806,284.36212c.18719-.00256.38031-.0047.56824-.0072l-1.14227-6.60278C185.63037,280.68762,185.80176,282.98285,185.88806,284.36212Z"/><path d="M121.19946,262.57007c-6.30737-14.42474-6.76361-44.48962,25.99957-45.59015,20.04352-.67328,29.77924,20.65271,34.4765,39.74066l-5.08838-29.4129c-6.48621-9.78864-15.60394-16.8443-28.41406-16.8443-.39355,0-.792.00684-1.19238.02051-17.47559.58691-26.10889,8.58594-30.27393,15.19287-7.6416,12.12061-6.24072,28.57129-1.46289,39.49756a92.70449,92.70449,0,0,0,9.8457,16.94678c1.0943,1.5683,2.07636,2.98157,2.94092,4.35657q3.36877-.2384,7.22827-.46564C131.79706,279.3219,126.21118,274.03156,121.19946,262.57007Z"/><path d="M185.314,277.75214l1.14227,6.60278q2.90909-.03854,5.94269-.069c-.08258-1.44714-.2583-3.96191-.60565-7.21069l-3.7392-21.61414c-2.36115-9.594-5.96851-19.85553-11.467-28.15344l5.08838,29.4129A162.74572,162.74572,0,0,1,185.314,277.75214Z"/><path d="M188.05414,255.46112l3.7392,21.61414A165.75134,165.75134,0,0,0,188.05414,255.46112Z"/><path d="M181.67554,256.72058c-4.69727-19.088-14.433-40.41394-34.4765-39.74066-32.76318,1.10052-32.30695,31.16541-25.99957,45.59015,5.01172,11.46149,10.5976,16.75183,14.05933,23.442q3.30762-.19446,6.99048-.37683a59.147,59.147,0,0,0-6.49854-10.95306,79.341,79.341,0,0,1-8.5957-14.71582c-3.39844-7.772-4.30127-19.66406.54883-27.35693,3.62012-5.74219,10.25293-8.81543,19.71338-9.13281.21924-.00781.43555-.01123.65186-.01123,25.57275,0,30.58051,51.19446,31.2995,60.99811,2.12158-.03693,4.29-.07111,6.51947-.10132-.0863-1.37927-.25769-3.6745-.574-6.61Z"/><path d="M181.67554,256.72058l3.63849,21.03156A162.74572,162.74572,0,0,0,181.67554,256.72058Z"/><path d="M334.17,296.06531s-3.45734,16.09821-4.60449,24.40222c0,0-1.17059.09772-3.32928.26373l.25079,3.51044c-4.662.33295-8.24237,1.58887-10.874,3.76685,8.95361-.60626,14.32379-1.04956,14.49359-1.06372a6.501,6.501,0,0,0,5.89795-5.58838c1.10059-7.9668,4.48633-23.76758,4.52051-23.92627a6.5,6.5,0,0,0-4.90576-7.70117c-.19989-.04572-1.35352-.299-3.85413-.674a46.85106,46.85106,0,0,0-2.14075,6.25745C332.868,295.7677,334.17,296.06531,334.17,296.06531Z"/><path d="M105.48346,320.68286c-1.95123-.13635-3.01129-.21533-3.01129-.21533-.477-9.41516-2.77753-23.95953-2.77753-23.95953a27.435,27.435,0,0,1,2.82782-.642,46.8738,46.8738,0,0,0-2.046-6.22864,27.746,27.746,0,0,0-2.78778.68781,6.49915,6.49915,0,0,0-4.41406,7.19824c.022.14209,2.252,14.30664,2.70605,23.27295a6.4998,6.4998,0,0,0,6.00781,6.15283c.17657.01312,5.36493.39618,13.96271.93579-2.61774-2.10126-6.14911-3.31671-10.722-3.64331Z"/><path d="M186.7052,285.79388l-.73767.02838h-.00012v.00012L136.56592,288.882l-.00012-.00024-6.05383,2.36676a28.2315,28.2315,0,0,0-2.48145-4.77087c-5.79071.40979-10.53137.83966-14.40613,1.2583a60.90557,60.90557,0,0,1,1.82129,6.36426c12.69769-1.31769,34.80078-2.777,72.13318-3.25659Z"/><path d="M300.44067,291.24854l-6.05347-2.36664-.00006.00012-27.17987-1.68335-.07678,4.13232c23.28271.63416,39.09088,1.6344,49.47662,2.55255a60.7982,60.7982,0,0,1,1.84491-6.36078c-4.19617-.38446-9.29767-.784-15.452-1.16742A28.53787,28.53787,0,0,0,300.44067,291.24854Z"/><path d="M214.14093,290.6806c15.04156,0,28.30939.13092,39.99274.35187l.08618-4.63818-9.17627-.5683-6.5531-.25372c.00714-.18463.02606-.62225.06287-1.26752q-7.88388-.083-16.58166-.11139a6.4979,6.4979,0,0,1-6.1814,4.50146H215.783a6.49889,6.49889,0,0,1-6.17627-4.5097c-3.43146.00653-6.74963.02112-9.97943.04187l1.12329,6.4931Q207.18158,290.68155,214.14093,290.6806Z"/><path d="M260.63239,291.1684q3.342.07654,6.49811.1626l.07678-4.13232-6.49365-.40216Z"/><path d="M193.03961,284.27917c-.216.00208-.42554.00458-.64062.00677.03748.657.05646,1.09973.06366,1.28632l-5.75745.22162.87366,5.04974q3.21643-.04138,6.5838-.07275Z"/><path d="M254.13367,291.03247q3.33691.06308,6.49872.13593l.08124-4.37189-6.49377-.40222Z"/><path d="M200.75055,290.72009l-1.12329-6.4931c-2.24011.0144-4.44214.03137-6.58765.05219l1.123,6.4917C196.31366,290.75092,198.50433,290.73358,200.75055,290.72009Z"/><path d="M108.95355,294.85864a53.68575,53.68575,0,0,0-1.95312-6.31189c-2.95026.41187-5.0592.78772-6.52393,1.09064a46.8738,46.8738,0,0,1,2.046,6.22864C103.96686,295.59009,106.05182,295.24261,108.95355,294.85864Z"/><path d="M323.13531,294.52c2.71167.2923,4.85107.56262,6.4892.79248a46.85106,46.85106,0,0,1,2.14075-6.25745c-1.61371-.24194-3.7926-.53467-6.63647-.85516A53.70427,53.70427,0,0,0,323.13531,294.52Z"/><path d="M316.60712,293.88354c2.47656.219,4.64008.43292,6.5282.63647a53.70427,53.70427,0,0,1,1.99347-6.32013c-1.91284-.21552-4.12665-.44348-6.67676-.67712A60.7982,60.7982,0,0,0,316.60712,293.88354Z"/><path d="M113.62439,287.736c-2.57666.27844-4.76727.55164-6.624.81079a53.68575,53.68575,0,0,1,1.95313,6.31189c1.82465-.24139,3.97321-.497,6.49213-.75842A60.90557,60.90557,0,0,0,113.62439,287.736Z"/><path d="M215.783,288.69482h.00732a6.4979,6.4979,0,0,0,6.1814-4.50146c-2.55865-.008-5.1626-.0127-7.83081-.0127q-2.29724,0-4.53418.00446A6.49889,6.49889,0,0,0,215.783,288.69482Z"/><path d="M219.04321,325.14453c-7.39514,0-14.9187-.11993-22.38129-.32434-25.56665-.49084-50.47736-1.68274-68.25275-2.69562a26.66754,26.66754,0,0,1,1.83374,2.68939,29.71206,29.71206,0,0,1,1.97681,4.0271c23.10626,1.26862,56.14355,2.70825,87.0813,2.70825,29.47528,0,58.98779-1.30658,80.13763-2.52777a29.591,29.591,0,0,1,2.03424-4.20758,26.69748,26.69748,0,0,1,1.7002-2.51642c-16.527.99683-39.21179,2.11487-63.3396,2.55688C232.98645,325.03784,226.0141,325.14453,219.04321,325.14453Z"/><path d="M239.8335,324.85443c-6.76587.124-13.64459.19489-20.53247.19489-7.49261,0-15.09418-.08429-22.6391-.22913,7.46259.20441,14.98614.32434,22.38129.32434C226.0141,325.14453,232.98645,325.03784,239.8335,324.85443Z"/><path d="M326.23627,320.73126c-2.79321.21484-7.25208.54474-13.01587.92889a19.51666,19.51666,0,0,0-6.403,6.91913c3.21521-.19983,6.161-.3924,8.79565-.57074,2.63159-2.178,6.21191-3.4339,10.874-3.76685Z"/><path d="M118.2702,321.52173c-5.70947-.35394-10.09894-.65112-12.78674-.83887l-.25421,3.55884c4.57288.3266,8.10425,1.54205,10.722,3.64331,2.6463.16608,5.61047.34674,8.85767.53632A19.482,19.482,0,0,0,118.2702,321.52173Z"/><path d="M130.24292,324.814a26.66754,26.66754,0,0,0-1.83374-2.68939c-3.71088-.21149-7.109-.415-10.139-.60284a19.482,19.482,0,0,1,6.5387,6.8996c2.333.13623,4.80872.27692,7.41083.41974A29.71206,29.71206,0,0,0,130.24292,324.814Z"/><path d="M301.4729,324.814a29.591,29.591,0,0,0-2.03424,4.20758q3.88632-.2244,7.37878-.44226a19.51666,19.51666,0,0,1,6.403-6.91913c-3.011.20068-6.37653.416-10.0473.63739A26.69748,26.69748,0,0,0,301.4729,324.814Z"/><path d="M288.71991,285.59589c-6.34442-.28644-13.46826-.54742-21.46863-.76483l-.044,2.36761,27.17987,1.68335.00006-.00012-6.054-2.36676C288.45618,286.20068,288.59033,285.90131,288.71991,285.59589Z"/><path d="M251.58295,284.48547c-.0708.96771-.1,1.53278-.10223,1.58972l-6.43713-.24921,9.17627.5683.03455-1.861C253.37543,284.51666,252.47974,284.501,251.58295,284.48547Z"/><path d="M260.75317,284.66882l-.03955,2.12769,6.49365.40216.044-2.36761Q264.09335,284.74518,260.75317,284.66882Z"/><path d="M254.21985,286.39429l6.49377.40222.03955-2.12769q-3.16608-.07233-6.49878-.13556Z"/><path d="M294.38721,288.8819l6.05347,2.36664A28.53787,28.53787,0,0,1,303,286.35535q-3.41226-.21259-7.26984-.41681A30.07461,30.07461,0,0,0,294.38721,288.8819Z"/><path d="M245.04358,285.826l-.05792-.0036s.02039-.51514.07794-1.43817q-3.18686-.044-6.51025-.07947c-.0368.64526-.05573,1.08289-.06287,1.26752Z"/><path d="M288.71991,285.59589c-.12958.30542-.26373.6048-.38666.91925l6.054,2.36676a30.07461,30.07461,0,0,1,1.343-2.94336Q292.39691,285.76239,288.71991,285.59589Z"/><path d="M245.04358,285.826l6.43713.24921c.00226-.05695.03143-.622.10223-1.58972q-3.18283-.0553-6.51935-.10126c-.05756.923-.07794,1.43817-.07794,1.43817Z"/><path d="M179.36859,284.46344c-14.83258.25842-27.06024.67529-37.11932,1.17175.12378.29272.25244.579.37012.87994l-6.05359,2.36664.00012.00024,49.40149-3.05963v-.00012l-6.495.25342C179.47015,286.01819,179.44067,285.44617,179.36859,284.46344Z"/><path d="M185.88806,284.36212c.05865.93658.07935,1.45972.07935,1.46014h.00012l.73767-.02838-.2489-1.439C186.26837,284.35742,186.07526,284.35956,185.88806,284.36212Z"/><path d="M128.03052,286.47766a28.2315,28.2315,0,0,1,2.48145,4.77087l6.05383-2.36676a29.984,29.984,0,0,0-1.307-2.86975Q131.4036,286.23853,128.03052,286.47766Z"/><path d="M192.399,284.28595q-3.03351.0304-5.94269.069l.2489,1.439,5.75745-.22162C192.45544,285.38568,192.43646,284.943,192.399,284.28595Z"/><path d="M179.47241,286.07227l6.495-.25c0-.00043-.02069-.52356-.07935-1.46014-2.22949.03021-4.39789.06439-6.51947.10132.07208.98273.10156,1.55475.10382,1.61224l6.495-.25342h0Z"/><path d="M142.24927,285.63519q-3.68637.18192-6.99048.37683a29.984,29.984,0,0,1,1.307,2.86975l6.05359-2.36664C142.50171,286.21417,142.373,285.92792,142.24927,285.63519Z"/><path d="M327.7854,312.792a6.47952,6.47952,0,0,1-1.78827,4.59143l.23914,3.34784c2.15869-.166,3.32928-.26373,3.32928-.26373,1.14716-8.304,4.60449-24.40222,4.60449-24.40222s-1.30206-.29761-4.54553-.75281A62.689,62.689,0,0,0,327.7854,312.792Z"/><path d="M105.69232,317.7583h.00006l.04773-.66858a6.47613,6.47613,0,0,1-1.525-4.29773,63.46213,63.46213,0,0,0-1.69263-16.926,27.435,27.435,0,0,0-2.82782.642s2.30054,14.54437,2.77753,23.95953c0,0,1.06006.079,3.01129.21533l.20892-2.92456Z"/><path d="M267.00958,297.83881c22.68329.625,38.21069,1.5979,48.43823,2.48578q.44568-3.38919,1.1593-6.441c-10.38574-.91815-26.19391-1.9184-49.47662-2.55255Z"/><path d="M187.57886,290.84363c-37.3324.47955-59.43549,1.9389-72.13318,3.25659q.69461,3.0369,1.12964,6.39581c12.50262-1.27667,34.541-2.7124,72.12531-3.16809Z"/><path d="M214.14087,297.18066c14.99933,0,28.22876.13245,39.87195.35516l.12085-6.50336c-11.68335-.22095-24.95117-.35187-39.99274-.35187q-6.9668,0-13.39038.03949l1.12329,6.4931Q207.78192,297.18124,214.14087,297.18066Z"/><path d="M194.16266,290.77087q-3.36887.03131-6.5838.07275l1.12177,6.48431q3.21643-.039,6.58459-.0683Z"/><path d="M260.51154,297.67462q3.341.07745,6.498.16418l.12091-6.50781q-3.15646-.086-6.49811-.1626Z"/><path d="M254.01282,297.53583c2.23108.04266,4.38287.08978,6.49872.13879l.12085-6.50623q-3.16644-.07251-6.49872-.13593Z"/><path d="M200.75055,290.72009c-2.24622.01349-4.43689.03082-6.58789.05078l1.12256,6.48877q3.22495-.02783,6.58862-.04645Z"/><path d="M307.59241,317.7583a26.53657,26.53657,0,0,1,3.68671-2.48932c-12.21576.80011-29.74567,1.80371-49.44049,2.48932Z"/><path d="M124.12366,317.7583h51.51129c-21.9715-.72845-42.02539-1.81628-55.47974-2.6377A26.66519,26.66519,0,0,1,124.12366,317.7583Z"/><path d="M104.21509,312.792a6.47613,6.47613,0,0,0,1.525,4.29773l.41541-5.81482c.71667.05121,1.40314.12769,2.083.20953-.37811-3.51587-.82745-6.99438-1.21631-9.8067.89484-.137,1.923-.28351,3.09082-.43652a60.2293,60.2293,0,0,0-1.15948-6.38257c-2.90173.384-4.98669.73145-6.43109,1.00739A63.46213,63.46213,0,0,1,104.21509,312.792Z"/><path d="M326.40991,301.45508c-.59619,2.94025-1.29651,6.49115-1.9256,9.9281.36047-.03473.70612-.08185,1.07648-.10828l.43634,6.10852a6.47952,6.47952,0,0,0,1.78827-4.59143,62.689,62.689,0,0,1,1.83911-17.47949c-1.63812-.22986-3.77753-.50018-6.4892-.79248a59.5876,59.5876,0,0,0-1.21179,6.42371C323.64221,301.12482,325.14056,301.29718,326.40991,301.45508Z"/><path d="M116.57532,300.496q-.43405-3.36264-1.12964-6.39581c-2.51892.26141-4.66748.517-6.49213.75842a60.2293,60.2293,0,0,1,1.15948,6.38257C111.91125,301.00555,114.04773,300.75415,116.57532,300.496Z"/><path d="M315.44781,300.32459c2.45984.21356,4.60089.42157,6.47571.61914a59.5876,59.5876,0,0,1,1.21179-6.42371c-1.88812-.20355-4.05164-.41748-6.5282-.63647Q315.8963,296.94168,315.44781,300.32459Z"/><path d="M303.1731,322.29755q.45428-.599.968-1.19794c-15.352,1.33887-38.96509,3.07611-64.30756,3.75482C263.9613,324.41241,286.64612,323.29437,303.1731,322.29755Z"/><path d="M127.41791,320.91779q.5256.60287.99127,1.20679c17.77539,1.01288,42.6861,2.20477,68.25275,2.69562C169.84045,324.08551,143.81836,322.25348,127.41791,320.91779Z"/><path d="M307.59241,317.7583H261.83862c-6.94861.24188-14.1593.4447-21.505.58392-6.99609.1911-14.1377.30243-21.29022.30243-7.61853,0-15.35834-.12671-23.01727-.34125-6.88611-.137-13.72449-.3241-20.39117-.54511H124.12366a25.86327,25.86327,0,0,1,3.29425,3.15948c16.40045,1.33569,42.42255,3.16772,69.244,3.9024,7.54492.14484,15.14648.22913,22.6391.22913,6.88788,0,13.7666-.07092,20.53247-.19489,25.34247-.67871,48.95557-2.416,64.30756-3.75482A25.86441,25.86441,0,0,1,307.59241,317.7583Z"/><path d="M196.02612,318.30341c7.65894.21454,15.39874.34125,23.01727.34125,7.15253,0,14.29413-.11133,21.29022-.30243-6.93518.13147-13.98486.20709-21.03259.20709C211.61206,318.54932,203.79181,318.45789,196.02612,318.30341Z"/><path d="M105.74011,317.08972l-.04773.66858h.69543A6.52966,6.52966,0,0,1,105.74011,317.08972Z"/><path d="M325.61169,317.7583h.41211c-.159.01135-.30725.03217-.46423.04529a6.46894,6.46894,0,0,1-3.54517,1.56946c-.09863.01111-2.08728.23254-5.58917.582a21.21351,21.21351,0,0,0-3.20483,1.70514c5.76379-.38416,10.22266-.71405,13.01587-.92889l-.23914-3.34784Q325.812,317.57861,325.61169,317.7583Z"/><path d="M110.06323,319.38135a6.46809,6.46809,0,0,1-3.58606-1.54645c-.26312-.02423-.51593-.05737-.78479-.0766l-.20892,2.92456c2.68781.18774,7.07727.48492,12.78674.83887a21.368,21.368,0,0,0-3.2168-1.66888C111.93127,319.56757,110.16156,319.39124,110.06323,319.38135Z"/><path d="M322.0144,319.373a6.46894,6.46894,0,0,0,3.54517-1.56946,29.01011,29.01011,0,0,0-9.13434,2.15143C319.92712,319.60559,321.91577,319.38416,322.0144,319.373Z"/><path d="M106.38782,317.7583h17.73584a26.66519,26.66519,0,0,0-3.96844-2.6377c-4.76941-.29114-8.72516-.54938-11.62323-.74512-.09015-.958-.18964-1.92572-.29346-2.89105-.67987-.08185-1.36633-.15833-2.083-.20953l-.41541,5.81482A6.52966,6.52966,0,0,0,106.38782,317.7583Z"/><path d="M311.27911,315.269a26.53657,26.53657,0,0,0-3.68671,2.48932h18.01929q.20087-.17944.38544-.37488l-.43634-6.10852c-.37036.02643-.716.07355-1.07648.10828-.186,1.01624-.36652,2.02393-.53534,3.0011C320.91162,314.61139,316.59,314.92114,311.27911,315.269Z"/><path d="M110.06323,319.38135c.09833.00989,1.868.18622,4.99017.4715a29.01877,29.01877,0,0,0-8.57623-2.01794A6.46809,6.46809,0,0,0,110.06323,319.38135Z"/><path d="M326.0238,317.7583h-.41211c-.01715.01532-.03485.03015-.05212.04529C325.71655,317.79047,325.86481,317.76965,326.0238,317.7583Z"/><path d="M127.41791,320.91779c-5.16736-.4209-9.385-.79266-12.3645-1.06494a21.368,21.368,0,0,1,3.2168,1.66888c3.03.18781,6.4281.39136,10.139.60284Q127.94327,321.52051,127.41791,320.91779Z"/><path d="M304.14105,321.09961q-.51251.59894-.968,1.19794c3.67078-.22144,7.03632-.43671,10.0473-.63739a21.21351,21.21351,0,0,1,3.20483-1.70514C313.39069,320.25781,309.22137,320.65662,304.14105,321.09961Z"/><path d="M105.69238,317.7583h0c.26886.01923.52167.05237.78479.0766-.02972-.02557-.06012-.05041-.08936-.0766Z"/><path d="M304.14105,321.09961c5.08032-.443,9.24963-.8418,12.28418-1.14459a29.01011,29.01011,0,0,1,9.13434-2.15143c.01727-.01514.035-.03.05212-.04529H307.59241A25.86441,25.86441,0,0,0,304.14105,321.09961Z"/><path d="M124.12366,317.7583H106.38782c.02924.02618.05963.051.08936.0766a29.01877,29.01877,0,0,1,8.57623,2.01794c2.97949.27228,7.19714.644,12.3645,1.06494A25.86327,25.86327,0,0,0,124.12366,317.7583Z"/><path d="M215.86829,299.11774a8.81166,8.81166,0,0,0-5.99731,2.35394h11.99469A8.81181,8.81181,0,0,0,215.86829,299.11774Z"/><path d="M207.01447,307.97156a8.80685,8.80685,0,0,0,1.00458,4.0874c3.69128.05481,7.37421.08557,11.02417.08557q2.3215,0,4.64148-.01733a8.81,8.81,0,0,0,1.03748-4.15564Z"/><path d="M221.86566,301.47168H209.871a8.82011,8.82011,0,0,0-2.85651,6.49988h17.7077A8.82011,8.82011,0,0,0,221.86566,301.47168Z"/><path d="M215.86829,316.82544a8.81185,8.81185,0,0,0,5.99713-2.35376h-11.9942A8.81169,8.81169,0,0,0,215.86829,316.82544Z"/><path d="M223.68469,312.1272q-2.31985.01547-4.64148.01733c-3.65,0-7.33289-.03076-11.02417-.08557a8.87236,8.87236,0,0,0,1.85217,2.41272h11.9942A8.87365,8.87365,0,0,0,223.68469,312.1272Z"/><path d="M190.73364,309.07959l-1.562-9.02875a7.90809,7.90809,0,0,0-7.137,11.253q4.84772.20251,9.78741.36639A6.44525,6.44525,0,0,1,190.73364,309.07959Z"/><path d="M191.82214,311.67023q2.15845.0705,4.32758.13129a7.88313,7.88313,0,0,0,.98865-3.83l-.45367-2.62225a7.91908,7.91908,0,0,0-7.46924-5.30066c-.01477,0-.029.00214-.04376.0022l1.562,9.02875A6.44525,6.44525,0,0,0,191.82214,311.67023Z"/><path d="M197.13837,307.97156a7.892,7.892,0,0,0-.45367-2.62225Z"/><path d="M191.82214,311.67023q-4.93524-.161-9.78741-.36639a7.903,7.903,0,0,0,12.44714,2.57544A6.48244,6.48244,0,0,1,191.82214,311.67023Z"/><path d="M196.14972,311.80151q-2.16815-.06125-4.32758-.13129a6.48244,6.48244,0,0,0,2.65973,2.209A7.94766,7.94766,0,0,0,196.14972,311.80151Z"/><path d="M164.25677,300.81189a7.155,7.155,0,0,0-6.85681,9.2149c4.31744.26471,8.81506.51984,13.44189.75647a7.16087,7.16087,0,0,0-6.58508-9.97137Z"/><path d="M164.25677,315.13129a7.16054,7.16054,0,0,0,6.58508-4.348c-4.62683-.23663-9.12445-.49176-13.44189-.75647A7.16009,7.16009,0,0,0,164.25677,315.13129Z"/><path d="M140.77423,301.52484a6.44677,6.44677,0,0,0-6.44678,6.44672c0,.15405.01239.30505.023.45642,3.88031.30011,8.15021.61414,12.71777.92755a6.43663,6.43663,0,0,0-6.294-7.83069Z"/><path d="M140.77423,314.41834a6.44629,6.44629,0,0,0,6.294-5.06281c-4.56757-.31342-8.83746-.62744-12.71777-.92755A6.44232,6.44232,0,0,0,140.77423,314.41834Z"/><path d="M118.40759,302.2655a6.36734,6.36734,0,0,0-1.60376.20953c.14838,1.45648.26373,2.95587.33459,4.51422,1.98456.17963,4.44037.39624,7.29456.63727A5.902,5.902,0,0,0,118.40759,302.2655Z"/><path d="M118.40759,313.67767c.11292,0,.22308-.01013.33447-.01593q-.95627-.08505-1.80939-.16235A6.37443,6.37443,0,0,0,118.40759,313.67767Z"/><path d="M116.80383,302.475a5.62537,5.62537,0,0,0,.12885,11.02435q.85172.07718,1.80939.16235a5.85561,5.85561,0,0,0,5.70935-5.69019c0-.11652-.01117-.23029-.01843-.345-2.85419-.241-5.31-.45764-7.29456-.63727C117.06757,305.43091,116.95221,303.93152,116.80383,302.475Z"/><path d="M237.99786,301.47168h9.04663a7.90051,7.90051,0,0,0-9.04663,0Z"/><path d="M234.59821,307.97156a7.87529,7.87529,0,0,0,1.07989,3.9801c4.69977-.10443,9.35181-.2467,13.914-.41992a7.87771,7.87771,0,0,0,.852-3.56018Z"/><path d="M234.59821,307.97156h15.84589a7.90963,7.90963,0,0,0-3.3996-6.49988h-9.04663A7.90969,7.90969,0,0,0,234.59821,307.97156Z"/><path d="M242.52118,315.89453a7.88042,7.88042,0,0,0,4.523-1.42285h-9.046A7.88042,7.88042,0,0,0,242.52118,315.89453Z"/><path d="M249.5921,311.53174c-4.56219.17322-9.21423.31549-13.914.41992a7.95446,7.95446,0,0,0,2.32007,2.52h9.046A7.94909,7.94909,0,0,0,249.5921,311.53174Z"/><path d="M266.185,310.76233q4.12692-.22476,8.06219-.4693a7.1459,7.1459,0,0,0-6.76733-9.48114c-.17755,0-.35168.01386-.526.02655l-.13477,7.25385A6.46715,6.46715,0,0,1,266.185,310.76233Z"/><path d="M260.32019,307.97156a7.11873,7.11873,0,0,0,.69379,3.05914q2.61575-.12955,5.171-.26837a6.46715,6.46715,0,0,0,.63409-2.67l.13477-7.25385A7.15492,7.15492,0,0,0,260.32019,307.97156Z"/><path d="M263.27484,313.75745a7.1426,7.1426,0,0,0,10.97235-3.46442q-3.93265.24335-8.06219.4693A6.5162,6.5162,0,0,1,263.27484,313.75745Z"/><path d="M266.185,310.76233q-2.55185.139-5.171.26837a7.17638,7.17638,0,0,0,2.26086,2.72675A6.5162,6.5162,0,0,0,266.185,310.76233Z"/><path d="M297.40912,307.97156A6.44683,6.44683,0,1,0,284.73,309.59564c4.54779-.32355,8.78986-.65179,12.646-.96875A6.53047,6.53047,0,0,0,297.40912,307.97156Z"/><path d="M290.96234,314.41834a6.44745,6.44745,0,0,0,6.4137-5.79144c-3.85614.317-8.09821.6452-12.646.96875A6.44347,6.44347,0,0,0,290.96234,314.41834Z"/><path d="M315.18958,302.54395a6.35909,6.35909,0,0,0-1.8606-.27844,5.892,5.892,0,0,0-6.0329,5.50159c2.97162-.27136,5.527-.51715,7.56354-.71973C314.9292,305.49292,315.043,303.99707,315.18958,302.54395Z"/><path d="M313.329,313.67767a5.88225,5.88225,0,0,0,6.04382-5.70612,5.75054,5.75054,0,0,0-4.18323-5.42761c-.14661,1.45313-.26038,2.949-.33,4.50342-2.03656.20258-4.59192.44836-7.56354.71973-.00256.06842-.01093.13544-.01093.20447A5.88225,5.88225,0,0,0,313.329,313.67767Z"/><path class="cls-1" d="M196.80377,177.75555l18.68768-21.69745,20.10132,20.7467q9.22907-16.91959,21.10382-27.48529L218.8999,107.81494l-3.15356-3.46289-3.48627,3.78448-36.28278,39.3869.50275,2.90613Q187.88083,161.03787,196.80377,177.75555Z"/><path class="cls-1" d="M202.82556,190.45844q3.4129,8.09006,6.32654,17.26178c2.7749,8.75732,4.9707,17.49512,6.70654,25.74072,1.76025-8.251,3.98242-16.99316,6.78467-25.75684q3.15408-9.8638,6.89624-18.46436l-13.48364-13.917L202.93677,190.5542Z"/><path class="cls-1" d="M128.03052,286.47766c-.86456-1.375-1.84662-2.78827-2.94092-4.35657a92.70449,92.70449,0,0,1-9.8457-16.94678c-4.77783-10.92627-6.17871-27.377,1.46289-39.49756,4.165-6.60693,12.79834-14.606,30.27393-15.19287.40039-.01367.79883-.02051,1.19238-.02051,12.81012,0,21.92786,7.05566,28.41406,16.8443,5.49847,8.29791,9.10583,18.55945,11.467,28.15344a165.75134,165.75134,0,0,1,3.7392,21.61414c.34735,3.24878.52307,5.76355.60565,7.21069.21509-.0022.42462-.0047.64063-.00677,2.14551-.02081,4.34753-.03778,6.58765-.05219,3.2298-.02075,6.548-.03534,9.97943-.04187a6.49061,6.49061,0,0,1-.31152-1.73834c-.01416-.35791-1.519-36.15869-12.605-71.01611q-6.68454-21.01849-15.7771-35.37683a87.14291,87.14291,0,0,0-8.57794-11.455,66.03776,66.03776,0,0,0-7.9035-7.55444,50.76712,50.76712,0,0,0-34.37476-11.5127c-25.07666.7749-42.48682,8.85791-51.74707,24.02344-11.23437,18.39844-8.13135,44.07861-.49463,60.15234,6.53809,13.76172,13.60889,23.08887,19.84717,31.31787,6.44385,8.50049,12.35962,16.30811,15.962,26.71057C117.49915,287.31732,122.23981,286.88745,128.03052,286.47766Z"/><path class="cls-1" d="M301.94312,145.53174a50.76165,50.76165,0,0,0-32.28741,9.8927,61.47426,61.47426,0,0,0-6.6048,5.57825,74.52012,74.52012,0,0,0-6.63831,7.37769q-12.66321,16.05716-21.387,43.2832c-11.14795,34.86182-12.72607,70.44434-12.74072,70.7998a6.48887,6.48887,0,0,1-.31323,1.73q8.70264.0271,16.58166.11139c.39618-6.95087,2.94281-38.87988,16.79059-58.40784a43.44544,43.44544,0,0,1,6.64032-7.48688,32.85254,32.85254,0,0,1,6.58588-4.55878,30.58762,30.58762,0,0,1,15.40228-3.36737c17.4751.58691,26.1084,8.58545,30.27344,15.19238,7.6416,12.12012,6.24121,28.57129,1.46338,39.498a92.70449,92.70449,0,0,1-9.8457,16.94678c-1.06219,1.522-2.01733,2.8974-2.86353,4.23425,6.15436.38342,11.25586.783,15.452,1.16742,3.60889-10.29547,9.48584-18.05536,15.88562-26.49738,6.23877-8.229,13.30908-17.55615,19.84717-31.31738,7.63672-16.07422,10.73975-41.75439-.49463-60.15283C344.42993,154.38965,327.01978,146.30664,301.94312,145.53174Z"/><path class="cls-1" d="M219.301,331.54932c-30.93774,0-63.975-1.43964-87.0813-2.70825a39.89543,39.89543,0,0,1,2.62292,11.82941c7.06665,1.22052,30.29,4.31342,84.11951,4.31342,50.54053,0,70.92291-2.65521,77.89172-3.96124a40.76922,40.76922,0,0,1,2.58478-12.0011C278.28882,330.24274,248.77631,331.54932,219.301,331.54932Z"/><path class="cls-1" d="M221.51587,380.20752c-66.37128,0-88.50128-4.36816-91.76379-5.10638-1.15887,3.75275-2.35028,7.12067-3.39392,9.87689,11.70166,1.72217,38.96,4.522,92.47021,4.522,51.90527,0,76.20947-2.56445,86.58594-4.25342-.97571-2.52979-2.07269-5.57013-3.151-8.95056C292.4848,377.89929,269.99115,380.20752,221.51587,380.20752Z"/><path class="cls-1" d="M134.46429,353.78748q-.4942,4.17215-1.44214,8.71954c3.48462.71478,25.75391,4.7005,88.49371,4.7005,46.55481,0,68.20477-2.13708,77.35449-3.52423-.673-3.11115-1.23755-6.31763-1.62164-9.547-9.78369,1.60455-31.77582,3.8476-78.28656,3.8476C168.38757,357.98389,144.15515,355.30859,134.46429,353.78748Z"/><path class="cls-1" d="M260.75317,284.66882q3.34067.07636,6.49811.16223c8.00037.21741,15.12421.47839,21.46863.76483a59.29331,59.29331,0,0,1,6.482-10.91376,79.34009,79.34009,0,0,0,8.59619-14.71582c3.39795-7.772,4.30078-19.66455-.54932-27.35742-3.62012-5.74219-10.25244-8.81494-19.71289-9.13232-6.2041-.2099-11.22,2.563-15.27545,7.04071a42.74377,42.74377,0,0,0-6.695,10.43341,100.3235,100.3235,0,0,0-6.90558,21.76154,172.15294,172.15294,0,0,0-3.0769,21.77325c.89679.01556,1.79248.03119,2.67145.04779Q257.58856,284.59625,260.75317,284.66882Z"/><path class="cls-1" d="M148.06909,223.46533c-.21631,0-.43262.00342-.65186.01123-9.46045.31738-16.09326,3.39063-19.71338,9.13281-4.8501,7.69287-3.94727,19.585-.54883,27.35693a79.341,79.341,0,0,0,8.5957,14.71582,59.147,59.147,0,0,1,6.49854,10.95306c10.05908-.49646,22.28674-.91333,37.11932-1.17175C178.6496,274.65979,173.64185,223.46533,148.06909,223.46533Z"/><path class="cls-1" d="M315.44781,300.32459c-10.22754-.88788-25.75494-1.86078-48.43823-2.48578q-3.1539-.08688-6.498-.16418c-2.11584-.049-4.26764-.09613-6.49872-.13879-11.64319-.22272-24.87262-.35516-39.87195-.35516q-6.36227,0-12.267.03253-3.36859.01822-6.58862.04645-3.37006.02911-6.58459.0683c-37.58435.45569-59.62268,1.89142-72.12531,3.16809-2.52759.25812-4.66406.50952-6.46228.74518-1.16785.153-2.196.2995-3.09082.43652.38886,2.81232.8382,6.29083,1.21631,9.8067.10382.96533.20331,1.933.29346,2.89105,2.89807.19574,6.85382.454,11.62323.74512,13.45435.82141,33.50824,1.90924,55.47974,2.6377,6.66669.221,13.50507.40814,20.39117.54511,7.76569.15448,15.58594.24591,23.2749.24591,7.04773,0,14.09741-.07562,21.03259-.20709,7.3457-.13922,14.5564-.342,21.505-.58392,19.69482-.68561,37.22473-1.68921,49.44049-2.48932,5.31085-.34784,9.63251-.65759,12.66986-.8847.16882-.97717.34937-1.98486.53534-3.0011.62909-3.437,1.32941-6.98785,1.9256-9.9281-1.26935-.1579-2.7677-.33026-4.48639-.51135C320.04871,300.74615,317.90765,300.53815,315.44781,300.32459ZM313.329,302.2655a6.35909,6.35909,0,0,1,1.8606.27844,5.75054,5.75054,0,0,1,4.18323,5.42761,6.05382,6.05382,0,0,1-12.08765,0c0-.069.00836-.136.01093-.20447A5.892,5.892,0,0,1,313.329,302.2655Zm-22.36664-.74066a6.44673,6.44673,0,0,1,6.44678,6.44672,6.53047,6.53047,0,0,1-.03308.65533,6.44692,6.44692,0,1,1-6.4137-7.10205Zm-24.00848-.6864c.17432-.0127.34845-.02655.526-.02655a7.26331,7.26331,0,1,1-.526.02655Zm-24.43268-.78979a7.93329,7.93329,0,1,1-4.52332,1.423A7.8802,7.8802,0,0,1,242.52118,300.04865Zm-26.65289-.93091a8.87773,8.87773,0,1,1-5.99731,2.35394A8.81181,8.81181,0,0,1,215.86829,299.11774Zm-26.69659.93311c.01477-.00006.029-.0022.04376-.0022a8.32813,8.32813,0,1,1-.04376.0022Zm-24.91492.761a7.155,7.155,0,1,1-7.15973,7.15967A7.15968,7.15968,0,0,1,164.25677,300.81189Zm-23.48254.713a6.44675,6.44675,0,1,1-6.42377,6.90314c-.01062-.15137-.023-.30237-.023-.45642A6.44677,6.44677,0,0,1,140.77423,301.52484Zm-23.9704.9502a6.36734,6.36734,0,0,1,1.60376-.20953,5.902,5.902,0,0,1,6.02539,5.361c.00726.11475.01843.22852.01843.345a5.85561,5.85561,0,0,1-5.70935,5.69019c-.11139.0058-.22156.01593-.33447.01593a6.37443,6.37443,0,0,1-1.47491-.17828,5.62537,5.62537,0,0,1-.12885-11.02435Z"/></g></svg>