<!DOCTYPE svg PUBLIC "-//W3C//DTD SVG 20010904//EN" "http://www.w3.org/TR/2001/REC-SVG-20010904/DTD/svg10.dtd"><svg version="1.0" xmlns="http://www.w3.org/2000/svg" width="80px" height="80px" viewBox="0 0 800 800" preserveAspectRatio="xMidYMid meet"><g id="layer101" fill="#090909" stroke="none"><path d="M310 653 c-34 -18 -80 -74 -80 -98 0 -8 17 -15 41 -17 35 -3 43 0 51 18 26 56 100 50 117 -11 23 -84 -28 -139 -100 -107 -28 12 -87 17 -96 8 -2 -2 7 -55 19 -119 l22 -117 118 0 118 0 0 40 0 40 -84 0 c-78 0 -84 1 -90 23 -13 48 -8 56 24 47 43 -12 94 5 129 46 27 30 31 42 31 95 0 33 -7 73 -15 89 -35 67 -137 98 -205 63z"/><path d="M560 605 c0 -4 19 -32 41 -65 l42 -58 -42 -59 -41 -58 37 -3 c37 -3 46 3 73 48 8 12 14 9 35 -17 21 -26 34 -33 61 -33 19 0 34 2 34 5 0 3 -18 30 -40 60 l-40 54 40 57 c22 32 40 61 40 66 0 4 -15 8 -34 8 -28 0 -38 -6 -56 -35 -12 -19 -25 -35 -28 -35 -4 0 -17 16 -30 35 -18 29 -28 35 -57 35 -19 0 -35 -2 -35 -5z"/></g></svg>