<!DOCTYPE svg PUBLIC "-//W3C//DTD SVG 20010904//EN" "http://www.w3.org/TR/2001/REC-SVG-20010904/DTD/svg10.dtd"><svg version="1.0" xmlns="http://www.w3.org/2000/svg" width="80px" height="80px" viewBox="0 0 800 800" preserveAspectRatio="xMidYMid meet"><g id="layer101" fill="#0d0d0d" stroke="none"><path d="M174 629 c-23 -26 -26 -45 -8 -60 8 -6 14 -8 14 -3 0 4 11 -3 25 -16 16 -15 23 -30 20 -41 -7 -21 11 -34 28 -20 10 7 24 -3 55 -39 l43 -50 -65 -61 c-36 -33 -76 -69 -89 -79 -20 -16 -53 -97 -43 -107 1 -2 21 3 43 10 30 9 60 34 119 97 43 47 81 86 84 87 3 1 39 -37 80 -84 73 -83 87 -93 141 -106 27 -7 27 -7 17 33 -8 32 -30 59 -101 125 l-90 85 20 23 c11 12 29 33 40 45 15 17 27 22 41 18 22 -7 39 8 21 19 -7 5 -1 17 17 36 15 15 31 26 35 23 8 -5 23 14 25 31 1 21 -38 54 -56 47 -11 -4 -19 -11 -18 -15 0 -5 -13 -22 -28 -38 -20 -21 -31 -26 -40 -18 -17 14 -29 -7 -15 -25 9 -11 0 -23 -39 -56 -50 -42 -51 -42 -73 -24 -67 56 -77 67 -66 80 14 17 1 37 -19 29 -16 -6 -65 33 -57 46 6 8 -12 22 -32 25 -6 1 -20 -7 -29 -17z"/></g></svg>