<?xml version="1.0"?>
<svg width="800" height="800" xmlns="http://www.w3.org/2000/svg" xmlns:svg="http://www.w3.org/2000/svg" preserveAspectRatio="xMidYMid meet" version="1.0">
 <g class="layer">
  <title>Layer 1</title>
  <g fill="#0a0a0a" id="layer101">
   <path d="m255,660c-60,-29 -96,-100 -59,-114c35,-13 59,-5 76,24c34,59 118,30 118,-40c0,-42 -26,-70 -66,-70c-29,0 -34,-3 -34,-22c0,-29 8,-40 45,-58c36,-19 44,-54 19,-81c-24,-27 -41,-24 -75,12c-25,27 -33,30 -65,25c-30,-6 -34,-10 -28,-29c12,-39 34,-65 69,-81c129,-62 265,75 171,173l-25,26l29,17c33,19 56,81 46,121c-9,37 -55,88 -93,103c-45,19 -81,17 -128,-6z" fill="#ffffff" id="svg_1"/>
   <path d="m560,595c0,-4 19,-32 41,-65l42,-58l-42,-59l-41,-58l37,-3c37,-3 46,3 73,48c8,12 14,9 35,-17c21,-26 34,-33 61,-33c19,0 34,2 34,5c0,3 -18,30 -40,60l-40,54l40,57c22,32 40,61 40,66c0,4 -15,8 -34,8c-28,0 -38,-6 -56,-35c-12,-19 -25,-35 -28,-35c-4,0 -17,16 -30,35c-18,29 -28,35 -57,35c-19,0 -35,-2 -35,-5z" fill="#ffffff" id="svg_2"/>
  </g>
 </g>
</svg>