<?xml version="1.0"?>
<svg width="800" height="800" xmlns="http://www.w3.org/2000/svg" xmlns:svg="http://www.w3.org/2000/svg" preserveAspectRatio="xMidYMid meet" version="1.0">
 <g class="layer">
  <title>Layer 1</title>
  <g fill="#090909" id="layer101">
   <path d="m310,653c-34,-18 -80,-74 -80,-98c0,-8 17,-15 41,-17c35,-3 43,0 51,18c26,56 100,50 117,-11c23,-84 -28,-139 -100,-107c-28,12 -87,17 -96,8c-2,-2 7,-55 19,-119l22,-117l118,0l118,0l0,40l0,40l-84,0c-78,0 -84,1 -90,23c-13,48 -8,56 24,47c43,-12 94,5 129,46c27,30 31,42 31,95c0,33 -7,73 -15,89c-35,67 -137,98 -205,63z" fill="#ffffff" id="svg_1"/>
   <path d="m560,605c0,-4 19,-32 41,-65l42,-58l-42,-59l-41,-58l37,-3c37,-3 46,3 73,48c8,12 14,9 35,-17c21,-26 34,-33 61,-33c19,0 34,2 34,5c0,3 -18,30 -40,60l-40,54l40,57c22,32 40,61 40,66c0,4 -15,8 -34,8c-28,0 -38,-6 -56,-35c-12,-19 -25,-35 -28,-35c-4,0 -17,16 -30,35c-18,29 -28,35 -57,35c-19,0 -35,-2 -35,-5z" fill="#ffffff" id="svg_2"/>
  </g>
 </g>
</svg>