<!DOCTYPE svg PUBLIC "-//W3C//DTD SVG 20010904//EN" "http://www.w3.org/TR/2001/REC-SVG-20010904/DTD/svg10.dtd"><svg version="1.0" xmlns="http://www.w3.org/2000/svg" width="80px" height="80px" viewBox="0 0 800 800" preserveAspectRatio="xMidYMid meet"><g id="layer101" fill="#111111" stroke="none"><path d="M235 644 c-71 -37 -105 -93 -105 -174 1 -50 32 -113 71 -140 19 -13 36 -25 38 -26 2 -2 -4 -19 -13 -38 -28 -60 -16 -96 34 -96 25 0 123 51 135 70 11 17 35 11 35 -9 0 -29 46 -78 85 -91 75 -25 150 27 150 104 0 55 -26 93 -80 116 l-44 19 34 52 c38 56 48 84 43 120 -4 30 -53 37 -96 15 -29 -15 -30 -15 -60 23 -17 21 -46 45 -65 55 -44 20 -123 21 -162 0z m151 -23 c41 -19 74 -54 74 -78 0 -22 -14 -14 -32 17 -33 58 -132 76 -194 35 -35 -22 -64 -74 -64 -112 0 -48 17 -82 57 -119 24 -22 31 -34 21 -34 -27 0 -75 54 -89 99 -10 34 -10 52 0 89 15 57 34 79 86 103 51 24 89 23 141 0z m-20 -37 c19 -9 41 -29 49 -44 14 -28 14 -29 -62 -104 -74 -74 -76 -76 -99 -61 -81 53 -77 162 7 207 42 22 61 23 105 2z m231 -40 c7 -19 -20 -79 -55 -122 l-28 -34 -25 26 -25 25 -51 -54 -50 -54 23 -22 c13 -12 24 -25 24 -28 0 -9 -112 -78 -139 -86 -57 -17 -43 47 31 145 58 78 140 152 211 191 60 33 75 35 84 13z m-99 -169 c20 -14 41 -25 45 -25 5 0 24 -7 42 -15 56 -27 73 -100 34 -149 -16 -21 -29 -26 -64 -26 -54 0 -85 26 -109 91 -9 25 -23 54 -30 65 -12 16 -11 22 12 51 15 17 28 32 30 32 2 1 20 -10 40 -24z"/><path d="M496 221 c-4 -5 5 -18 19 -27 28 -18 72 -12 82 12 8 20 -5 30 -19 16 -15 -15 -50 -16 -65 -1 -7 7 -13 7 -17 0z"/></g><g id="layer102" fill="#f1f1f1" stroke="none"><path d="M245 621 c-52 -24 -71 -46 -86 -103 -10 -37 -10 -55 0 -89 14 -45 62 -99 89 -99 10 0 3 12 -21 34 -40 37 -57 71 -57 119 0 38 29 90 64 112 62 41 161 23 194 -35 18 -31 32 -39 32 -17 0 41 -84 97 -145 97 -16 0 -48 -9 -70 -19z"/><path d="M513 531 c-71 -39 -153 -113 -211 -191 -74 -98 -88 -162 -31 -145 27 8 139 77 139 86 0 3 -11 16 -24 28 l-23 22 50 54 51 54 25 -25 25 -26 28 34 c53 65 73 138 36 138 -7 0 -36 -13 -65 -29z"/><path d="M428 367 c-23 -29 -24 -35 -12 -51 7 -11 21 -40 30 -65 24 -65 55 -91 109 -91 35 0 48 5 64 26 39 49 22 122 -34 149 -18 8 -37 15 -42 15 -4 0 -25 11 -45 25 -20 14 -38 25 -40 24 -2 0 -15 -15 -30 -32z m117 -157 c12 0 26 5 33 12 14 14 27 4 19 -16 -10 -24 -54 -30 -82 -12 -14 9 -23 22 -19 27 4 7 10 7 17 0 6 -6 20 -11 32 -11z"/></g></svg>