<?xml version="1.0"?>
<svg width="800" height="800" xmlns="http://www.w3.org/2000/svg" xmlns:svg="http://www.w3.org/2000/svg" preserveAspectRatio="xMidYMid meet" version="1.0">
 <g class="layer">
  <title>Layer 1</title>
  <g fill="#0d0d0d" id="layer101">
   <path d="m174,629c-23,-26 -26,-45 -8,-60c8,-6 14,-8 14,-3c0,4 11,-3 25,-16c16,-15 23,-30 20,-41c-7,-21 11,-34 28,-20c10,7 24,-3 55,-39l43,-50l-65,-61c-36,-33 -76,-69 -89,-79c-20,-16 -53,-97 -43,-107c1,-2 21,3 43,10c30,9 60,34 119,97c43,47 81,86 84,87c3,1 39,-37 80,-84c73,-83 87,-93 141,-106c27,-7 27,-7 17,33c-8,32 -30,59 -101,125l-90,85l20,23c11,12 29,33 40,45c15,17 27,22 41,18c22,-7 39,8 21,19c-7,5 -1,17 17,36c15,15 31,26 35,23c8,-5 23,14 25,31c1,21 -38,54 -56,47c-11,-4 -19,-11 -18,-15c0,-5 -13,-22 -28,-38c-20,-21 -31,-26 -40,-18c-17,14 -29,-7 -15,-25c9,-11 0,-23 -39,-56c-50,-42 -51,-42 -73,-24c-67,56 -77,67 -66,80c14,17 1,37 -19,29c-16,-6 -65,33 -57,46c6,8 -12,22 -32,25c-6,1 -20,-7 -29,-17z" fill="#ffffff" id="svg_1"/>
  </g>
 </g>
</svg>