<svg id="Layer_1" data-name="Layer 1" xmlns="http://www.w3.org/2000/svg" viewBox="0 0 432 432"><title>Chicago</title><path d="M104.32451,393.08527A6.34438,6.34438,0,0,0,109.66149,396H321.9962a6.34621,6.34621,0,0,0,5.30566-2.86676,79.90673,79.90673,0,0,0-10.14038-100.197l-39.303-39.70959v-.00006a72.4467,72.4467,0,0,0,.51416-102.45386l-29.28381-29.57922.00012-.00024a44.25335,44.25335,0,0,0,.31421-62.583v-.00006a45.242,45.242,0,0,0-63.98108-.32111l-.00012.00006a44.2535,44.2535,0,0,0-.314,62.58313l-29.57935,29.28394a72.44692,72.44692,0,0,0-.514,102.45386l.00012.00006-39.60571,39.22C88.34929,318.62653,83.90935,361.27209,104.32451,393.08527Z"/></svg>