<svg id="Layer_1" data-name="Layer 1" xmlns="http://www.w3.org/2000/svg" viewBox="0 0 432 432"><defs><style>.cls-1 { fill: #fff; }</style></defs><title>Chicago</title><g><path class="cls-1" d="M248.00565,356.644c-2.9082-5.55469-3.88281-11.90186-4.42676-17.92334l-4.75378-.3714c-4.65.32965-9.41028.60144-14.14392.77789a117.737,117.737,0,0,0,4.34692,23.68726c4.68945,15.00928,20.94238,25.37842,40.44238,25.80225,14.209.29883,25.1084-3.9043,34.72754-7.62109,7.62207-2.94482,14.82031-5.72656,22.3457-5.72656,11.41211,0,22.915,6.66113,29.60254,11.354l9.84766-14.64453c-7.57715-4.83105-22.22852-13.26367-35.77441-15.84375-9.585-1.82812-18.22559,1.77979-28.22754,5.95508-8.99023,3.75342-18.28711,7.63477-29.19238,7.77393C261.06229,369.99414,252.67654,365.56738,248.00565,356.644Z"/><path class="cls-1" d="M127.80154,378.32813c9.61914,3.7168,20.498,7.93994,34.72656,7.62061,19.5-.42383,35.75293-10.793,40.44336-25.80273a112.64211,112.64211,0,0,0,4.06958-20.8728c-6.322-.14471-12.71045-.48706-18.8501-.93689-.59094,5.3208-1.6554,10.78326-4.198,15.63928-4.6709,8.92236-12.999,13.37158-24.793,13.22021-10.90527-.13965-20.20215-4.021-29.19238-7.77393-10.00293-4.17578-18.64453-7.7832-28.22754-5.95508-13.58594,2.5874-28.21289,11.01025-35.77734,15.83984l9.84961,14.64795c6.68848-4.69287,18.19141-11.35352,29.60254-11.35352C112.98123,372.60107,120.17947,375.38281,127.80154,378.32813Z"/><path class="cls-1" d="M169.36661,268.8512c3.78064.61853,9.01013,1.41644,14.94739,2.16376l23.0188-27.5174,5.06445-6.0542a6.49028,6.49028,0,0,1,9.82483-.15936c.1322.14777.26294.29736.3822.45819l24.53247,33.087c9.44543-1.42023,15.31726-2.93866,15.42651-2.96741.03711-.00977.07434-.01447.11157-.0235,17.67285-16.23785,26.62573-36.04114,26.62573-58.97406,0-54.02014-56.6532-108.9939-73.22705-123.917-.61865-.55707-1.18311-1.06012-1.68506-1.50342-.20154.18048-.40283.36066-.618.55469-16.578,14.94373-73.22668,69.96674-73.22668,123.91211C140.54373,231.77692,150.23587,252.25549,169.36661,268.8512Zm22.72791-95.6759h16.11133V156.60254a6.5,6.5,0,0,1,13,0v16.57275h16.11133a6.5,6.5,0,0,1,0,13H221.20584v28.10889a6.5,6.5,0,0,1-13,0V186.17529H192.09451a6.5,6.5,0,0,1,0-13Z"/><path class="cls-1" d="M215.13748,273.26855c2.92224,0,5.76831-.06805,8.52954-.18378,2.96753-.12433,5.83032-.306,8.56494-.52991l-9.08057-12.24725L217.075,252.1123l-10.60132,12.673-6.55493,7.83575c2.07129.15979,4.15259.29614,6.22241.40179C209.19009,273.17847,212.21317,273.26855,215.13748,273.26855Z"/><path class="cls-1" d="M155.99393,321.84082c5.46387.745,13.6355,1.77179,22.96362,2.65759,10.42627.99005,22.2959,1.80182,33.45447,1.848.3324.0014.66589.00415.99695.00415,2.39368,0,4.83862-.03809,7.308-.10486,5.989-.16193,12.12805-.50189,18.08484-.93811,13.54956-.99231,26.1416-2.47668,33.79077-3.46777l-4.03931-12.67279c-7.97437,1.11584-34.06873,4.51263-56.239,4.51263-20.85254,0-44.03027-3.004-53.028-4.2948Z"/><path class="cls-1" d="M189.77274,284.74969q-1.69666-.18008-3.3468-.37115-2.24176-.25937-4.37195-.53192c-1.50989-.19238-2.97095-.38715-4.37378-.58142-1.11475-.15442-2.19434-.30811-3.22925-.45972-3.01172-.4411-5.66345-.863-7.81641-1.221l-.395,1.49432-3.6062,13.64368c.67517.09351,1.41907.1944,2.20593.29944,3.52686.47083,8.1178,1.04211,13.33435,1.59351,5.20227.5498,11.01563,1.07739,17.00024,1.46191,5.08252.32654,10.282.5481,15.33081.592.60486.00525,1.20959.01031,1.80957.01031,2.1084,0,4.26477-.03571,6.44238-.09662,6.46729-.181,13.135-.60455,19.42285-1.12732,4.64673-.38635,9.07788-.825,13.06445-1.259,5.49731-.59851,10.13916-1.1853,13.30041-1.6073l-1.27612-4.00366-2.13293-6.692-1.30444-4.09247c-1.17334.23975-2.51721.5-3.98877.76886-.5437.0993-1.09546.1991-1.67749.30054-1.31946.22986-2.73889.46375-4.2439.69586-.41895.06464-.85645.12836-1.28906.19257-2.281.3385-4.73926.66876-7.37048.97357-1.10828.12836-2.24988.25055-3.41418.36823-4.22437.42694-8.8042.771-13.65576.972-2.92944.1214-5.946.19568-9.05371.19568-3.11328,0-6.31079-.09332-9.52075-.25354-3.89966-.1947-7.81628-.48968-11.62683-.845C192.56717,285.03729,191.15884,284.89685,189.77274,284.74969Z"/><path class="cls-1" d="M210.9368,69.39154a7.59059,7.59059,0,0,0,6.24341.28156c.123-.04852.24377-.10028.36353-.15491a7.68,7.68,0,1,0-6.60693-.12665Z"/><path d="M74.326,399.82861a6.5138,6.5138,0,0,0,4.29-1.61523c4.00293-3.50781,16.626-12.6123,26.83887-12.6123,5.10156,0,10.92188,2.249,17.66113,4.853,10.21094,3.9458,22.915,8.84375,39.69531,8.4917,25.085-.54541,46.21094-14.57959,52.56836-34.92187.08191-.262.15894-.52606.2384-.78912q.46838,1.73758,1.00183,3.45709c6.35645,20.34229,27.48145,34.37646,52.56738,34.92188,16.76953.36133,29.48535-4.54639,39.69629-8.4917,6.73926-2.604,12.55957-4.853,17.66016-4.853,10.21387,0,22.83594,9.10449,26.832,12.60693a6.49885,6.49885,0,0,0,9.69141-1.249L380.4119,373.8335a6.49927,6.49927,0,0,0-1.56738-8.88135c-.9707-.707-24.03418-17.36719-46.19238-21.58789-13.41992-2.55664-24.7334,2.16357-35.668,6.729-8.209,3.42725-15.96289,6.66455-24.35059,6.77148-12.28894.1756-14.87891-6.026-16.156-20.05573,14.24524-1.45953,24.8042-3.02808,25.6189-3.15033a6.50055,6.50055,0,0,0,5.22949-8.40234l-15.39307-48.294c19.90381-18.57129,30.36768-41.9267,30.36768-68.09808,0-29.20117-13.95605-61.34521-41.48047-95.53809a335.49453,335.49453,0,0,0-32.90662-35.202,20.67736,20.67736,0,1,0-27.04626.03436,335.65844,335.65844,0,0,0-31.843,34.214c-27.52441,34.19287-41.48047,66.33691-41.48047,95.53809,0,25.01257,9.55664,47.45361,27.77734,65.60419l-13.75879,52.0545a6.50025,6.50025,0,0,0,5.2627,8.08008c.84082.134,12.68506,1.99927,28.379,3.56049-1.38586,11.7049-4.38123,16.99023-15.38489,16.98981-.14844,0-.30078-.001-.45312-.00293-8.38672-.10742-16.14062-3.34424-24.35059-6.77148-10.93652-4.56592-22.24609-9.28613-35.668-6.729-22.1582,4.22021-45.22168,20.88037-46.19238,21.5874a6.5002,6.5002,0,0,0-1.56738,8.88135L68.93143,396.9585a6.5017,6.5017,0,0,0,4.55762,2.81543A6.43428,6.43428,0,0,0,74.326,399.82861Zm55.68164-40.40674c8.99023,3.75293,18.28711,7.63428,29.19238,7.77393,11.79395.15137,20.12207-4.29785,24.793-13.22021,2.5426-4.856,3.60706-10.31848,4.198-15.63928,6.13965.44983,12.52808.79218,18.8501.93689a112.64211,112.64211,0,0,1-4.06958,20.8728c-4.69043,15.00977-20.94336,25.37891-40.44336,25.80273-14.22852.31934-25.10742-3.90381-34.72656-7.62061-7.62207-2.94531-14.82031-5.72705-22.34668-5.72705-11.41113,0-22.91406,6.66064-29.60254,11.35352l-9.84961-14.64795c7.56445-4.82959,22.19141-13.25244,35.77734-15.83984C111.36307,351.63867,120.00467,355.24609,130.0076,359.42188ZM214.37186,54.856a7.67323,7.67323,0,0,1,3.17188,14.66223c-.11975.05463-.24048.10638-.36353.15491A7.67535,7.67535,0,1,1,214.37186,54.856Zm-.60144,29.14258c.21521-.194.4165-.37421.618-.55469.502.4433,1.06641.94635,1.68506,1.50342,16.57385,14.9231,73.22705,69.89685,73.22705,123.917,0,22.93292-8.95288,42.73621-26.62573,58.97406-.03723.009-.07446.01373-.11157.0235-.10925.02875-5.98108,1.54718-15.42651,2.96741l-24.53247-33.087c-.11926-.16083-.25-.31042-.3822-.45819a6.49028,6.49028,0,0,0-9.82483.15936l-5.06445,6.0542L184.314,271.015c-5.93726-.74731-11.16675-1.54523-14.94739-2.16376-19.13074-16.5957-28.82288-37.07428-28.82288-60.94055C140.54373,153.96527,197.19241,98.94226,213.77042,83.99854ZM243.57889,338.7207c.54395,6.02148,1.51855,12.36865,4.42676,17.92334,4.6709,8.92334,13.05664,13.3501,24.79395,13.21973,10.90527-.13916,20.20215-4.02051,29.19238-7.77393,10.002-4.17529,18.64258-7.7832,28.22754-5.95508,13.5459,2.58008,28.19727,11.0127,35.77441,15.84375L356.14627,386.623c-6.6875-4.69287-18.19043-11.354-29.60254-11.354-7.52539,0-14.72363,2.78174-22.3457,5.72656-9.61914,3.7168-20.51855,7.91992-34.72754,7.62109-19.5-.42383-35.75293-10.793-40.44238-25.80225a117.737,117.737,0,0,1-4.34692-23.68726c4.73364-.17645,9.4939-.44824,14.14392-.77789ZM232.232,272.55487c-2.73462.22388-5.59741.40558-8.56494.52991-2.76123.11572-5.6073.18378-8.52954.18378-2.92432,0-5.94739-.09009-8.99634-.24567-2.06982-.10565-4.15112-.242-6.22241-.40179l6.55493-7.83575,10.60132-12.673,6.07642,8.19531ZM166.23953,283.0788l.395-1.49432c2.153.358,4.80469.77991,7.81641,1.221,1.03491.15161,2.1145.3053,3.22925.45972,1.40283.19427,2.86389.389,4.37378.58142q2.12805.271,4.37195.53192,1.64795.19061,3.3468.37115c1.38611.14716,2.79443.2876,4.21716.42029,3.81055.35535,7.72717.65033,11.62683.845,3.21.16022,6.40747.25354,9.52075.25354,3.10767,0,6.12427-.07428,9.05371-.19568,4.85156-.201,9.4314-.545,13.65576-.972,1.16431-.11768,2.30591-.23987,3.41418-.36823,2.63123-.30481,5.08948-.63507,7.37048-.97357.43262-.06421.87012-.12793,1.28906-.19257,1.505-.23212,2.92444-.466,4.2439-.69586.582-.10144,1.13379-.20123,1.67749-.30054,1.47156-.26886,2.81543-.52911,3.98877-.76886l1.30444,4.09247,2.13293,6.692,1.27612,4.00366c-3.16125.422-7.8031,1.00879-13.30041,1.6073-3.98657.434-8.41772.87268-13.06445,1.259-6.28784.52277-12.95557.94635-19.42285,1.12732-2.17761.06091-4.334.09662-6.44238.09662-.6,0-1.20471-.00507-1.80957-.01031-5.04883-.04395-10.24829-.2655-15.33081-.592-5.98462-.38452-11.798-.91211-17.00024-1.46191-5.21655-.55139-9.8075-1.12268-13.33435-1.59351-.78687-.105-1.53076-.20593-2.20593-.29944Zm-6.95325,26.30609c8.99768,1.29077,32.17542,4.2948,53.028,4.2948,22.17029,0,48.26465-3.39679,56.239-4.51263l4.03931,12.67279c-7.64917.99109-20.24121,2.47546-33.79077,3.46777-5.95679.43622-12.09583.77618-18.08484.93811-2.46936.06677-4.91431.10486-7.308.10486-.33105,0-.66455-.00275-.99695-.00415-11.15857-.0462-23.0282-.858-33.45447-1.848-9.32812-.8858-17.49976-1.9126-22.96362-2.65759Z"/><path d="M192.09451,186.17529h16.11133v28.10889a6.5,6.5,0,1,0,13,0V186.17529h16.11133a6.5,6.5,0,0,0,0-13H221.20584V156.60254a6.5,6.5,0,0,0-13,0v16.57275H192.09451a6.5,6.5,0,0,0,0,13Z"/></g></svg>