<svg id="Layer_1" data-name="Layer 1" xmlns="http://www.w3.org/2000/svg" viewBox="0 0 432 432"><defs><style>.cls-1 { fill: #fff; }</style></defs><title>Chicago</title><g><path class="cls-1" d="M273.27228,257.43262a6.49948,6.49948,0,0,1,.04639-9.19141,66.02186,66.02186,0,0,0,.46875-93.26172l-29.28418-29.5791a6.50006,6.50006,0,0,1,.0459-9.19238,37.75263,37.75263,0,0,0,.26855-53.39111,38.48791,38.48791,0,0,0-27.3374-11.48437c-.06641-.00049-.1333-.00049-.19971-.00049a38.483,38.483,0,0,0-27.25146,11.21,37.79633,37.79633,0,0,0-.26855,53.39063,6.50021,6.50021,0,0,1-.0459,9.19238l-29.5791,29.28418a66.02185,66.02185,0,0,0-.46826,93.26172,6.49992,6.49992,0,0,1-.04541,9.19141L120.01642,296.083a73.63908,73.63908,0,0,0-9.99268,92.69727l211.68848.708a73.41522,73.41522,0,0,0-9.13672-92.3457Z"/><path d="M100.21466,397.50293c2.54559,3.1637,4.2876,4.25488,7.0835,4.26465l217.10425.72931c2.721-.01605,5.03815-1.1842,7.00464-4.14532A86.37729,86.37729,0,0,0,321.81476,287.998l-34.91748-35.2793A79.05082,79.05082,0,0,0,283.0257,145.833l-25.002-25.25391A50.83086,50.83086,0,0,0,254.056,53.67041a51.74239,51.74239,0,0,0-73.17334-.3667,50.831,50.831,0,0,0-4.63916,66.86475L150.98908,145.1709a79.05808,79.05808,0,0,0-4.94434,106.84082L110.869,286.8457A86.60774,86.60774,0,0,0,100.21466,397.50293ZM159.62189,256.8623a6.49992,6.49992,0,0,0,.04541-9.19141,66.02185,66.02185,0,0,1,.46826-93.26172l29.5791-29.28418a6.50021,6.50021,0,0,0,.0459-9.19238,37.79633,37.79633,0,0,1,.26855-53.39063,38.483,38.483,0,0,1,27.25146-11.21c.06641,0,.1333,0,.19971.00049a38.48791,38.48791,0,0,1,27.3374,11.48438,37.75263,37.75263,0,0,1-.26855,53.39111,6.50006,6.50006,0,0,0-.0459,9.19238l29.28418,29.5791a66.02186,66.02186,0,0,1-.46875,93.26172,6.49948,6.49948,0,0,0-.04639,9.19141l39.30322,39.71a73.41522,73.41522,0,0,1,9.13672,92.3457l-211.68848-.708a73.63908,73.63908,0,0,1,9.99268-92.69727Z"/><path d="M325.324,402.5l-.92163-.00311c-.01892.00012-.03693.00311-.05591.00311Z"/></g></svg>